<?xml version="1.0" encoding="utf-8"?>
<!-- Generator: Adobe Illustrator 24.0.1, SVG Export Plug-In . SVG Version: 6.00 Build 0)  -->
<svg version="1.0" id="Capa_1" xmlns="http://www.w3.org/2000/svg" xmlns:xlink="http://www.w3.org/1999/xlink" x="0px" y="0px"
	 viewBox="0 0 41.54 46.53" style="enable-background:new 0 0 41.54 46.53;" xml:space="preserve">
<g>
	<path d="M38.68,30.76c-2.41,7.64-9.41,12.77-17.42,12.77C11.19,43.53,3,35.34,3,25.27S11.19,7.01,21.26,7.01
		c1.25,0,2.49,0.14,3.7,0.39l-3.98,1.48l3.77,1.73l6.47-2.41l-2.41-6.47L25.04,0l1.77,4.75c-1.8-0.49-3.66-0.74-5.55-0.74
		C9.54,4.01,0,13.55,0,25.27s9.54,21.26,21.26,21.26c9.33,0,17.48-5.98,20.28-14.87L38.68,30.76z"/>
	<path d="M6.32,29.26h1.62l1.26-3.82h4.3l1.3,3.82h1.67l-4.14-12.14h-1.89L6.32,29.26z M11.32,18.51h0.04
		c0.18,0.7,0.36,1.42,0.63,2.21l1.19,3.49H9.52l1.19-3.51C10.94,19.96,11.14,19.23,11.32,18.51z"/>
	<path d="M21.06,31.78c-1.08,0-1.98-0.32-2.56-0.68l-0.4,1.21c0.7,0.47,1.85,0.72,2.9,0.72c1.1,0,2.32-0.25,3.17-1.04
		c0.85-0.76,1.24-1.98,1.24-3.98v-5.06c0-1.06,0.04-1.76,0.07-2.39H24.1l-0.07,1.31h-0.04c-0.38-0.72-1.21-1.51-2.72-1.51
		c-2,0-3.92,1.67-3.92,4.63c0,2.41,1.55,4.25,3.71,4.25c1.35,0,2.29-0.65,2.77-1.46h0.04v0.97C23.87,30.93,22.68,31.78,21.06,31.78z
		 M23.85,25.55c0,0.27-0.04,0.58-0.13,0.85c-0.34,1.01-1.22,1.62-2.2,1.62c-1.71,0-2.57-1.42-2.57-3.13c0-2.02,1.08-3.29,2.59-3.29
		c1.15,0,1.93,0.76,2.21,1.67c0.07,0.22,0.09,0.45,0.09,0.72V25.55z"/>
	<path d="M27.41,25.04c0,2.63,1.6,4.39,4.29,4.39c1.39,0,2.34-0.29,2.9-0.54l-0.27-1.13c-0.59,0.25-1.28,0.45-2.41,0.45
		c-1.58,0-2.95-0.88-2.99-3.03h6.12c0.02-0.16,0.05-0.41,0.05-0.74c0-1.6-0.76-4.11-3.6-4.11C28.96,20.34,27.41,22.41,27.41,25.04z
		 M31.37,21.48c1.78,0,2.21,1.57,2.2,2.58h-4.63C29.07,22.95,29.77,21.48,31.37,21.48z"/>
</g>
</svg>
