<?xml version="1.0" encoding="utf-8"?>
<!-- Generator: Adobe Illustrator 24.0.1, SVG Export Plug-In . SVG Version: 6.00 Build 0)  -->
<svg version="1.0" id="Capa_1" xmlns="http://www.w3.org/2000/svg" xmlns:xlink="http://www.w3.org/1999/xlink" x="0px" y="0px"
	 viewBox="0 0 39.4 44.41" style="enable-background:new 0 0 39.4 44.41;" xml:space="preserve">
<g>
	<path d="M39.4,24.71c0-10.36-8.04-18.85-18.2-19.62V3h8.38V0H9.82v3h8.38v2.08C8.04,5.85,0,14.35,0,24.71
		c0,5.43,2.21,10.35,5.77,13.91l-2.24,3.47l2.52,1.63l2.03-3.15c3.26,2.4,7.28,3.83,11.63,3.83c4.35,0,8.36-1.43,11.63-3.83
		l2.03,3.15l2.52-1.63l-2.24-3.47C37.19,35.05,39.4,30.13,39.4,24.71z M3,24.71c0-9.21,7.49-16.7,16.7-16.7s16.7,7.49,16.7,16.7
		s-7.49,16.7-16.7,16.7S3,33.92,3,24.71z"/>
	<polygon points="21.2,11.75 18.2,11.75 18.2,26.21 29.22,26.21 29.22,23.21 21.2,23.21 	"/>
</g>
</svg>
