<svg id="Capa_1" data-name="Capa 1" xmlns="http://www.w3.org/2000/svg" viewBox="0 0 406.31 101.83"><defs><style>.cls-1{fill:#0078e0;}</style></defs><title>4square_logo</title><path d="M119.94,33.18,136,2.32h12V34.21h4.52v8.55h-4.52v9.78H137.05V42.76H119.94Zm17.11,1V17.58h-.14l-8.35,16.63Z"/><path d="M165.78,35.37V39a10.82,10.82,0,0,0,.2,2.09,4.73,4.73,0,0,0,.76,1.78,3.71,3.71,0,0,0,1.47,1.23,5.37,5.37,0,0,0,2.36.45A3.32,3.32,0,0,0,173.64,43a6.68,6.68,0,0,0,1-3.55A6,6,0,0,0,174,36.6a7.55,7.55,0,0,0-1.58-2.05A11.93,11.93,0,0,0,170.26,33c-.8-.45-1.59-.93-2.36-1.43q-2.81-1.58-5.1-3.15a20.49,20.49,0,0,1-4-3.56,15.69,15.69,0,0,1-2.57-4.41,16.63,16.63,0,0,1-.92-5.85q0-7.24,4-10.91T170.43,0a17.93,17.93,0,0,1,6.88,1.23,12.75,12.75,0,0,1,4.89,3.46A14,14,0,0,1,185,10a20,20,0,0,1,.69,6.67H174.6c0-.73-.09-1.51-.13-2.36a10.29,10.29,0,0,0-.41-2.36,4.08,4.08,0,0,0-1.13-1.81,3.89,3.89,0,0,0-2.29-.86,3.84,3.84,0,0,0-2.91.79,4,4,0,0,0-1.27,2.64,4.88,4.88,0,0,0,.79,3.69,12.69,12.69,0,0,0,2.84,2.6c2.28,1.46,4.36,2.7,6.26,3.73a24,24,0,0,1,5,3.52A13.84,13.84,0,0,1,184.59,31a19.63,19.63,0,0,1,1.16,7.49q0,7.45-4,11.39t-11.5,3.93a21.11,21.11,0,0,1-7.08-1.06,13.76,13.76,0,0,1-4.89-2.87,11.07,11.07,0,0,1-2.8-4.14,13.34,13.34,0,0,1-.89-4.86V35.37Z"/><path d="M223.11,36.19a31.4,31.4,0,0,1-.76,7.29,13.08,13.08,0,0,1-2.6,5.43l5.61,6-7,6-6.77-7.59a6,6,0,0,1-1.1.17c-.36,0-.73.06-1.09.1s-.76.08-1.17.11-.84,0-1.3,0a22.78,22.78,0,0,1-7.69-1.13,12.17,12.17,0,0,1-5.07-3.32,12.92,12.92,0,0,1-2.8-5.5,30.71,30.71,0,0,1-.86-7.63V15.32q0-7.46,4.25-11.39T206.89,0Q214.83,0,219,3.93t4.14,11.39Zm-20.6,1a23.36,23.36,0,0,0,.14,2.39,8.81,8.81,0,0,0,.58,2.39,4.44,4.44,0,0,0,1.34,1.82,3.56,3.56,0,0,0,2.32.72,3.48,3.48,0,0,0,2.3-.72A4.36,4.36,0,0,0,210.45,42a8.45,8.45,0,0,0,.51-2.39c.07-.87.11-1.66.11-2.39V16.14c0-.77,0-1.57-.11-2.39a7.23,7.23,0,0,0-.51-2.22,3.92,3.92,0,0,0-1.26-1.64,3.8,3.8,0,0,0-2.36-.66,3.68,3.68,0,0,0-2.3.66,4.18,4.18,0,0,0-1.3,1.64,7.54,7.54,0,0,0-.58,2.22,22,22,0,0,0-.14,2.39Z"/><path d="M228.65,1.23h12V40a9,9,0,0,0,.17,1.78,3.61,3.61,0,0,0,.62,1.44,3,3,0,0,0,1.26,1,5.16,5.16,0,0,0,2.12.38,3.85,3.85,0,0,0,1.95-.45,3.64,3.64,0,0,0,1.27-1.16,4.92,4.92,0,0,0,.68-1.61,7.4,7.4,0,0,0,.21-1.71V1.23h12V38.38a22.66,22.66,0,0,1-.79,6.09,11.54,11.54,0,0,1-2.7,4.85,13.2,13.2,0,0,1-5,3.25,21.54,21.54,0,0,1-7.7,1.2q-7.66,0-11.9-3.73t-4.24-11.66Z"/><path d="M264.43,52.54,275.65,1.23h14.5L301.3,52.54H289.12l-1.71-10H278l-1.43,10Zm18.47-42h-.14l-3.49,23h7Z"/><path d="M316.76,52.54h-12V1.23H322.3q7.45,0,11.12,3.25t3.66,10.91a17.3,17.3,0,0,1-1.3,7.05,9.47,9.47,0,0,1-5.06,4.65v.14a7.9,7.9,0,0,1,4.17,2.26,6.5,6.5,0,0,1,1.78,4.37q.13,1.57.24,3.84c.07,1.5.14,3,.21,4.58s.14,3,.23,4.45a23.23,23.23,0,0,0,.41,3.35,4.84,4.84,0,0,0,1.17,1.78v.68H325.79a12.8,12.8,0,0,1-.44-1.47,9,9,0,0,1-.24-1.47c-.09-2.28-.12-4.44-.07-6.47a38.24,38.24,0,0,0-.21-5.43,9.65,9.65,0,0,0-1.12-3.84,3.48,3.48,0,0,0-3-1.57h-4Zm0-29.49h4.11a3.69,3.69,0,0,0,3.49-2A6.58,6.58,0,0,0,325,19a16.6,16.6,0,0,0,.17-2.33,10.64,10.64,0,0,0-.48-3.56,3.57,3.57,0,0,0-1.51-1.91,5.8,5.8,0,0,0-2.63-.72c-1.07-.07-2.34-.08-3.8,0Z"/><path d="M343,52.54V1.23H370.6V11.49H355.07v9.44h15.05V31.2H355.07V42.28h16.35V52.54Z"/><path d="M386.34,35.37V39a10.82,10.82,0,0,0,.2,2.09,4.73,4.73,0,0,0,.76,1.78,3.71,3.71,0,0,0,1.47,1.23,5.37,5.37,0,0,0,2.36.45A3.32,3.32,0,0,0,394.2,43a6.68,6.68,0,0,0,1-3.55,6,6,0,0,0-.61-2.81A7.55,7.55,0,0,0,393,34.55,11.93,11.93,0,0,0,390.82,33c-.8-.45-1.59-.93-2.36-1.43q-2.81-1.58-5.1-3.15a20.49,20.49,0,0,1-4-3.56,15.46,15.46,0,0,1-2.57-4.41,16.63,16.63,0,0,1-.92-5.85q0-7.24,4-10.91T391,0a17.85,17.85,0,0,1,6.87,1.23,12.71,12.71,0,0,1,4.9,3.46,14,14,0,0,1,2.8,5.26,20,20,0,0,1,.69,6.67H395.16c0-.73-.09-1.51-.13-2.36a10.29,10.29,0,0,0-.41-2.36,4.08,4.08,0,0,0-1.13-1.81,3.9,3.9,0,0,0-2.3-.86,3.83,3.83,0,0,0-2.9.79A4,4,0,0,0,387,12.66a4.88,4.88,0,0,0,.79,3.69,12.47,12.47,0,0,0,2.84,2.6c2.28,1.46,4.36,2.7,6.26,3.73a24,24,0,0,1,5,3.52A13.84,13.84,0,0,1,405.15,31a19.63,19.63,0,0,1,1.16,7.49q0,7.45-4,11.39t-11.5,3.93a21.11,21.11,0,0,1-7.08-1.06,13.76,13.76,0,0,1-4.89-2.87,11.07,11.07,0,0,1-2.8-4.14,13.34,13.34,0,0,1-.89-4.86V35.37Z"/><path d="M119.1,69.41h25.17V72H133.2v29.17h-3V72H119.1Z"/><path d="M162.33,89.69c0,6.58-3.87,12.14-10.85,12.14s-10.85-5.56-10.85-12.14,3.87-12.14,10.85-12.14S162.33,83.11,162.33,89.69Zm-18.9,0c0,4.84,2.71,9.78,8,9.78s8.05-4.94,8.05-9.78-2.72-9.79-8.05-9.79S143.43,84.84,143.43,89.69Z"/><path d="M178.87,78.22h2.58V83.6h.09a8.43,8.43,0,0,1,8.67-5.7v2.81a7.9,7.9,0,0,0-8.54,8.22v12.23h-2.8Z"/><path d="M211.46,101.16h-2.58V97h-.08a8.56,8.56,0,0,1-7.92,4.8c-5.82,0-8-3.34-8-8.72V78.22h2.8V93.16c.14,4.13,1.69,6.31,6.14,6.31,4.8,0,6.89-4.53,6.89-9.2v-12h2.8Z"/><path d="M216.8,69.41h2.8v31.75h-2.8Z"/><path d="M226.63,90.44c0,4.09,2.22,9,7.56,9,4.09,0,6.31-2.36,7.2-5.87h2.8c-1.2,5.2-4.18,8.23-10,8.23-7.3,0-10.37-5.6-10.37-12.14,0-6,3.07-12.14,10.37-12.14S244.5,84,244.28,90.44Zm14.85-2.35c-.13-4.23-2.8-8.19-7.29-8.19s-7.07,4-7.56,8.19Z"/><path d="M264.87,78.22h4.67v2.35h-4.67V96.05c0,1.82.27,2.89,2.27,3a21.44,21.44,0,0,0,2.4-.13v2.4c-.85,0-1.65.09-2.49.09-3.74,0-5-1.25-5-5.16V80.57h-4V78.22h4v-6.9h2.8Z"/><path d="M273.54,69.41h2.8V82.17h.09a7.83,7.83,0,0,1,7.34-4.62c6.45,0,8.4,3.38,8.4,8.85v14.76h-2.8V86.84c0-3.91-1.29-6.94-5.82-6.94s-7.08,3.38-7.21,7.88v13.38h-2.8Z"/><path d="M299.11,90.44c0,4.09,2.22,9,7.56,9,4.09,0,6.31-2.36,7.2-5.87h2.8c-1.2,5.2-4.18,8.23-10,8.23-7.29,0-10.36-5.6-10.36-12.14,0-6,3.07-12.14,10.36-12.14S317,84,316.76,90.44ZM314,88.09c-.13-4.23-2.8-8.19-7.29-8.19s-7.07,4-7.56,8.19Z"/><path d="M320.54,78.22h2.58v3.86h.13a7.9,7.9,0,0,1,7.52-4.53c3,0,5.74,1.47,6.58,4.49a7.76,7.76,0,0,1,7.29-4.49c5.07,0,7.61,2.67,7.61,8v15.56h-2.8V85.73c0-3.78-1.38-5.83-5.43-5.83-4.84,0-6.22,4-6.22,8.28v13H335V85.6c0-3.12-1.2-5.7-4.8-5.7-4.8,0-6.85,3.65-6.85,8.45v12.81h-2.8Z"/><path d="M369.68,85.24c.31-5.38,4-7.69,9.29-7.69,4,0,8.45,1.2,8.45,7.38V97.11a1.47,1.47,0,0,0,1.65,1.69,2.17,2.17,0,0,0,.89-.17V101a7.63,7.63,0,0,1-1.83.18c-2.84,0-3.29-1.64-3.29-4h-.09c-2,3-3.91,4.67-8.36,4.67-4.27,0-7.69-2.09-7.69-6.72,0-6.4,6.27-6.67,12.32-7.38,2.31-.22,3.6-.62,3.6-3.11,0-3.78-2.67-4.72-6-4.72-3.52,0-6,1.61-6.14,5.34Zm14.94,3.38h-.09c-.35.67-1.6.89-2.36,1-4.75.85-10.67.85-10.67,5.3,0,2.8,2.45,4.53,5.12,4.53,4.31,0,8-2.71,8-7.2Z"/><path d="M393.07,69.41h2.8v31.75h-2.8Z"/><path d="M401.3,69.41h2.8v31.75h-2.8Z"/><polygon class="cls-1" points="101.83 101.83 43.02 101.83 43.02 82.09 82.09 82.09 82.09 72.49 101.83 72.49 101.83 101.83"/><polygon class="cls-1" points="29.34 101.83 0 101.83 0 43.02 19.73 43.02 19.73 82.09 29.34 82.09 29.34 101.83"/><polygon class="cls-1" points="19.73 29.34 0 29.34 0 0 58.81 0 58.81 19.73 19.73 19.73 19.73 29.34"/><polygon class="cls-1" points="101.83 58.81 82.09 58.81 82.09 19.73 72.49 19.73 72.49 0 101.83 0 101.83 58.81"/></svg>