<?xml version="1.0" encoding="utf-8"?>
<!-- Generator: Adobe Illustrator 24.0.1, SVG Export Plug-In . SVG Version: 6.00 Build 0)  -->
<svg version="1.1" id="Capa_1" xmlns="http://www.w3.org/2000/svg" xmlns:xlink="http://www.w3.org/1999/xlink" x="0px" y="0px"
	 viewBox="0 0 1713.8 1080" style="enable-background:new 0 0 1713.8 1080;" xml:space="preserve">
<style type="text/css">
	.st0{fill:#AEC8DF;}
	.st1{fill:#0078DF;}
	.st2{fill:#91E2A8;}
	.st3{fill:#263238;}
	.st4{fill:none;stroke:#263238;stroke-width:4;stroke-miterlimit:10;}
	.st5{fill:#FFFFFF;}
	.st6{font-family:'HelveticaNeueLTPro-Md';}
	.st7{font-size:271.2294px;}
	.st8{font-size:44.4816px;}
</style>
<path class="st0" d="M3145.6,1081.2c0,0-151.5-18.5-269.7,91.7c-118.2,110.2-149.9,283.6-179.3,423.3
	c-29.4,139.7,35.2,260.5,153.8,295.6c118.6,35.1,169.2-67.3,315-104.5c145.8-37.2,190.3-25,292.3-135.7
	c102-110.7,77.4-312.5-53.3-436.5C3273.7,1091.1,3145.6,1081.2,3145.6,1081.2z"/>
<path class="st1" d="M2253.4,1490.7c0,0-151.5-18.5-269.7,91.7s-149.9,283.6-179.3,423.3c-29.4,139.7,35.2,260.5,153.8,295.6
	c118.6,35.1,169.2-67.3,315-104.5s190.3-25,292.3-135.7c102-110.7,77.4-312.5-53.3-436.5C2381.5,1500.6,2253.4,1490.7,2253.4,1490.7
	z"/>
<g>
	<g>
		<g id="freepik--background-simple--inject-2">
			<path class="st0" d="M162,785.5c0,0,109.2,189.5,385.4,251.4c276.1,62,571-20.6,812-82.7s367.7-220.7,314-383.5
				s-256.7-151-446-295.5S1016.4,70.5,754,27.8S204.4,153.1,132.6,391.1S162,785.5,162,785.5z"/>
		</g>
		<g id="freepik--Trees--inject-2">
			<path class="st2" d="M1275.9,522.8c0,0,74.3,7.4,111.9,53.4c0,0,39.8-53.3,111.2-52.2c50.9-61.4,42.4-152.4-19-203.2
				s-152.4-42.4-203.2,19c-44,53-44.3,129.7-0.9,183.2L1275.9,522.8z"/>
			<path class="st1" d="M1275.9,522.8c0,0,74.3,7.4,111.9,53.4c0,0,39.8-53.3,111.2-52.2c50.9-61.4,42.4-152.4-19-203.2
				s-152.4-42.4-203.2,19c-44,53-44.3,129.7-0.9,183.2L1275.9,522.8z"/>
			<polygon class="st3" points="1385.3,297.7 1382.8,778.9 1395.4,778.9 			"/>
			<path class="st3" d="M1389.1,562.2c0,0,25-45.1,70.2-58.9c0,0-47.6,11.3-71.3,50.2L1389.1,562.2z"/>
			<path class="st3" d="M1389.1,434.3c0,0,25-45.1,70.2-58.9c0,0-47.6,11.3-71.3,50.2L1389.1,434.3z"/>
			<path class="st3" d="M1389.1,498.2c0,0,25-45.1,70.2-58.9c0,0-47.6,11.3-71.3,50.2L1389.1,498.2z"/>
			<path class="st3" d="M1385.4,466.9c0,0-24.2-45.1-67.7-58.9c0,0,46,11.3,68.9,50.2L1385.4,466.9z"/>
			<path class="st3" d="M1385.4,529.6c0,0-24.2-45.1-67.7-58.9c0,0,46,11.3,68.9,50.1L1385.4,529.6z"/>
			<path class="st2" d="M60.6,522.8c0,0,74.3,7.4,111.9,53.4c0,0,39.8-53.3,111.2-52.2c50.9-61.4,42.4-152.4-19-203.2
				s-152.4-42.4-203.2,19c-44,53-44.3,129.7-0.9,183.2L60.6,522.8z"/>
			<path class="st1" d="M60.6,522.8c0,0,74.3,7.4,111.9,53.4c0,0,39.8-53.3,111.2-52.2c50.9-61.4,42.4-152.4-19-203.2
				s-152.4-42.4-203.2,19c-44,53-44.3,129.7-0.9,183.2L60.6,522.8z"/>
			<polygon class="st3" points="170.1,297.7 167.5,778.9 180.1,778.9 			"/>
			<path class="st3" d="M173.8,562.2c0,0,25-45.1,70.2-58.9c0,0-47.6,11.3-71.3,50.2L173.8,562.2z"/>
			<path class="st3" d="M173.8,434.3c0,0,25-45.1,70.2-58.9c0,0-47.6,11.3-71.3,50.2L173.8,434.3z"/>
			<path class="st3" d="M173.8,498.2c0,0,25-45.1,70.2-58.9c0,0-47.6,11.3-71.3,50.2L173.8,498.2z"/>
			<path class="st3" d="M170.1,466.9c0,0-24.2-45.1-67.7-58.9c0,0,46,11.3,68.9,50.2L170.1,466.9z"/>
			<path class="st3" d="M170.1,529.6c0,0-24.2-45.1-67.7-58.9c0,0,46,11.3,68.9,50.1L170.1,529.6z"/>
			<path class="st2" d="M974.2,569.5c0,0,60.8,6,91.6,43.7c0,0,32.6-43.6,91-42.8c41.6-50.2,34.6-124.7-15.6-166.3
				s-124.7-34.6-166.3,15.6C938.9,463.1,938.6,525.8,974.2,569.5L974.2,569.5z"/>
			<path class="st1" d="M974.2,569.5c0,0,60.8,6,91.6,43.7c0,0,32.6-43.6,91-42.8c41.6-50.2,34.6-124.7-15.6-166.3
				s-124.7-34.6-166.3,15.6C938.9,463.1,938.6,525.8,974.2,569.5L974.2,569.5z"/>
			<polygon class="st3" points="1063.8,385.1 1061.7,778.9 1072,778.9 			"/>
			<path class="st3" d="M1066.9,601.5c0,0,20.5-36.9,57.4-48.2c0,0-38.9,9.2-58.3,41L1066.9,601.5z"/>
			<path class="st3" d="M1066.9,496.9c0,0,20.5-36.9,57.4-48.2c0,0-38.9,9.2-58.3,41L1066.9,496.9z"/>
			<path class="st3" d="M1066.9,549.2c0,0,20.5-36.9,57.4-48.2c0,0-38.9,9.2-58.3,41L1066.9,549.2z"/>
			<path class="st3" d="M1063.8,523.6c0,0-19.8-36.9-55.4-48.2c0,0,37.6,9.2,56.4,41L1063.8,523.6z"/>
			<path class="st3" d="M1063.8,574.8c0,0-19.8-36.9-55.4-48.2c0,0,37.6,9.2,56.4,41L1063.8,574.8z"/>
			<path class="st2" d="M386.2,569.5c0,0,60.8,6,91.6,43.7c0,0,32.4-43.6,91-42.8c41.6-50.2,34.6-124.7-15.6-166.3
				s-124.7-34.6-166.3,15.6C350.9,463.1,350.6,525.8,386.2,569.5L386.2,569.5z"/>
			<path class="st1" d="M386.2,569.5c0,0,60.8,6,91.6,43.7c0,0,32.4-43.6,91-42.8c41.6-50.2,34.6-124.7-15.6-166.3
				s-124.7-34.6-166.3,15.6C350.9,463.1,350.6,525.8,386.2,569.5L386.2,569.5z"/>
			<polygon class="st3" points="475.7,385.1 473.7,778.9 484,778.9 			"/>
			<path class="st3" d="M479,601.5c0,0,20.5-36.9,57.4-48.2c0,0-38.9,9.2-58.3,41L479,601.5z"/>
			<path class="st3" d="M479,496.9c0,0,20.5-36.9,57.4-48.2c0,0-38.9,9.2-58.3,41L479,496.9z"/>
			<path class="st3" d="M479,549.2c0,0,20.5-36.9,57.4-48.2c0,0-38.9,9.2-58.3,41L479,549.2z"/>
			<path class="st3" d="M475.7,523.6c0,0-19.8-36.9-55.4-48c0,0,37.6,9.2,56.4,41L475.7,523.6z"/>
			<path class="st3" d="M475.7,574.8c0,0-19.8-36.9-55.4-48.2c0,0,37.6,9.2,56.4,41L475.7,574.8z"/>
			<line class="st4" x1="83" y1="780.7" x2="1481.1" y2="780.7"/>
		</g>
	</g>
	<g>
		<path class="st3" d="M1125.5,584.9c3.4-2.5,6.8-3.7,10.5-3.3c5,0.4,9.9-0.2,14.9-0.2c0.5,0,1-0.1,1.5-0.1c6.1-0.6,10.7,2,14,6.8
			c2.1,3.1,5,5.1,8,7.1c0.4,0.3,0.9,0.5,1.3,0.8c3.9,3.8,8.9,5.5,13.9,7.2c3,1,6,2.2,9,3.2c1.4,0.5,1.4,1.4,0.9,2.4
			c-0.7,1.5-2.1,2.3-3.5,2.9c-1.9,0.8-4,1.2-6,1.7c-1.6,0.4-3.2,0.7-4.8,1.2c-2.4,0.8-3,2.7-1.6,4.8c0.4,0.6,0.9,1.1,1.2,1.8
			c0.6,1.3,0.7,2.7-0.7,3.6c-1.4,0.9-1.5,2.1-1.6,3.5c-0.1,5,0.3,9.9,1.6,14.7c1,3.8,1.6,7.7,2.2,11.5c0.5,3.2-0.3,6.2-2.1,8.8
			c-4,5.6-5,12.1-6.1,18.7c-0.8,4.5-0.5,9.1-2.1,13.4c0,0.1,0,0.2-0.1,0.3c-0.8,4.9,0.1,6,5,6c4.8,0.1,9.7-0.6,14.4,1.1
			c0.5,0.2,1.1,0.1,1.4-0.3c1.9-1.8,4.4-2.2,6.7-3.2c1.8-0.8,2.9-1.9,2.8-4c0-1.4,0.3-2.7,0.9-3.9c1.4-2.8,1.9-5.8,2.2-9
			c0.6-6.4,1.3-12.7,2.4-19.1c0.8-5,0.2-9.9-0.4-14.8c-0.5-3.5-1.2-6.8-3.2-9.9c-1.8-2.8-1.2-5.9,1.2-8.5c1-1,1.1-1.6,0.3-2.9
			c-2.5-4.4-1-8.8,3.7-10.6c2.1-0.8,3.2-2.1,3.7-4.2c0.2-0.9,0.5-1.8,1-2.6c0.9-1.2,2.2-1.9,3.8-1.7c1.5,0.3,3,1.5,2.9,3.2
			c-0.3,4.9,1.4,9.3,2.6,13.9c0.8,3.1,0.7,5.9-1.3,8.5c-0.4,0.5-0.6,1.1-0.6,1.7c0,2.6-1.1,4.8-1.8,7.2c-1.7,5.7-3.4,11.5-3.5,17.6
			c0,2.3,0,4.5,1,6.7c1.3,2.7,0.3,5.5-0.4,8.2c-1.2,4.5-2.6,8.9-3.9,13.4c-0.9,2.9-0.9,5.9-1.3,8.9c-0.1,0.6,0.1,1.2,0.3,1.8
			c2.5,6.2,2.2,12.3-1.2,18.1c-1.4,2.4-2.1,4.8-2.4,7.6c-2.4,20.5-4.9,41-7.3,61.5c-1.3,10.8-2.6,21.5-3.9,32.3
			c-0.2,1.7-0.1,3.2,1,4.6c1.1,1.4,1.7,3,2.2,4.7c0.7,2.5,1.5,5,1.9,7.5c0.7,4.4,3,8.1,4.6,12.1c0.2,0.6,0.7,1,1.1,1.5
			c1.5,1.5,2.8,3,1.9,5.4c-0.3,0.8,0,1.6,0.4,2.4c0.4,0.7,1,1.4,1.1,2.2c0.5,3.6,3.3,5.1,5.9,6.6c2.4,1.4,5.2,0.9,7.9,0.5
			c2.2-0.4,4.2-1.2,6.1-2.1c1.9-0.9,3.9-1.4,6-1.4c3.1,0.1,5.4,3,4.5,5.9c-0.8,2.6-2.3,4.9-4.4,6.9c-4,3.8-8.9,5.4-14,6.8
			c-3,0.8-5.9,1.9-8.6,3.5c-2.6,1.5-5.5,2.3-8.3,3.4c-1.1,0.4-2.2,0.4-3.4,0.4c-3.8-0.1-5.2-1.5-5.4-5.3c0-0.5,0-1-0.1-1.5
			c-0.3-2.3-0.7-2.6-3.2-2.5c-4.5,0.1-4.9-0.5-5.3,5c-0.1,1.2-0.3,2.5-0.4,3.7c-0.2,3-1.2,4.2-3.8,4.2c-2.3,0-4.3-1.8-4.5-4.2
			c-0.1-0.8,0.1-1.6,0.2-2.5c0.1-1.3,0.4-2.7,0.5-4c0.2-1.8-0.1-2.2-1.8-2c-3.4,0.5-6.8,0.2-10.2,0.9c-5.7,1.2-11.5,0.6-17.3,0.7
			c-11.1,0.2-7.2-0.9-17.5,4c-2.5,1.2-5.3,1.7-7.5,3.7c-0.6,0.6-1.5,0.5-2.4,0.6c-4.6,0.5-9.3,0.5-13.9,0c-2.1-0.2-4.1-0.2-6.2,0.2
			c-1.7,0.4-3.3,0.1-4.9-0.3c-1.2-0.3-2.4-0.8-3.7-0.6c-4.8,0.6-9.7,0.3-14.4,1.9c-0.5,0.2-1,0.3-1.5,0.4c-4.8,1-8.2-1.8-8.1-6.7
			c0.1-6,2.5-11.3,5.7-16.1c5.4-8,10.9-15.8,16.4-23.7c2.2-3.2,3.9-6.4,4.5-10.3c0.8-4.9,2.3-9.6,3.5-14.4c0.8-3.2,2.2-6.2,3.8-9.1
			c0.8-1.6,1.7-3.1,1.9-4.9c0.1-0.7,0.4-1.4,0.8-2c2.9-4.3,3.8-9.3,5.2-14.1c0.1-0.2,0.1-0.4,0.2-0.6c2.5-2.5,1.7-5.8,2-8.8
			c0.7-6.3,0.7-12.8,2.6-18.9c0.1-0.4,0.3-0.8,0.3-1.2c-0.3-4,0.2-8,0-12c-0.1-2.2-0.2-4.3,0.2-6.4c0.6-2.8,0.9-5.6,2.8-8.1
			c1.1-1.5,1.6-3.6,2.3-5.4c0.5-1.2,0.2-2.2-1-2.4c-2.6-0.5-3.3-2.2-3.7-4.6c-0.5-3.4-1.3-6.7-1.7-10.1c-0.1-1.3-0.6-2.4-1.7-3.2
			c-0.7-0.6-1.5-1.1-2.2-1.7c-2.8-2.4-3.3-4.9-1.8-8.2c0.5-1.1,1-2.2,0.4-3.2c-1.2-2-0.6-4,0.6-5.5c1.8-2.3,1.9-4.8,1.4-7.3
			c-0.5-2.8,0-5.4,0.9-7.9c1.4-4.1,2.3-8.2,2.2-12.7c-0.1-4.5,2.6-8.3,6.2-11c3.4-2.5,6.2-5.7,9.3-8.5c0.3-0.3,0.5-0.7,0.6-1
			c0.4-3.5,2.2-6.1,5-8.2c0.5-0.4,0.7-1,0.9-1.6c0.9-2.4,0.9-2.5,3.6-2c1.2,0.2,2.5,0.3,3.7,0.1c1.2-0.2,1.8-0.9,1.7-2.1
			c0-0.1,0-0.2,0-0.3c-0.4-6.7-1.7-7.4-7.4-3.9c-2.6,1.6-4.8,3.6-6.6,6c-0.4,0.6-0.9,1.2-1.4,1.7c-0.4,0.4-0.8,0.7-1.4,0.4
			c-0.6-0.3-0.5-0.9-0.4-1.4c1-3.4,1.9-6.8,3.9-9.7c0.2-0.3,0.4-0.7,0.7-1c3.6-4.4,4.2-9.5,3.3-14.9c-0.3-1.6-0.4-3.3-0.5-4.9
			c-0.2-3.6-1.7-6.6-4.8-8.6c-3.5-2.2-7.1-4.3-10.9-5.9C1126.7,585.5,1126.3,585.3,1125.5,584.9z M1194.6,800c0.8-0.4,0.7-1,0.8-1.5
			c0.9-7.3,1.7-14.6,2.6-21.8c1.3-11.1,2.7-22.1,4.1-33.2c0.6-4.8,1.1-9.6,1.7-14.5c0.1-0.9,0.4-1.9-0.6-2.5
			c-1.2-0.6-2.3-1.5-3.7-1.5c-2.3,0-4.5,0-6.8,0c-1.4,0-2,0.8-2.5,1.9c-1.7,4.2-3.3,8.5-5.1,12.6c-0.9,2-1.3,4.1-1.1,6.3
			c0.2,2.3,0.1,4.5-0.4,6.8c-0.2,1-0.3,2.1,0,3.1c1.5,4.6,2.3,9.5,4.9,13.7c1.1,1.8,2,3.6,1.2,5.8c-0.2,0.5-0.1,1.2,0.1,1.8
			c0.9,3.5,0.5,7.3,2.5,10.5c0.2,0.3,0.2,0.8,0.1,1.2c-0.4,1.8,0.2,3.6,1,5.1C1194.3,795.8,1195,797.7,1194.6,800z"/>
		<path class="st3" d="M347.5,781.9c0.2,2,0.2,3.9,0.6,5.7c1.3,6.1,1.6,12.3,2.2,18.5c0.6,6.9,0.9,13.8,1.4,20.7c0,0.1,0,0.2,0,0.3
			c1.3,3.1,0.8,6.5,1.2,9.7c0.3,2.2,1.2,3,3.4,3.3c1,0.1,2.1,0.1,3,0.7c0.9,0.6,0.9,1.4-0.1,1.9c-0.8,0.4-1.7,0.6-2.7,0.7
			c-2.3,0.2-3.1,1.1-2.9,3.4c0,0.5,0.2,1,0.3,1.5c0.4,2.2,0.6,4.5,0.4,6.8c-0.4,3.1,0.3,4,3.2,5.1c0.4,0.1,0.8,0.2,1.2,0.4
			c0.5,0.2,0.9,0.6,0.9,1.1c0,0.6-0.5,1-1,1c-3.8-0.2-3.5,2.4-4,5.1c-0.7,3.5,0.5,5.8,2.9,7.9c1.6,1.4,2.7,3.4,4.5,4.6
			c1.2,0.9,2.4,1.5,4,1.4c1.9-0.1,3.7,0.3,5.5,0.6c1.7,0.3,2.9,1.1,3.5,2.7c0.6,1.6-0.4,2.8-1.5,3.8c-0.5,0.5-1.2,0.9-1.3,1.7
			c-0.5,2.1-2,2.4-3.9,2.8c-6,1.3-11.5-0.1-16.9-2.4c-1.9-0.8-3.8-1.5-6-1.1c-0.9,0.2-1.8-0.1-2.7-0.3c-1.8-0.4-2.8-1.4-3.1-3.4
			c-0.4-2.3,0-4.8-1.6-6.8c-0.5-0.6,0.1-1.2,0.8-1.3c1.4-0.2,1.5-1.3,1.4-2.3c-0.4-4.1-0.5-8.3-1.2-12.3c-0.2-1.1-0.8-1.9-1.6-2.6
			c-1.5-1.3-2.1-3.1-2.1-5c0-3-1.6-5.5-2.5-8.2c-0.3-1-1.4-1.5-2.3-2c-2.1-1.3-3-3-2.4-5.5c0.4-1.4,0.5-2.9,0.8-4.3
			c0.6-3.4,0.9-6.7,0-10.1c-0.4-1.7-0.3-3.5-0.5-5.2c-0.1-0.9,0.2-1.9-0.6-2.9c-3.8,2.3-7.1,5.2-9.4,9.1c-0.6,1.1-0.5,2.4-0.5,3.7
			c-0.1,5.5,0.1,10.9-0.4,16.4c-0.3,3.7-1.4,7.1-3.3,10.2c-1.6,2.5-3.1,5.1-5.1,7.4c-1.5,1.8-2.1,1.7-3.4-0.3
			c-0.4-0.6-0.7-1.3-1.1-1.9c-0.3-0.5-0.5-1.2-1.1-1.5c-0.7,0.5-0.2,1.1,0,1.6c0.5,1.3,0.4,2.2-1.2,2.5c-0.4,0.1-0.9,0.2-1.1,0.5
			c-1.4,2.7-3.8,5-3.7,8.3c0.1,3.1,0.8,6.1,1.9,9.1c0.7,2,2.1,3.4,4.3,3.5c2.7,0.2,4.8,1.8,7,3.1c1.5,0.9,2.3,2.5,2.1,4.2
			c-0.2,1.8-1.8,2.4-3.4,2.7c-3,0.5-5.9,0.9-8.9,1.3c-1.2,0.2-2.2-0.2-3.3-0.6c-1.8-0.8-3.6-1.5-5.5-2.2c-2.3-0.8-4.5-1.5-5.8-3.8
			c-0.4-0.8-1.2-1.1-2.1-1c-0.7,0.1-1.4,0.2-2.2,0.2c-2.4-0.1-3.9-1.9-3.2-4.2c1-3.3,2.2-6.7,4.1-9.7c1.5-2.4,2.6-4.9,2.8-7.5
			c0.4-5.9,1.5-11.7,1.5-17.6c0-2.5-0.6-4.1-2.9-5.2c-1.4-0.6-2.6-1.8-4.1-2.2c-2.3-0.6-3.3,0-3.3,2.5c-0.1,3.7,0,7.4,0.6,11.1
			c0.1,0.8,0.7,2.2-0.5,2.4c-1.3,0.2-1.3-1.3-1.5-2.3c-0.3-1.4-0.6-2.8-0.6-4.3c-0.1-2.3-0.4-4.6-1.4-6.6c-2-4.3-1.6-8.6-1-13.1
			c1.8-11.7,4.4-23.4,6.2-35.1c2.2-14.2,5.6-28.2,8.7-42.2c0.2-1,0.4-2,0.6-3c0.2-1.2-0.5-2.1-1.6-2.3c-1.3-0.2-1.8,0.8-2,1.9
			c-0.2,1.1-0.3,2.3-0.4,3.4c-0.2,2-1.6,3.1-3.1,4c-1,0.6-1.6,0.2-1.7-0.9c0-1.4,0.1-2.7,0.7-3.9c1.1-2.4,1.8-5.1,3.8-7
			c0.7-0.7,0.6-4.3-0.1-5c-0.4-0.3-0.8,0-1.1,0c-2,0-2.9-1.4-2.3-3.2c0.1-0.2,0.2-0.4,0.3-0.6c2.4-4.3,1.4-8.1-1.6-11.5
			c-2.7-3.2-2.5-6.9-2.1-10.6c0.2-1.6,0.3-3-0.1-4.6c-1.2-5.2-0.5-10.5,0-15.7c0.2-1.8,1-3.2,3-3.4c0.9-0.1,1.6-0.5,1.6-1.5
			c0.1-2,0.2-3.9,0.2-5.9c0-1.4-0.7-2.1-2-2.2c-1.5-0.2-3.1-0.5-4.6-0.4c-2.3,0.1-4.2-0.7-6.1-1.9c-1.2-0.7-1.6-1.5-1.4-2.8
			c0.5-2.6,1.2-5,2.8-7.2c1.6-2.2,3.7-3.4,6.4-2.5c4,1.4,7.1,0.9,9.5-3c0.8-1.4,2.3-2.3,4-2.9c1.8-0.7,3.2-1,5.2,0.2
			c2.1,1.3,4.8,1.1,7.3,0.9c1.5-0.1,1.1-1.2,0.8-2.1c-1.1-3.1-2.3-6.2-3.5-9.3c-0.8-2.2-1.9-4.3-3.6-6c-2.1-2.1-3.1-4.9-4.3-7.5
			c-0.2-0.5-0.5-1.3,0-1.4c2.5-0.5,1.3-2,1.1-3.3c-0.1-0.5-0.1-1.1,0.5-1.3c0.6-0.3,1,0.2,1.3,0.6c0.2,0.2,0.3,0.5,0.4,0.8
			c0.4,1.3,0.8,2.5,2.6,1.7c0.2-0.1,0.5,0.6,1,0.4c0.4-0.6,0.1-1.2,0-1.8c-0.1-1.4,0.4-1.5,1.7-1.1c1.8,0.5,3.2,1.3,3.5,3.3
			c0.1,0.5,0.4,0.9,0.6,1.4c2.3-1.2,2.3-1.2,4.9,1.6c1.2-0.5,0.6-1.6,0.8-2.4c0.1-0.5,0.3-1.1,0.9-1.1c0.6,0,0.9,0.5,1,1
			c0.2,0.6,0.2,1.2,0.4,1.8c0.2,0.8,0.2,2,1.7,1.1c0.4-0.3,0.8,0.6,0.8,1.1c0.1,1.6,0.3,3.3,0.1,4.9c-0.7,4.4,0.8,8.5,1.5,12.9
			c1.1-0.6,0.7-2.1,2-2.4c0.9-0.2,0.4-1,0.3-1.6c-0.2-1.2-0.2-1.9,1.4-1.2c0.7,0.3,0.7-0.5,0.7-1c0-0.9-0.2-1.9-0.1-2.8
			c0.1-3,1.1-5.6,3.1-7.9c2.4-2.8,5.2-5.3,8.1-7.5c1.4-1,2.7-1.2,4.3-0.6c2.4,0.8,4.9,1.6,7.5,0.4c1.2-0.5,2.1,0.1,2.5,1.2
			c0.7,2,1.7,2.9,3.9,2.1c1-0.4,1.9,0.1,2.1,1.2c0.2,1.4,1,1.5,2.2,1.6c1.6,0.2,2.9,1.1,3.9,2.3c1.6,1.9,1.6,3.8-0.4,5.4
			c-2.5,1.9-3.4,4.3-3.6,7.2c-0.1,0.6,0.1,1.5-0.2,1.8c-2,2.1-1.5,4.5-1.1,6.9c0.2,1.4-0.2,2.6-2,2.9c-1.6,0.3-2.6,1.4-3,3.1
			c-0.3,1.3-0.8,2.5-1.3,3.8c-0.5,1.5-1.1,2.9-2.9,3.4c-1.5,0.4-1.4,1.6-1.3,2.8c0.1,1.2,0.9,1.8,2,2c0.5,0.1,1.1,0.2,1.5,0.1
			c3.3-0.9,6,1.1,8.9,2.1c1.3,0.4,1.7,1.4,1.6,2.7c-0.5,5.9-1,11.7-1.6,17.6c-0.1,0.7-0.2,1.5-0.6,2.1c-3.3,5.7-3.4,12-3.1,18.4
			c0.1,1.4,0.4,2.9,0.6,4.3c0.4,3,1.4,5.8,3.5,8.1c0.5,0.6,0.9,1.1,0.8,1.9c-0.2,1.8-0.3,3.5,0.7,5.1c0.2,0.3,0.1,0.8-0.1,1.2
			c-2,6-2.1,12.1-2.1,18.3c0,2.6-0.2,5.2-1.5,7.5c-1.4,2.7-1.3,4.4,0.8,6.6c3,3.2,6,6.3,9,9.4c5,5.1,10,10.1,14.9,15.3
			c2.2,2.3,4.6,4.4,7,6.5c2.1,2,4,4.3,6.4,6c1.3,1,1,3.4-0.1,4.5c-1.3,1.3-3.4,1.3-4.7-0.1c-0.5-0.5-0.8-1.2-1.2-1.8
			c-0.4-0.6-0.7-1.4-1.2-1.7c-4.4-3-7-7.7-11-11.2c-4-3.6-7.6-7.6-11.4-11.4c-3.7-3.7-7.5-7.5-11.2-11.2
			C349.5,782.8,349,782,347.5,781.9z M299.3,645.5c-0.1,0.4-0.3,0.6-0.2,0.7c1.7,5.6,3.9,11.1,5.9,16.6c0.1,0.2,0.1,0.4,0.2,0.6
			c0.4,0.7,0.9,1.3,1.7,0.9c0.8-0.3,0.4-1.1,0.2-1.6c-0.9-2.8-1.9-5.4-2.6-8.2C303.7,650.9,301.6,648.3,299.3,645.5z M314.6,664.5
			c0.3-4.7-1.4-10.9-3.4-12.6C312.1,656.4,313,660.6,314.6,664.5z M316.8,662.9c0.3,1.3,0.5,2.2,0.7,3c0.3,0.8,0.8,1.2,1.7,0.8
			c0.8-0.3,0.8-1,0.6-1.8C319.5,663.6,318.4,663.4,316.8,662.9z M308.8,654.5c0.7,2.6,1.4,5.2,2.7,7.6c-0.4-2.4-1.1-4.8-1.7-7.1
			C309.6,654.7,309.5,654.4,308.8,654.5z"/>
		<path class="st3" d="M672.3,799.3c-2.4,1-2.7,0.9-2.5-0.7c0.5-4.4,0.1-8.9,1.9-13.1c0.6-1.2,0.2-2.2-0.4-3.2
			c-1.6-2.6-2.4-5.5-3.2-8.4c-0.9-3.5,0.4-6.9,3.4-8.9c3-1.9,6.1-3.6,9.6-4.2c2.7-0.5,3.8-2.2,4.7-4.4c0.2-0.7,0.6-1.4-0.2-2
			c-0.8-0.5-1.4,0.1-1.8,0.7c-0.4,0.5-0.7,1-1.1,1.5c-0.4,0.4-0.8,0.6-1.4,0.4c-0.7-0.4-0.7-1-0.5-1.6c0.1-0.3,0.3-0.6,0.4-0.8
			c1.2-1.9,1.1-3.9,0.4-6c-0.8-2.2-1.2-4.6-2.1-6.8c-1.3-3.1-0.1-6.3,0.2-9.5c0.1-1.1,1.3-1.5,2.3-1.9c2-0.8,3.3-2,3.7-4.2
			c0.4-2,1.8-3.2,3.5-4.1c1.1-0.6,2.1-1,2.8,0.6c0.4,1,1.4,0.8,2.2,0.5c1.1-0.3,2.2-0.7,3.2-1.1c1-0.3,2-0.6,3-0.1
			c1.4,0.7,2.9,0.7,4.5,0.7c2.1-0.1,2.8,0.7,2.7,2.9c0,1.2,0.9,1.6,1.6,2.1c0.9,0.7,1.4,1.2,0.9,2.6c-0.8,2.1-0.2,4.3-0.2,6.4
			c0,1.2,1,2,1.8,2.8c2.2,2.4,2,2.3,0.8,5.4c-0.7,1.9-1.7,3.7-1.6,5.9c0.2,2.7-0.9,4-3.6,4.5c-2.2,0.4-3.1,1.6-3.6,3.7
			c-0.6,3.2,0.8,4.8,4.3,5.3c1.4,0.2,2.9,0,4.3,0.1c1.1,0.1,2.1,0.5,2.3,1.7c0.2,1.6,0.1,3.3,1.1,4.8c0.1,0.2-0.1,0.6-0.3,0.8
			c-0.3,0.4-0.7,0.3-1.1,0.1c-0.6-0.4-1.1-0.9-1.7-1.3c-0.9-0.6-1.8-1.1-2.9-0.9c-0.6,0.1-1,0.8-0.5,1.1c2.6,1.2,3.6,4.5,6.8,4.9
			c1,0.1,1,1.1,0.9,1.7c-0.4,1.9,0.4,3.4,1.1,5c1.6,3.5,2.2,7.3,2.9,11.1c0.5,2.3,0.7,4.7,2.4,6.6c0.8,0.9,0.4,1.8-0.5,2.3
			c-0.8,0.5-1.6,0.3-2.1-0.6c-0.1-0.2-0.1-0.4-0.2-0.6c-0.2-0.5-0.5-1-1.2-0.8c-0.5,0.2-0.8,0.7-0.8,1.2c-0.1,0.8-0.1,1.7-0.2,2.5
			c-0.4,3.2,0.1,6.4-1,9.5c-0.2,0.5-0.2,1.1,0,1.5c1.3,2.5,0.4,4.7-0.5,7.1c-1,2.4-1.3,5-1,7.6c0.6,4.6,0.8,9.3,2.4,13.7
			c0.2,0.6,0.5,1.2,0.5,1.8c0.3,5,2.6,9.1,5.3,13c2.5,3.6,1.9,6.1-1.5,8.7c-2.2,1.7-4.5,3.4-6.6,5.1c-2,1.7-4.1,3.2-6.4,4.4
			c-0.8,0.4-1.6,1-2.3,1.5c-1.3,1-2.3,2.2-1.8,3.9c0.5,1.7,1.7,2.5,3.4,2.7c1.2,0.2,2.4,0.4,3.7,0.7c0.7,0.2,1.5,0.3,1.7,1.2
			c0.2,0.9-0.3,1.6-1,2.1c-1.2,0.9-2.5,1.5-4,1.3c-1.8-0.2-3.5,0.1-5.1,1.1c-1.2,0.7-2.5,0.8-3.9,0.8c-2.7,0-5.4,0-8.1,0
			c-3.6,0-7.2-0.1-10.8,0.6c-2.5,0.5-5.1,0.6-7.7,0.5c-2,0-3.9,0.1-5.8,0.6c-3.8,0.9-7.6,0.8-11.4,0.6c-3.7-0.3-5.3-2.4-4.6-6.3
			c-5.8-0.7-11.4-3.5-17.5-1.1c-1.4,0.5-3,0.6-4.6,0.8c-2.1,0.2-4.1,0-5.6-1.9c-0.5-0.6-1.1-0.9-1.9-0.6c-2.5,0.9-5.2,1.2-8.4,1.4
			c2,2,3.6,3.4,6,3.4c1.3,0,2.7,0,4,0.3c1.2,0.2,2.1,0.9,2.2,2.3c0,1.4-1,2-2.2,2.2c-2.8,0.5-5.6,0.4-8.3,0c-1.7-0.3-3.5-0.6-5.2-1
			c-2.2-0.5-4.4-1.2-6.7-0.7c-0.4,0.1-0.8-0.1-1.2-0.2c-2.4-0.5-2.9-1.4-2.3-3.7c1-3.6,0.2-4.4-3.5-3.4c-2.4,0.6-4.7,0.2-7-0.3
			c-1.4-0.3-2.6-1.2-3.4-2.5c-1.2-2.1-2.5-4.1-4.3-5.7c-1-0.9-1-1.9-0.5-3.1c1.3-2.7,2.2-5.6,3.8-8.1c3.6-5.6,5.2-11.9,6.5-18.3
			c1.4-6.6,1.1-13.2,1.2-19.8c0.1-3.7,0-7.4,1.3-11c0.9-2.5,1.3-5.2,0.9-7.9c-0.2-1.7-0.2-3.5,0-5.3c0.2-3-0.2-5.7-2-8.2
			c-1.6-2.2-1.3-4.5,0.3-6.6c0.8-1,1.1-2.1,1.1-3.4c0.1-4.3,1.5-8.3,3.4-12.1c0.9-1.8,1.1-3.2-0.2-4.8c-0.5-0.6-0.8-1.5-1.1-2.2
			c-2.2-4.9-0.4-8.8,4.9-10.2c1.9-0.5,3.8-1,5.7-1.5c2-0.6,2.3-1,2-3.1c-0.2-2-0.3-3.9,0.1-5.9c0-0.2,0.2-0.4,0.1-0.6
			c-1.1-3.4,0.9-6.3,1.4-9.5c0.1-0.8,0.5-1.3,1.1-1.8c1.5-1.3,2.5-2.7,1.8-4.9c-0.3-1,0.4-1.6,1.2-1.8c0.8-0.2,1.6-0.2,2.4-0.4
			c2-0.4,3.9-0.9,5.4-2.6c2.8-3.1,6.2-3.3,9.9-1.6c2.4,1.1,4.9,1.9,7.6,2c0.9,0,1.6,0.6,1.2,1.3c-1.4,2.3,0.4,3.9,1,5.7
			c0.3,0.8,0.8,1.4,1.2,2.2c0.4,0.8,0.4,1.8-0.6,2.1c-1.5,0.4-1.5,1.4-1.6,2.6c-0.2,2.3-0.6,4.5,0,6.7c0.3,1.2,0,2.5-0.5,3.6
			c-0.8,1.8-1.7,3.5-2.6,5.3c-0.6,1.2-1.8,1.6-3.3,2.3c5.1,3.5,7.1,8.5,8.6,13.9c0.3,1,0.5,2,0.2,3.1c-0.7,2.7-0.5,5.3-0.1,8
			c0.3,1.9,0.3,3.7-0.4,5.5c-0.4,1.2-0.5,2.4-0.5,3.7c0,3-0.1,6,0,9c0.2,3.5-1,6.5-2.6,9.4c-0.5,0.9-1.7,1.6-1.3,2.7
			c0.6,1.7,0.5,3.7,1.8,5.2c2.8,2.9,3.5,6.7,3.9,10.5c0.1,0.5,0,1,0,1.6c0.1,5.9-1,4.9,4.9,8c4.1,2.2,7.9,4.5,10.1,8.8
			c1,1.9,1.6,3.8,1.6,5.9c0,0.7-0.1,1.5-0.8,1.9c-0.8,0.5-1.4-0.2-1.9-0.6c-1.8-1.5-3.7-2.6-6.2-2.5c-1.7,0.1-3.1,0.6-3.7,2.3
			c-0.5,1.4,0,2.8,1.6,4c1.6,1.3,3.5,2.2,5.6,2.6c0.6,0.1,1.3,0.3,1.4,1c0.1,0.7-0.4,1.2-0.9,1.5c-1,0.6-2,1-3,1.6
			c-4.3,2.3-8.5,4.8-10.4,9.7c-0.8,2-0.8,2.3,0.8,3.7c2.2,1.9,4.5,3.7,6.6,5.7c1.5,1.4,3.5,1.7,5.2,2.7c0.7,0.4,1.4-0.1,2-0.5
			c4.5-3.5,8.5-7.6,12.4-11.7c1.4-1.4,1.9-3.4,2.5-5.3c2.6-9.1,4.6-18.4,6.1-27.8c0.2-1,0.1-2.1,0.1-3.1c0.1-1.4,0.1-2.7-1.9-2.9
			c-1-0.1-1.2-1-1.5-1.8c-1-2.7-2.5-5.4-2.7-8.2c-0.2-2.6-1.1-5-1.3-7.6c-0.1-2.1-0.1-4.1-0.7-6.1c-0.6-1.9-0.2-3.7,0.4-5.5
			C671.2,802.9,671.7,801.3,672.3,799.3z M714.3,779.4c-0.2,0.1-0.4,0.2-0.6,0.4c0.6,1.5,1.2,3,1.9,4.5c0.6,1.4,0.5,3.1,2,4.1
			C717,785.2,716.5,782,714.3,779.4z"/>
		<path class="st3" d="M569.9,759.9c0.9,2,0.1,3.3-1.5,4.5c-1.2,0.9-2.1,2.3-3.4,3.2c-1.6,1.2-1.4,2.9-1,4.5c0.6,2.5,1,5.1,1.4,7.6
			c0.4,2.9,0.3,5.8,0.1,8.7c-0.2,2.3-0.6,2.6-2.8,3c-1.3,0.2-2.7,0.5-4,0.6c-1.6,0.1-2.4,1-2.6,2.5c-0.3,2.4-0.7,4.7-0.9,7.1
			c-0.3,3.9-1.8,7.2-4.9,9.7c-1.2,1-1.4,1.8-1,3.4c0.6,2.1,0.4,4.5,1.1,6.7c0.1,0.3,0.1,0.7-0.1,0.9c-1.6,1.9-1.4,4.2-1.9,6.4
			c-0.5,2.1-2,3.6-3.5,5c-1.2,1.2-1.6,2.5-2,4c-1.6,6.8-0.8,13.8-2.1,20.6c-0.9,4.7-0.4,9.5-1.5,14.1c-0.4,1.6,0.4,3.1,1.6,4.2
			c2,2,3.9,4.3,6.5,5.7c0.1,0,0.2,0.1,0.3,0.2c3,3.5,7.3,4,11.4,4.9c2,0.4,3.8,1.1,4.7,3.1c1,2.1,0.4,4.5-2.6,4.5
			c-5.4-0.1-10.7,0.7-16.1,0.6c-3.4-0.1-6.8-0.2-10.2-0.9c-1.3-0.3-2.6-0.3-3.9,0.4c-1.8,1-3.9,0.5-5.8,0.4
			c-1.5-0.1-3.1-0.3-4.6-0.6c-2.5-0.5-3.5-1.8-3.4-4.4c0-1.4,0.5-2.6,0.9-3.9c2.9-7.8,3.8-15.8,3.3-24.1c-0.1-1.9-0.4-3.7-0.7-5.5
			c-0.3-1.3-0.8-2.6-1.8-3.5c-2-1.8-2.9-4-2-6.7c0.2-0.5,0.2-1-0.2-1.5c-0.9-0.4-1.3,0.3-1.9,0.8c-5.3,4.3-10.8,8.3-16.8,11.6
			c-2.2,1.2-4.1,2.8-6.1,4.3c-0.9,0.6-1.3,1.5-1.4,2.6c0,1,0.1,2.1-0.1,3.1c-0.5,3.6,0.5,6.5,3.3,9.1c2.2,2,3.8,4.9,5.5,7.4
			c1,1.5,0.8,3.2,0.2,4.8c-0.8,1.9-2.3,2.6-4.3,2.1c-1.2-0.3-2.3-0.9-3.4-1.4c-2.2-1.1-4.3-2.5-6.5-3.6c-4.7-2.3-8-6.1-10.6-10.5
			c-1.4-2.4-2.8-4.5-5.5-6c-2.9-1.6-4.5-5-6.2-8c-0.3-0.6-0.2-1.2,0.1-1.8c0.2-0.4,0.4-0.8,0.7-1c4.3-4.1,8.3-8.7,14.6-9.9
			c1.1-0.2,1.9-0.7,2.8-1.3c3.1-2.5,5.9-5.1,8.6-8c1.9-2,3.3-4.2,3.3-7.1c0-2.1,1.1-3.7,3.1-4.6c0.8-0.4,1.6-0.9,2.4-1.4
			c7.5-4.4,7.5-4.4,12.5-11.2c0.6-0.8,0.4-1.3-0.2-1.8c-3.3-3.2-6.6-6.6-11.1-8.2c-0.3-0.1-0.6-0.2-0.8-0.4
			c-2.7-2.6-6.3-3.4-9.6-4.8c-1.6-0.7-2.9-0.6-4.4-0.1c-6.7,2.3-13.5,4.1-20.4,5.5c-0.9,0.2-1.8,0.3-2.8,0.3c-1.1,0-1.5-0.8-1-1.7
			c1.2-2,2.5-3.9,4.7-5.2c7.9-4.4,15.8-9.1,23.7-13.5c2-1.1,3-2.6,3.5-4.7c2.7-10,2.9-20.2,2.3-30.5c-0.2-3.2,0.1-6.4,2.4-9
			c1.1-1.3,1.8-2.7,1.6-4.5c-0.3-3.3,1.1-6,2.9-8.6c1.5-2.2,3.1-4.4,4.7-6.6c0.8-1.1,1.6-2.1,1.2-3.7c-0.2-0.8,0.3-1.8,0.5-2.7
			c0.2-0.8,0.4-1.7-0.4-2.3c-1.5-1.2-1.3-2.7-0.8-4.3c3.2-11.2,7.2-22,13.7-31.8c0.6-1,1.1-1.9,1.3-3.1c0.9-5.4,5.5-8.8,11-7.9
			c1.8,0.3,3-0.1,3.8-1.7c0.9-1.7,2.6-2.9,3.6-4.7c0.6-1.2,1.1-2.4,0.8-3.8c-1.4-5.4,0.7-10.2,3.1-14.8c0.6-1.2,1.6-2.1,1.8-3.5
			c0.2-1.4,1.7-1.4,2.5-2.2c1.1-1.2,1.8-0.1,2.7,0.2c1.1,0.4,2.2,0.8,3.3,0.8c2.9,0,5.5,0.7,8.1,1.9c3.3,1.6,6.8,2.3,10.5,2.1
			c0.8-0.1,1.7,0,2.5,0.2c2,0.5,2.5,1.8,1.2,3.3c-0.8,0.8-0.7,1.3-0.1,2c0.9,1,2.2,2.1,1.5,3.5c-0.8,1.5-2.4,0.2-3.7,0.3
			c-0.3,0-0.6,0.1-1.2,0.2c1,2.6,1.2,5.3,3,7.5c1.7,2,1.5,2.5-0.5,4.3c-0.7,0.7-0.9,1.2-0.7,2.2c0.4,1.4,0,2.9-0.3,4.2
			c-0.3,1-0.5,2-0.2,3c0.5,1.8-0.1,3.3-1.8,4.2c-1.4,0.7-1.3,1.5-0.6,2.7c1.1,1.6,2,3.4,3.1,5c0.9,1.3,1.1,2.4-0.3,3.5
			c-1.4,1-1.5,2.3-1.3,3.9c0.7,5.1,0.3,10.3,1.1,15.5c0.5,3.2-0.3,6.4-1.5,9.4c-1,2.6-2,5.2-2.4,8c-0.5,2.8-1.6,3.5-4.3,2.9
			c-1.5-0.4-2.3,0-2.9,1.4c-0.7,1.6-1.6,3.1-2.3,4.7c-0.9,2-0.2,4.5,1.7,5.4c2.8,1.3,4.8,3.6,7.1,5.5c2.2,1.8,2.1,1.8,4.3-0.2
			c1.7-1.5,3.1-3.4,5.3-4.3c2.5-1,3-0.7,3.5,1.9c0.4,2.1,0,3.9-1.6,5.3c-1.5,1.4-2.9,2.9-4.5,4.3c-1,0.9-1.5,1.8-1.1,3.2
			c1.1,4.1,1.3,8.4,2,12.5c0.2,1.1,0.2,2.3,0.1,3.4c-0.1,1.1-0.8,1.9-1.9,2.1c-1.3,0.2-2.3-0.3-2.7-1.5c-0.4-1.1-0.7-2.4-0.9-3.6
			C572.1,763.6,571.3,761.7,569.9,759.9z"/>
		<path class="st3" d="M833.4,895.6c-4,0-8.1,0-12.1,0c-1.3,0-2.7,0-4-0.2c-2.6-0.4-2.6-0.7-3.1-3.3c-0.6-3,0.5-6.1-0.6-9.2
			c-0.3-0.9,0.1-2.2,0.4-3.3c2.3-8.5,3-17.3,4.8-25.9c0.2-1,0.4-2,0.6-3c0.4-2.8,1.8-5,4.1-6.6c0.5-0.3,1-0.7,1.4-1.2
			c1.4-1.3,1.6-2.4,0.4-3.7c-4.5-5.1-7.6-11.1-11.3-16.7c-0.3-0.5-0.7-1.1-1-1.6c-1.2-1.5-1.5-1.5-2.8,0c-5.6,6.4-10.9,13-16.7,19.1
			c-4.7,4.9-7.8,10.5-10,16.9c-2.8,8-6,15.9-9.8,23.4c-2.1,4.1-0.7,7.1,1.7,10.2c1,1.3,2.4,1.1,3.7,1.2c3,0.4,3.9,1.3,4.2,4
			c0.1,1.4-0.4,2.2-1.7,2.4c-1,0.2-2,0.4-3.1,0.4c-4.2,0.1-8.5,0.1-12.7,0.1c-2.1,0-4.1-0.4-6-1.4c-2.5-1.3-5-2.5-7.5-3.7
			c-1.7-0.8-2.3-2.1-2.1-4c1.2-11.9,3.5-23.5,6.8-34.9c1.3-4.4,3.7-8.3,5.5-12.5c0.7-1.7,2.4-2.5,3.9-3.5c0.9-0.6,1.9-1.1,2.5-2.2
			c3.6-6.5,7.7-12.7,11-19.4c4.8-9.4,6.3-19.1,4.9-29.4c-0.2-1.3-0.4-2.4-1.3-3.4c-1.1-1.3-1.3-2.8-1-4.4c1.3-6.2,0.9-12.3,0-18.5
			c-0.7-4.9-0.7-9.9-0.7-14.8c0-3.4,1-6.4,3.8-8.4c1.9-1.4,3.1-3.3,3.7-5.6c0.8-3.2,2.6-5.6,5.4-7.2c1.3-0.8,2.3-1.8,2.9-3.1
			c1-2.1,3.1-3,4.7-4.5c4.2-3.8,4.6-3-0.1-6.6c-8.8-6.8-15-15.3-17.1-26.5c-0.3-1.7-0.6-3.5-0.7-5.2c-0.1-1.3,0.6-1.7,1.8-1.1
			c1.2,0.6,2.3,1.4,3.4,2.1c5.9,3.4,12,4.1,18.5,2.3c2.7-0.7,2.8-1,1.4-3.3c-0.2-0.4-0.5-0.7-0.7-1c-1.2-2-1.1-2.4,0.3-3.3
			c1.8-1.2,2.9-1.2,3.8,0.7c2.1,4.3,5.3,4.7,9.5,3.7c4.5-1.1,9-2.2,13.5-3.5c1.4-0.4,2.4-1.1,2.8-2.6c0.2-0.6,0.5-1.1,0.7-1.7
			c1.8-3.9,3-4.5,7.3-3.8c6.3,1,12.2,3.2,17.4,6.9c3.1,2.2,5.7,5.1,8.3,7.9c1,1.1,1.3,2.4,1.1,3.8c-0.3,2.2-0.6,4.5-1.3,6.6
			c-0.7,1.9-0.6,3.6,0.4,5.3c0.3,0.5,0.6,1.1,0.8,1.7c0.8,1.9,0.6,2.8-1.2,3.4c-1.9,0.7-2.4,2-2.6,3.8c-0.4,3.9-0.1,7.7,0.6,11.6
			c1.2,6.8,4.5,12.8,5.8,19.6c0.6,3.2,1.1,6.5,1.8,9.7c0.5,2.6-1,5-3.8,6.1c-2.2,0.8-3.5,2.3-4.8,4.1c-2.5,3.4-5.3,6.6-9.7,7.7
			c-2.1,0.5-4.1,0.7-6-0.4c-1.3-0.7-2.2-0.7-2.6,0.8c-2.2,7.3-5.7,14.2-7.4,21.7c-0.1,0.6-0.2,1.2-0.2,1.8
			c-0.1,6.2-0.1,12.4-0.1,18.6c0,3.1,0.7,6.2,1.5,9.1c1.2,4.3,2.5,8.5,3.9,12.7c0.9,2.7,1,5.4,0.5,8.2c-2.3,12.7-5.3,25.3-8.1,37.9
			c-1.1,5.1-1.2,5.1,2.8,8.4c1.7,1.4,3.3,2.8,5.8,3.3c2.1,0.4,3.2,2.8,4.3,4.6c0.5,0.9-0.3,1.6-1.1,1.8c-1.7,0.5-3.4,1-5.2,1
			C842.9,895.7,838.2,895.7,833.4,895.6C833.4,895.6,833.4,895.6,833.4,895.6z M837.1,678.1c-0.2-0.2-0.4-0.3-0.6-0.5
			c-2.1,1.6-4.3,3.2-6.3,4.9c-2.1,1.8-4.3,3.5-6.2,5.6c-1.1,1.2-1.4,2.4-0.4,3.8c1.9,2.7,3.6,5.5,5.5,8.2c1.2,1.8,3.6,2.2,5.5,1.2
			c1.6-0.8,2-2,1.2-4.5c-1.1-3.7-1.2-7.3-0.2-11C836.4,683.4,836.7,680.7,837.1,678.1z M810.9,709c4.7-2.7,7.8-6.5,12.5-8.4
			c-1.3-1.9-2.4-3.7-3.6-5.4c-0.6-0.9-1.4-1.2-2.3-0.4C813.2,698.3,811.5,703,810.9,709z"/>
		<path class="st3" d="M884,643.6c-1.2-0.7-2.5-1-3.8-1.4c-0.7-0.2-1.4-0.6-1.3-1.5c0.1-1.1,1-1.3,1.8-1.3c2.1,0,4.1,0.6,6,1.4
			c4,1.8,7.6,4.1,11.1,6.8c5.8,4.5,11.4,9.3,16.5,14.5c0.6,0.6,1.2,1.1,1.8,1.7c0.9-0.6,0.2-1.2,0.1-1.7c-3-8.1-6-16.3-9.1-24.4
			c-0.7-1.9-1.8-3.7-3.3-5.2c-2.5-2.5-3.8-5.9-5.2-9.1c-0.8-1.9,0.8-1.3,1.9-1.2c-0.3-1.5-0.5-2.8-0.7-4.1c-0.1-0.4,0.1-0.8,0.5-1
			c0.6-0.3,1.1,0,1.3,0.4c0.6,1.2,1.1,2.4,1.7,3.7c0.8,0.5,0.9-1.2,1.7-0.7c0.6,0.4,0.7,1.3,1.6,1.4c0.5-1-0.1-2-0.2-3
			c-0.1-0.8,0.3-1.7,1.1-1.3c1.8,0.8,4.4,0.8,4.5,3.8c0,0.6,0.4,1.1,0.6,1.7c2.6-1.9,2.8-1.8,4.4,0.9c0.3,0.4,0.6,0.8,0.9,1.2
			c0.1,0.1,0.4,0.1,0.7,0.2c0.6-0.9,0.4-1.9,0.4-2.9c0-0.7-0.1-1.6,0.9-1.6c0.9,0,1.1,0.8,1.3,1.5c0.3,1.1,0.5,2.2,0.7,3.2
			c1,0.7,1-1,1.8-0.5c0.6,0.4,0.6,1.1,0.6,1.7c0,2.1,0.1,4.1,0,6.2c-0.3,4.9,0.9,9.7,2,14.4c0.5,2.2,1.1,2.4,3,1.4
			c2.7-1.4,4.4-3.3,5.1-6.5c0.9-4.5,1.3-9,2.2-13.5c0.2-1,0.2-2.1,0.5-3c1.5-4-0.2-7-2.7-9.9c-0.8-0.9-2.2-1.7-1.4-3.1
			c0.9-1.6,2.3-0.8,3.6-0.5c2.2,0.6,2.2,0.6,2.8-1.8c1.3-5.7,4.7-9.5,10.4-11.2c1.4-0.4,2.7-1,4.1-1.3c6.1-1.3,11.5,1,16.6,3.6
			c4.9,2.5,7.8,11,3.5,15.5c-1.2,1.2-1.2,2.8-1.2,4.4c0.1,4.7-1.6,8.9-3.9,12.9c-0.9,1.6-2,2.9-4,3.1c-1.5,0.1-2.2,1.1-2.5,2.3
			c-0.7,2.3-1.5,4.6,0.6,6.6c0.3,0.3,0.4,0.9,0.5,1.4c1.7,9.2,4.7,18,7.1,27c1.9,7.3,3,14.8,4.4,22.2c0.5,2.4-0.3,4.7-0.6,7.1
			c-1,7.9-2.3,15.7-2.9,23.7c-0.2,2.9,0.4,5.5,1.2,8.2c2.2,8.3,4.7,16.5,7.9,24.4c1.5,3.7,0.3,6.1-3.4,7.7c-1.3,0.6-2.7,1-3.9,1.9
			c-1.3,0.9-1.9,2.1-2.5,3.7c-3,8-3.5,16.5-6,24.6c-0.8,2.6-0.6,5.3-0.9,8c-0.7,5.5-1.3,11.1-2.2,16.6c-0.5,3.3-1.9,6.3-3.3,9.3
			c-1.2,2.7-2.6,5.2-0.8,8.2c0.4,0.7,0,1.6-0.2,2.4c-0.9,4.7-1.3,9.4-3.3,13.8c-0.5,1.1-0.4,2.2,0.1,3.3c1.8,4.7,2,9.5,0.9,14.3
			c-0.2,1.1,0,2,0.7,2.9c1.6,1.9,3.3,3.9,5.5,4.9c2.8,1.2,5.1,3,7.5,4.9c2,1.6,4.1,3.1,6.2,4.7c1.9,1.6,1.8,3.5-0.4,4.6
			c-2.6,1.3-5.2,2.1-8.3,1.3c-8.1-1.9-16.3-2.7-24.5-3.9c-7.3-1-8.4-1.8-7.3-9c0.8-5.2,0.5-10.2,0.1-15.3c-0.4-4.6,0.7-9.3,1.2-13.9
			c0.5-4.8,1.1-9.6,1.6-14.5c0.2-1.8,0.4-3.5,2.1-4.6c0.7-0.5,1-1.3,1.2-2.1c1.1-3.7,1.4-7.5,2.1-11.1c-0.7-0.2-1,0.1-1.2,0.4
			c-8.4,8.4-15.7,17.6-20.3,28.7c-1.4,3.3-3.5,6.3-5.4,9.4c-0.8,1.3-1,2.6-0.7,4.1c1,5.8,1.1,11.7,1.7,17.6c0.2,1.9-0.2,3.9-0.5,5.8
			c-0.5,2.9-3,4.3-5.8,3.3c-4.1-1.5-7.3-4.2-9.9-7.7c-3.8-5-4.5-11-5.4-16.9c-0.5-3.7-0.6-7.4-1.7-11c-0.7-2.2-0.6-4.5,1.4-6
			c4.9-3.6,7.4-9.1,11.2-13.6c4-4.7,6.9-10,9.4-15.6c1-2.3,2.3-4.4,3.7-6.4c1-1.5,2.1-2.9,4.1-3.5c1.6-0.4,2.6-2,3.5-3.4
			c1.6-2.7,3.7-5,6.2-6.9c2.2-1.7,3.3-3.8,3.1-6.7c-0.1-2.9-0.1-5.8-1.3-8.3c-0.8-0.2-1.2,0.2-1.6,0.5c-0.6,0.5-1,1.6-2,1.3
			c-1.3-0.4,0-1.7-0.6-2.5c-0.7-0.4-1.1,0.2-1.6,0.4c-1,0.5-1.6,0.2-1.7-0.9c-0.1-0.5-0.3-1.3-0.8-1.2c-2.6,0.9-2.9-2-4.6-2.6
			c-1-0.4-1.2-1.4-0.6-2.4c0.9-1.6,2.6-3,1.6-5.3c-0.2-0.3,0.5-1.1,0.8-1.6c2.3-3.8,3.2-7.7,1.2-12.1c-1.7-3.8-2-8-1.5-12.2
			c0.1-0.8,0.4-1.8-0.3-2.4c-2.1-1.8-1.7-4.3-1.9-6.6c-0.2-2.5-0.1-5,0-7.4c0-1.4-0.3-2.6-1.2-3.7c-1.9-2.2-3.4-4.7-5.6-6.6
			c-2-1.8-2.8-4-2.6-6.7c0.3-4.3,0.5-8.7,0.8-13c0.2-2.2-0.3-4.3-1.4-6.2c-3.4-6.2-6.6-12.4-9.9-18.6c-0.8-1.5-1.4-3-1.1-4.7
			c0.3-1.7-0.3-3-1.2-4.3c-4.5-6.8-9-13.6-13.5-20.5C884.8,646.2,883.5,645.2,884,643.6c5.1,7.4,10.2,14.7,15.2,22.2
			c1.3,2,2.5,3.1,5.2,2.2c3-1,4.4,0,6,2.8c0.5,0.9,0.8,1.9,1.8,2.4c1.6-1.8,1.9-2.2,1-3.7c-1.3-2.3-2.4-4.8-4.3-6.8
			c-3.2-3.5-6.5-7-10.1-10C894.5,648.9,889.9,645.2,884,643.6z M907.3,630.5c0.3,3.6,9.8,29.5,11.7,32.2c1.2-1.5,0.4-3,0-4.4
			c-2.1-6.6-4.3-13.1-6.3-19.7C911.7,635.3,909.4,633.3,907.3,630.5z M921.2,637.7c0.2,4.7,1.5,9.2,3.2,13.6
			C924.4,646.5,923.6,641.9,921.2,637.7z M916.6,680.4c0.2-1.6,0.4-2.7,0.5-3.9c0-0.3,0.1-0.6,0.2-0.9c0.2-1-0.2-1.8-0.9-2.5
			c-0.3-0.3-0.7-0.4-1.1-0.2c-1,0.6-1.8,2.8-1.2,3.8C914.6,678,915,679.3,916.6,680.4z M921.9,653.6c0.2-0.1,0.4-0.1,0.6-0.2
			c-1.7-4.8-2-10-5.1-14.3C918.9,643.9,920.4,648.8,921.9,653.6z"/>
		<path class="st3" d="M1004.5,881.3c-1,0.9-2,1.7-3,2.6c-1.3,1.2-2.8,1.7-4.6,1.4c-0.9-0.2-1.9-0.1-2.8-0.2c-2-0.3-3.8-1.1-4.8-3
			c-2.8-5.1-7.4-8.6-11.2-12.7c-0.3-0.3-0.7-0.5-1-0.8c-0.6-0.6-1.4-1.2-1-2.1c0.4-0.9,1.3-0.4,1.9-0.4c2.3,0,4.5,0,6.8,0
			c2.2,0,3.6-1,4.7-2.9c3.1-4.8,4-10.4,5.2-15.8c1.5-6.6,1.4-13.4,1.2-20.1c-0.2-5.3,1.1-10.2,2.5-15.2c1-3.6,1.6-7.3,2.4-10.9
			c0.3-1.3,0-2.2-1.2-2.8c-2-1.1-2.5-2.8-2.5-5c0.2-7.5,0.5-14.9,4.3-21.6c0.6-1.1,0.6-2.1-0.1-3.2c-0.7-1.1-1.3-2.4-1.8-3.6
			c-1.7-4.2,0.1-7.9,4.3-9.4c1.6-0.5,3.1-1.1,4.8-1.3c3.1-0.4,5.4-2.6,8.3-3.4c1-0.3,1.2-1.2,0.1-1.8c-1.8-1-1.8-2.9-2.3-4.5
			c-0.1-0.4-0.1-1,0.1-1.2c1.9-1.4,1.1-3.2,0.8-4.9c-0.6-3.2,0.4-6.1,2.6-8.2c3-2.8,6-5.7,9.2-8.3c2.5-2,5-2,7.7-0.3
			c2.6,1.7,5.3,3.2,7.9,4.9c1.6,1.1,1.9,1.9,1.3,3.9c-0.3,1-0.1,1.8,0,2.7c0.3,2.2,0.7,4.5-0.4,6.7c-0.4,0.9-0.3,1.6,0.1,2.4
			c0.5,0.8,0.7,1.8,0.6,2.7c-0.8,4.1-2.2,7.9-6,10.5c0.1,0.7,1,1,1.5,1.5c4.1,3.6,5.6,8.6,6.8,13.7c0.1,0.6,0.1,1.3-0.1,1.8
			c-0.6,2.7-0.5,5.3-0.1,8c0.1,1.1,0.4,2.4,0.1,3.4c-1.4,4.4-1,8.8-0.9,13.2c0.1,4.3-0.8,8.2-3.3,11.7c-0.6,0.8-0.6,1.5-0.1,2.5
			c0.9,2,2.2,3.6,4,5c5.5,4.4,9.2,10.3,12.3,16.5c1,2,2,4,3.5,5.8c1.9,2.2,3.4,4.7,4.6,7.4c0.5,1.3,1.3,2.3,2.1,3.4
			c1.5,2.1,2.8,4.3,3.6,6.8c1.4,4.4,0.1,7.2-4.3,8.7c-5.1,1.7-10,3.9-14.8,6.3c-1.8,0.9-3.4,2-4.9,3.2c-1.3,1.1-1.4,1.5,0,2.7
			c2.8,2.3,4.9,5.3,8.6,6.4c0.8,0.2,1.4,0.9,1.3,1.9c-0.1,1-0.9,1.4-1.7,1.5c-0.6,0.1-1.2,0.2-1.8,0.1c-3.7-0.5-7.4-1-10.8-2.5
			c-2.7-1.2-5.4-2.1-8.4-2.1c-1.1,0-2-0.5-2.9-0.9c-2.6-1.4-3.2-3-1.9-5.6c0.9-1.9,1.9-3.6,2.9-5.5c0.4-0.7,0.8-1.5,1-2.3
			c0.4-1.3-0.1-2-1.3-1.7c-4.8,1.2-9.8,1.9-14.1,4.6c-0.8,0.5-1.2,1.1-1.4,2c-0.9,3.5-1.5,7.1-1.4,10.7c0.1,1.6,0.5,2.8,1.9,3.6
			c0.9,0.5,1.7,1.2,2.4,1.9c1.7,1.7,1.1,3.5-1.3,4.1c-0.8,0.2-1.7,0.2-2.5,0.1c-1.8-0.2-3.7-0.5-5.5-0.9c-1.2-0.3-2.4-0.6-3.7-0.4
			c-0.7,0.1-1.5,0.1-2.2,0c-2.8-0.4-3.5-1.6-2.6-4.3c0.5-1.4,1.3-2.6,1.4-4.1C1005,883,1005.4,882.2,1004.5,881.3z"/>
		<path class="st3" d="M391.7,884.2c-0.2-1.7,0.4-3.4,1.7-4.6c3.8-3.6,4.6-8.2,5.1-13c0.8-6.9,1.5-13.8,2.3-20.6
			c0.4-3.2,0.2-6.4,0.2-9.6c0-1.1-0.3-2.1-1.6-2.3c-1.2-0.2-1.7-1.1-2-2.1c-0.9-2.6-1.8-5.3-2.7-7.9c-0.3-0.8-0.8-1.7-0.3-2.4
			c1.1-1.6,0.1-2.9-0.8-3.9c-3.3-3.6-3.9-8.1-4.9-12.5c-0.9-4.2-1.3-8.6-2-12.9c-0.4-2.6,0.1-4.9,1.5-7.1c1.7-2.5,3.3-5,5.6-7
			c1.8-1.5,2.3-3.2,2-5.5c-0.7-5.6,0.9-8.4,6.2-10.6c1.3-0.5,2.2-1.3,2.7-2.7c1-2.7,3-4.7,4.8-6.8c1.2-1.5,1.9-3.1,2-5.1
			c0.1-3,0.7-5.9,1.7-8.8c0.6-1.8,1.6-3.1,3.2-4c4.7-2.6,9.5-5.1,14.4-7.1c2.9-1.2,5.4-1,7.9,0.7c3.9,2.5,7.7,5.3,10.8,8.7
			c0.9,0.9,2,1.4,3.1,2.1c2,1.2,2,2.8,0.2,4.1c-0.4,0.3-0.9,0.6-1.4,0.6c-2.3,0.4-3.4,1.9-4.2,4c-0.7,1.7-0.7,3.2,0.1,4.7
			c0.3,0.7,0.6,1.3,0.8,2c0.3,1,0.1,1.9-0.9,2.4c-2.3,1.3-4,3.1-4.8,5.7c-0.6,1.8-2.4,2.6-4.3,2.2c-0.5-0.1-1-0.3-1.5-0.5
			c-2.2-0.6-3.3,0.4-2.8,2.5c0.7,3,1.4,6.1,2.6,8.9c2,4.9,3.5,9.9,4.5,15.1c0.4,2,1.5,3.8,1.6,6c0.2,2.6,0.4,5.1-0.7,7.6
			c-1,2.1-0.9,4.4-1.2,6.7c-0.2,1.4-0.2,2.9-0.7,4.2c-0.2,0.5-0.2,1.3,0,1.8c1,2.1,0.3,3.9-0.6,5.9c-1.1,2.4-1.5,4.9-1,7.5
			c0.8,4.2,1.4,8.4,3.2,12.2c0.2,0.4,0.4,0.8,0.4,1.2c0.7,5.1,3.5,9,6.6,12.8c0.6,0.7,1.3,1.4,1.4,2.3c0.4,2.2,0.4,4.3-1.8,5.8
			c-1.4,0.9-2.5,2.1-3.8,3.2c-0.9,0.8-1.3,1.6-0.2,2.6c2.4,2.2,4.6,4.7,8.3,5c2.2,0.1,4.2,1.9,4.2,3.1c0,1.3-2,2.4-4.5,2.5
			c-1.7,0.1-3.3-0.3-4.8-1c-3.2-1.4-6.2-1.2-9.1,1c-0.7,0.6-1.6,1-2.4,1.4c-2.3,1.1-3.7,0.9-5.1-1c-0.9-1.2-1.5-1.2-2.5-0.5
			c-3.1,2.5-6.7,4-9.9,6.2c-0.5,0.3-1.1,0.7-1.5,1c-0.7,0.6-1.7,1.2-1.5,2.2c0.2,1.2,1.4,1.3,2.4,1.6c1.4,0.3,2.8,0.5,4.3,0.8
			c0.8,0.2,1.7,0.4,1.8,1.4c0.1,0.9-0.6,1.5-1.3,2c-0.9,0.6-1.9,0.9-2.9,0.8c-2.9-0.2-5.7,0.4-8.6,1.1c-2.8,0.7-5.6,0.6-7.6-2
			c-0.7-0.9-1.9-1.2-3-1.5c-2.7-1-5-2.5-6.8-4.7C392.3,888.4,391.6,886.5,391.7,884.2z"/>
	</g>
	<g>
		<text transform="matrix(1 0 0 1 539.8082 300.269)" class="st5 st6 st7">404</text>
		<text transform="matrix(1 0 0 1 539.8052 367.9125)" class="st5 st6 st8">Pagina no encontrada</text>
	</g>
</g>
</svg>
