<?xml version="1.0" encoding="utf-8"?>
<!-- Generator: Adobe Illustrator 24.0.1, SVG Export Plug-In . SVG Version: 6.00 Build 0)  -->
<svg version="1.1" id="Capa_1" xmlns="http://www.w3.org/2000/svg" xmlns:xlink="http://www.w3.org/1999/xlink" x="0px" y="0px"
	 viewBox="0 0 1000 922" style="enable-background:new 0 0 1000 922;" xml:space="preserve">
<style type="text/css">
	.st0{fill:none;stroke:#263238;stroke-width:1.2035;stroke-linecap:round;stroke-linejoin:round;}
	.st1{fill:#0078E0;}
	.st2{fill:none;stroke:#263238;stroke-width:1.204;stroke-linecap:round;stroke-linejoin:round;}
	.st3{fill:#FFFFFF;stroke:#263238;stroke-width:1.2035;stroke-linecap:round;stroke-linejoin:round;}
	.st4{fill:#FFFFFF;}
	.st5{fill:none;stroke:#263238;stroke-width:1.204;stroke-linecap:round;stroke-linejoin:round;stroke-dasharray:7.8284,7.8284;}
	.st6{fill:none;stroke:#263238;stroke-width:1.204;stroke-linecap:round;stroke-linejoin:round;stroke-dasharray:6.9641,6.9641;}
	.st7{fill:none;stroke:#263238;stroke-width:1.204;stroke-linecap:round;stroke-linejoin:round;stroke-dasharray:8.1583,8.1583;}
	.st8{fill:none;stroke:#263238;stroke-width:1.204;stroke-linecap:round;stroke-linejoin:round;stroke-dasharray:8.1532,8.1532;}
	.st9{fill:none;stroke:#263238;stroke-width:1.204;stroke-linecap:round;stroke-linejoin:round;stroke-dasharray:7.586,7.586;}
	.st10{fill:none;stroke:#263238;stroke-width:1.204;stroke-linecap:round;stroke-linejoin:round;stroke-dasharray:9.7157,9.7157;}
	.st11{fill:none;stroke:#263238;stroke-width:1.204;stroke-linecap:round;stroke-linejoin:round;stroke-dasharray:7.7264,7.7264;}
	.st12{fill:none;stroke:#263238;stroke-width:1.204;stroke-linecap:round;stroke-linejoin:round;stroke-dasharray:7.6686,7.6686;}
	.st13{fill:none;stroke:#263238;stroke-width:1.204;stroke-linecap:round;stroke-linejoin:round;stroke-dasharray:7.2557,7.2557;}
	.st14{fill:none;stroke:#263238;stroke-width:1.204;stroke-linecap:round;stroke-linejoin:round;stroke-dasharray:7.7268,7.7268;}
	.st15{fill:none;stroke:#263238;stroke-width:1.204;stroke-linecap:round;stroke-linejoin:round;stroke-dasharray:8.0202,8.0202;}
	.st16{fill:none;stroke:#263238;stroke-width:1.204;stroke-linecap:round;stroke-linejoin:round;stroke-dasharray:7.7005,7.7005;}
	.st17{fill:none;stroke:#263238;stroke-width:1.204;stroke-linecap:round;stroke-linejoin:round;stroke-dasharray:6.8855,6.8855;}
	.st18{fill:none;stroke:#263238;stroke-width:1.204;stroke-linecap:round;stroke-linejoin:round;stroke-dasharray:4.1572,4.1572;}
	.st19{fill:none;stroke:#263238;stroke-width:1.204;stroke-linecap:round;stroke-linejoin:round;stroke-dasharray:8.163,8.163;}
	.st20{fill:none;stroke:#263238;stroke-width:1.204;stroke-linecap:round;stroke-linejoin:round;stroke-dasharray:5.8752,5.8752;}
	.st21{fill:none;stroke:#263238;stroke-width:1.204;stroke-linecap:round;stroke-linejoin:round;stroke-dasharray:8.209,8.209;}
	.st22{fill:none;stroke:#263238;stroke-width:1.204;stroke-linecap:round;stroke-linejoin:round;stroke-dasharray:8.0002,8.0002;}
	.st23{fill:none;stroke:#263238;stroke-width:1.204;stroke-linecap:round;stroke-linejoin:round;stroke-dasharray:8.2181,8.2181;}
	.st24{fill:none;stroke:#263238;stroke-width:1.204;stroke-linecap:round;stroke-linejoin:round;stroke-dasharray:8.1734,8.1734;}
	.st25{fill:none;stroke:#263238;stroke-width:1.204;stroke-linecap:round;stroke-linejoin:round;stroke-dasharray:7.3061,7.3061;}
	.st26{fill:none;stroke:#263238;stroke-width:1.204;stroke-linecap:round;stroke-linejoin:round;stroke-dasharray:7.7211,7.7211;}
	.st27{fill:none;stroke:#263238;stroke-width:1.204;stroke-linecap:round;stroke-linejoin:round;stroke-dasharray:8.0865,8.0865;}
	.st28{fill:none;stroke:#263238;stroke-width:1.204;stroke-linecap:round;stroke-linejoin:round;stroke-dasharray:4.684,4.684;}
</style>
<path class="st0" d="M77.1,746.1c0,0,5.4-1.8,14.9-4.8"/>
<g id="N-TEXT">
</g>
<g id="_x32_D_x24_AG-GUIDES">
</g>
<g id="N-DIMENSIONS">
</g>
<g id="_x32_D_x24_AG-DETAILS-DIAGRAM">
</g>
<g id="_x32_D_x24_AG-POP-CULTURE">
</g>
<g>
	<path class="st1" d="M546.6,56.1c0,0-151.5-18.5-269.7,91.7S127,431.4,97.6,571.1s35.2,260.5,153.8,295.6s169.2-67.3,315-104.5
		c145.8-37.2,190.3-25,292.3-135.7s77.4-312.5-53.3-436.5S546.6,56.1,546.6,56.1z"/>
	<path class="st2" d="M715.6,756.7c9.6,2,18.8,3.6,27.6,4.7c102.9,13.4,172.2,9.6,172.2,9.6"/>
	<path class="st0" d="M503.1,695.4c29.8,8.2,60.7,17.9,91.1,27.4"/>
	<path class="st0" d="M344.5,678c11.9-1.6,23.1-2.7,33.1-3.1c11.4-0.5,23.7,0.2,36.7,1.7"/>
	<path class="st0" d="M110.7,735.1c31.3-9.6,79.8-23.9,129.7-36.2"/>
	<path class="st0" d="M249.1,602.6c-28.2-2.8-55-2-79.1,5.1c-99,29.2-91.5,38-91.5,38"/>
	<path class="st0" d="M419.8,637c-24.6-4.7-50-10.8-75.3-16.7"/>
	<path class="st0" d="M519.5,642.6c-1,0.1-2,0.3-2.9,0.4c-2.9,0.4-5.8,0.7-8.7,1"/>
	<path class="st0" d="M605.9,630.9c-24.9,3.2-50.9,6.8-78.3,10.6"/>
	<path class="st0" d="M887.6,626.2c-36-8.6-72.9-12.4-109.9-11.2c-21.4,0.8-43.3,2.2-66,4.1"/>
	<path class="st0" d="M915.8,634.2c0,0-3.8-1.4-10.8-3.4"/>
	<path class="st3" d="M581.9,145.7c-2.9-11.9-15-19.3-26.9-16.3c-8.1,2-14.4,8.3-16.3,16.3H581.9z"/>
	<path class="st3" d="M800.5,145.7c-2.7-11.3-12.1-19.7-23.7-21c0.7-3.9,1.1-7.9,1.1-11.9c0-35.8-29.1-64.7-64.8-64.7
		c-31.3,0-58.1,22.5-63.6,53.3c-18-14.1-44-10.9-58,7.1c-8.2,10.5-10.9,24.4-7.1,37.2H800.5z"/>
	<path class="st3" d="M197,197.6c-1.5-6.1-7.6-9.8-13.7-8.3c-4.1,1-7.3,4.2-8.3,8.3H197z"/>
	<path class="st3" d="M307.9,197.6c-1.4-5.7-6.2-10-12-10.7c3.7-17.8-7.7-35.2-25.5-38.9c-17.8-3.7-35.2,7.7-38.9,25.5
		c-0.1,0.5-0.2,1.1-0.3,1.6c-9.1-7.1-22.3-5.5-29.5,3.6c-4.2,5.3-5.5,12.4-3.6,18.9L307.9,197.6z"/>
	<path class="st3" d="M296.7,232.3c-1-3.8-4.8-6.2-8.7-5.2c-2.6,0.6-4.6,2.6-5.2,5.2H296.7z"/>
	<path class="st3" d="M366.8,232.3c-0.9-3.6-3.9-6.3-7.6-6.7c0.2-1.3,0.3-2.5,0.3-3.8c0-11.5-9.3-20.7-20.7-20.8
		c-10.1,0-18.7,7.2-20.4,17.1c-5.8-4.5-14.1-3.5-18.6,2.3c-2.6,3.4-3.5,7.8-2.3,11.9H366.8z"/>
	<g id="_x32_D_x24_AG-OUTLINE">
		<g id="POLYLINE_00000168836733031228279840000016258147031451106956_">
			<g>
				<path class="st4" d="M530.4,609.8c-0.9-2.9-1.5-5.9-1.9-8.9c-0.2-1.5-0.3-3.3-0.4-4.8c-0.5-11.4-1-41.2-1.8-52.2
					c-0.4-6.1-1.2-13-1.9-19c-0.2-1.7-0.5-3.5-0.8-5.2c-0.1-0.6-0.3-1.3-0.5-1.9c-0.1-0.2-0.2-0.3-0.3-0.5c-0.1-0.1-0.2-0.1-0.3-0.2
					c-0.1,0-0.3,0-0.4,0.1c-0.1,0.1-0.2,0.2-0.3,0.3c-0.1,0.2-0.2,0.4-0.3,0.6c-0.1,0.3-0.2,0.6-0.2,1c-0.5,2.8-1,6.5-1.4,9.3
					c-0.6,4.9-1.1,10-1.2,14.9c-0.3,9.2,0.4,40.9,0.2,50.2c-0.1,3.2-0.2,6.6-0.7,9.8c-0.4,2.6-1,5.2-1.8,7.7c-1.3-0.5-2.6-1.3-3.8-2
					l-1.1,1.7c2.8,1.8,6,3.2,9.3,3.5l0.1,3.9c-0.6,0.2-1.2,0.4-1.8,0.7c-0.3,0.2-0.6,0.4-0.8,0.7c-0.2-0.3-0.5-0.6-0.8-0.8
					c-0.2-0.1-0.4-0.3-0.7-0.3c-0.4,0-0.8,0.2-1.1,0.5c-1.4,1.1-3.2,2.2-4.8,3.1c-0.1,0.1-0.3,0.1-0.5,0.2c-0.2,0-0.4,0-0.6,0
					c-0.3-0.1-0.6-0.2-0.9-0.3c-0.8-0.3-1.5-0.8-2.3-1.2c-1-0.6-2.1-1.3-3-2c-0.1-1.2-0.5-3.6-0.7-4.8c-0.5-3.1-2.7-16.5-3.2-19.3
					c-0.5-2.6-1.1-5.3-1.8-7.8c-1-3.3-2.3-6.7-4.8-9.1c0.2-2.3-0.3-4.6-0.8-6.8l0.4-0.6c0.3-0.4,0.7-0.9,1.1-1.2
					c0.3-0.2,0.7-0.5,1-0.8c0.2-0.2,0.3-0.4,0.4-0.6c0.2-0.4,0.2-0.8,0.3-1.2c0.1-0.7,0.1-1.5,0.4-2.2c0.2-0.4,0.5-0.7,0.8-0.9
					c0.5-0.4,1-0.8,1.3-1.3c0.4-0.6,0.6-1.2,0.8-1.9c0.1-0.4,0.3-1.1,0.4-1.5c0-0.1,0.1-0.1,0.1-0.2l0,0l0,0l0,0l0,0l0,0l0,0l0,0
					l0,0l0,0l0,0l0,0l0,0l0,0l0,0l0,0l0,0l0,0l0,0l0,0l0,0l0,0l0,0l0,0l0,0l0,0h0h0h0h0h0h0l0,0l0,0l0,0l0,0l0,0l0,0l0,0l0,0l0,0
					l0,0l0,0l0,0l0,0l0,0l0,0c0,0,0.1,0.1,0.1,0.1c0.2,0.2,0.3,0.5,0.5,0.7c0.1,0.1,0.3,0.3,0.5,0.2c0.1,0,0.2-0.1,0.3-0.1
					c0.2-0.1,0.3-0.2,0.4-0.4c0.6-0.7,0.8-1.7,0.9-2.6c0.1-0.9,0.1-1.8,0-2.7c0-0.8-0.2-2.1-0.1-2.9c0-0.4,0.1-0.7,0.2-1.1
					c0.1-0.2,0.2-0.3,0.3-0.4c0.1-0.1,0.2-0.1,0.4-0.1c0.4-0.1,0.8,0,1.1,0c0.1,0,0.2,0,0.3-0.1l0,0l0,0l0,0l0,0l0,0l0,0l0,0l0,0
					l0,0l0,0l0,0l0,0l0,0l0,0l0,0l0,0l0,0l0,0l0,0l0,0l0,0l0,0l0,0l0,0l0,0l0,0l0,0l0,0l0,0l0,0l0,0l0,0l0,0c0-0.1,0-0.3,0-0.4
					c-0.2-0.5-0.4-1.1-0.6-1.6c-0.2-0.4-0.3-0.9-0.3-1.3c-0.1-0.8-0.2-2.1-0.3-2.8c-0.1-0.6-0.2-1.3-0.3-1.9
					c-0.4-1.4-1.2-2.8-1.8-4.1c-0.1-0.2-0.2-0.4-0.2-0.6v0v0v0v0l0,0l0,0l0,0l0,0l0,0l0,0l0,0l0,0l0,0l0,0l0,0l0,0l0,0l0,0l0,0l0,0
					l0,0l0,0l0,0l0,0l0,0l0,0l0,0l0,0l0,0l0,0l0,0l0,0l0,0l0,0l0,0l0,0l0,0l0,0l0,0l0,0l0,0h0h0h0h0h0c0.1,0,0.1,0,0.2,0
					c0.3,0.1,0.7,0.4,1,0.5c0.2,0.1,0.4,0.2,0.6,0.3c0.1,0,0.1,0,0.2,0l0,0l0,0l0,0l0,0l0,0l0,0l0,0l0,0l0,0l0,0l0,0l0,0l0,0l0,0
					l0,0l0,0l0,0l0,0l0,0l0,0l0,0l0,0l0,0l0,0l0,0l0,0l0,0l0,0l0,0l0,0l0,0l0,0l0,0l0,0l0,0l0,0l0,0l0,0l0,0l0,0l0,0l0,0l0,0l0,0
					l0,0l0,0l0,0l0,0c0-0.1,0-0.2,0-0.3c0-0.2-0.1-0.4-0.2-0.6c-0.5-1.1-1.2-2-2-2.9c-0.7-0.8-1.7-1.4-2.4-2.2
					c-0.1-0.2-0.3-0.3-0.4-0.5c-0.1-0.1-0.1-0.3-0.1-0.5c0-0.4,0.3-0.7,0.5-1.1c0.1-0.2,0.3-0.4,0.3-0.7c0-0.1,0-0.3-0.1-0.4
					c-0.1-0.2-0.3-0.3-0.4-0.4c-0.6-0.4-1.4-0.8-2-1.3c-0.2-0.2-0.5-0.4-0.7-0.6c-0.4-0.5-0.6-1.2-0.8-1.8c-0.1-0.4-0.2-0.7-0.4-1
					c-0.5-0.8-1.2-1.5-1.9-2c-1.1-0.8-2.4-1.3-3.8-1.4c-1.4-0.1-3,0.1-4.4,0.1c-0.8,0-1.5-0.2-2.3-0.4c-1.2-0.3-2.5-0.9-3.8-0.9
					c-0.8,0-1.5,0.2-2.3,0.4c-1.2,0.4-2.5,1.2-3.7,1.7c-0.8,0.4-1.9,0.8-2.7,1.1c-0.5,0.2-1.1,0.5-1.5,0.9c-1,0.8-1.4,2.1-1.9,3.2
					c-0.3,0.6-0.6,1.3-1,1.9c-0.4,0.6-0.8,1.2-1.3,1.7c-0.4,0.5-1.6,1.8-1.9,2.4c-0.1,0.1-0.1,0.2-0.2,0.3l0,0l0,0l0,0l0,0l0,0l0,0
					l0,0l0,0l0,0l0,0v0v0v0l0,0l0,0l0,0l0,0l0,0l0,0l0,0l0,0l0,0l0,0l0,0l0,0l0,0l0,0l0,0l0,0l0,0l0,0l0,0l0,0l0,0l0,0l0,0l0,0l0,0
					l0,0l0,0l0,0l0,0l0,0l0,0l0,0c0.1,0,0.3,0,0.4,0l0.5-0.1c0.2,0,0.4,0,0.7,0c0.1,0,0.2,0,0.3,0.1l0,0l0,0l0,0l0,0l0,0l0,0l0,0
					l0,0l0,0l0,0l0,0l0,0l0,0l0,0l0,0l0,0l0,0l0,0l0,0l0,0l0,0l0,0l0,0l0,0l0,0l0,0l0,0c0,0.2,0,0.4,0,0.7c-0.2,0.7-0.5,1.4-0.8,2.1
					c-0.7,1.4-1.7,3.1-2.4,4.4c-0.1,0.3-0.3,0.5-0.4,0.8c-0.1,0.2-0.2,0.5-0.2,0.8c0,0.2,0,0.4,0.1,0.5c0.2,0.4,0.5,0.7,0.8,1
					c0.2,0.2,0.3,0.4,0.4,0.6c0,0.1,0.1,0.3,0,0.4c0,0.2-0.1,0.5-0.3,0.7c-0.2,0.3-0.5,0.6-0.9,0.8c-0.5,0.3-1.1,0.5-1.6,0.7
					c-0.2,0.1-0.5,0.3-0.6,0.6c-0.1,0.3,0,0.5,0,0.8c0.1,0.5,0.4,1,0.8,1.5c0.3,0.4,0.7,0.6,1.1,0.9c0.2,0.1,0.3,0.2,0.4,0.4
					c0.1,0.1,0,0.3,0,0.4c-0.1,0.3-0.2,0.5-0.4,0.7c-0.3,0.5-0.6,0.9-1,1.3c-0.2,0.2-0.4,0.4-0.7,0.6c-0.3,0.2-0.7,0.3-1,0.5
					c-0.2,0.1-0.5,0.3-0.5,0.6c0,0.2,0.1,0.5,0.2,0.7c0.3,0.5,0.7,0.9,1.1,1.2c0.2,0.2,0.6,0.5,0.8,0.7c0.1,0.1,0.1,0.2,0.1,0.2
					c0.1,0.2,0,0.4-0.2,0.6c-0.4,0.4-0.9,0.7-1.5,0.7c-0.6,0-1.2-0.1-1.8-0.1c-0.1,0-0.3,0-0.4,0c-0.1,0-0.2,0-0.3,0.1l0,0l0,0l0,0
					l0,0l0,0l0,0l0,0l0,0l0,0l0,0l0,0c-0.1,0.1-0.1,0.2-0.1,0.4c0,0.4,0.2,0.7,0.3,1c0.4,0.9,0.9,1.8,1.5,2.5
					c-2,0.1-3.9,0.6-5.7,1.5c-1.1,0.5-2.1,1.1-3.1,1.8c-2.5,2-3.9,5.1-5,8.1c-2,1-4.1,2.1-6,3.3c-1,0.6-1.9,1.3-2.8,2.1
					c-0.7,0.7-1.4,1.5-1.9,2.3c-1.4,2.2-2.3,4.6-3.2,7c-1.5,4.2-2.7,8.7-3.7,13.1c-0.5,2.4-1.1,5.4-1.5,7.8c-2.2,14.2-7,45-8.8,58.9
					c-2,15.4-5.5,54.4-7,70.3l-1.4,12c-0.1,1-3.2,23.4-3.2,23.8c-0.1,1.1-0.2,2.4-0.3,3.5c0,0.9,0,1.8,0.2,2.7
					c0.1,0.5,0.3,1,0.7,1.3c0.2,0.3,0.5,0.5,0.8,0.6c0.4,0.2,0.8,0.3,1.2,0.3c0.9,0.1,1.9,0,2.8-0.2c2.3-0.3,8.4-1.7,10.8-2.1
					c2.9-0.6,5.9-1.1,8.8-1.4c0.6,0.8,1.5,1.4,2.5,1.8c0.3,2.8,0.5,5.7,0.3,8.5c-0.1,1-0.2,2-0.5,2.9c-0.3,0.8-0.7,1.6-1.2,2.3
					c-0.4,0.5-0.8,0.9-1.3,1.2c-0.6,0.4-1.2,0.7-1.9,0.9c-2.8,1-6,1.4-8.8,2.2c-0.5,0.1-1,0.3-1.5,0.5c-0.4,0.2-0.8,0.4-1.1,0.6
					c-0.8,0.7-1,1.8-1.1,2.8c-0.1,0.7-0.1,1.3,0,2c0,0.4,0.1,0.7,0.2,1.1c0.1,0.2,0.2,0.4,0.3,0.5c0.2,0.1,0.4,0.1,0.6,0.1l25.5,0
					c0.5,0,1.3,0,1.8,0c0.4,0,0.8-0.1,1.1-0.2c0.2-0.1,0.4-0.2,0.5-0.3c0.2-0.2,0.3-0.5,0.4-0.8c0.1-0.5,0.2-1,0.2-1.5
					c0-0.7,0-1.5-0.1-2.2c-0.2-1.6-0.9-3.4-1.4-4.9c-0.2-0.5-0.3-1-0.4-1.5c-0.1-0.4-0.1-0.7-0.1-1.1c0-0.5,0.1-1,0.2-1.6
					c0.6-2.9,1.8-7.9,2.4-10.8c0.9-0.1,1.9-0.2,2.9-0.5c0.4-0.1,0.9-0.3,1.3-0.5c0.3-0.1,0.5-0.3,0.7-0.6c0.2-0.3,0.4-0.6,0.5-0.9
					c2,0.1,4.1,0.3,6.1,0.6c1.6,0.2,3.3,0.6,4.9,1c1.3,0.3,4.2,1.2,5.4,1.5c1.2,0.3,2.5,0.5,3.7,0.4c0.6,0,1.3-0.1,1.8-0.4
					c0.8-0.3,1.6-0.9,2.3-1.4c1.5-0.9,3.1-1.6,4.8-2c2.1-0.5,4.5-0.5,6.7-0.6c0.2,0.4,0.5,0.8,0.8,1.1c0.4,0.3,0.8,0.5,1.2,0.7
					c0.9,0.3,2,0.4,2.9,0.4c2.1,0,4.3-0.3,6.4-0.5c1.8,4.3,3.8,9,5.2,13.4c0.3,1.1,0.7,2.3,0.9,3.5c0.1,0.3,0.1,0.7,0.1,1
					c0,0.3-0.1,0.6-0.2,0.8c-0.7,1.6-1.6,3.4-1.3,5.3c0.1,0.5,0.3,1,0.5,1.5c0.2,0.3,0.3,0.5,0.6,0.7c0.2,0.2,0.5,0.3,0.7,0.3
					c0.1,0,0.2,0,0.3,0c0,0,30.7,0,30.8,0c0.3,0,0.8,0,1.1,0c0.3,0,0.6-0.1,0.8-0.2c0.2-0.1,0.4-0.3,0.5-0.5
					c0.2-0.3,0.3-0.6,0.4-0.9c0.1-0.5,0.1-1,0-1.5c-0.1-0.5-0.2-1-0.5-1.4c-0.2-0.3-0.4-0.5-0.6-0.7c-0.5-0.4-1-0.6-1.6-0.8
					c-1.6-0.5-4.9-0.9-6.5-1.2c-3.9-0.7-7.7-1.9-11.3-3.7c-1.3-0.7-2.7-1.5-3.5-2.9c-0.3-0.5-0.5-0.9-0.6-1.5
					c-0.1-0.5-0.2-1-0.2-1.5c-0.3-2.1-0.9-10.7-1-12.9c0.4-0.2,0.9-0.5,1.2-0.8c0.2-0.2,0.4-0.5,0.5-0.8c0.2-0.7,0.2-1.4,0.2-2.1
					c-0.1-3.3-0.5-7-0.9-10.3c-2.7-21.9-9.2-54.6-13-76.4c3.5-1.7,7.7-3.6,11-5.6c0.6-0.4,1.2-0.8,1.7-1.3c0.3-0.3,0.6-0.7,0.8-1.1
					c0.2-0.5,0.3-1.1,0.3-1.7c0.1-1-0.1-2.1-0.2-3.1c-0.3-1.8-0.7-3.8-1.1-5.6l-0.4-1.8l-7.5-29.5c2.1,0.8,5.7,2.3,7.8,3
					c0.3,0.1,0.6,0.2,0.9,0.3c0.2,0,0.4,0.1,0.6,0.1c0.1,0,0.3,0,0.4,0c0.3-0.1,0.6-0.4,0.7-0.7c0.2-0.3,0.3-0.6,0.4-0.9
					c0.4-0.9,1.3-4,1.7-5l2.7-1l0.1,9.4c-0.4,0-0.7,0.1-1.1,0.2c-0.2,0.1-0.3,0.1-0.5,0.2c-0.1,0.1-0.2,0.1-0.2,0.2
					c0,0.1,0,0.2,0,0.3c0,0.2,0.1,0.4,0.2,0.6c0.4,0.8,1,1.6,1.5,2.3c0.5,0.7,1.1,1.5,1.7,2.2c0.2,0.2,0.4,0.4,0.7,0.5
					c0.2,0.1,0.3,0.1,0.5,0.1c0.2,0,0.4-0.1,0.6-0.2c0.4-0.2,0.7-0.5,1-0.9c0.5-0.6,0.9-1.3,1.3-2c0.3-0.6,0.7-1.3,0.9-1.9
					c0.1-0.3,0.2-0.6,0.2-1c0-0.1,0-0.3-0.1-0.4c-0.1-0.1-0.2-0.2-0.3-0.3c-0.1-0.1-0.2-0.1-0.4-0.1c-0.3-0.1-0.7-0.1-1.1-0.1
					l-0.1-9c0.7-0.2,1.4-0.5,1.9-1.1c0.5-0.6,0.8-1.5,0.9-2.3c0.4-1.8,0.5-3.7,0.5-5.5c0-0.7,0-1.5-0.1-2.2c0-0.4-0.1-0.9-0.3-1.3
					c-0.2-0.5-0.5-0.9-0.9-1.1c-0.3-0.1-0.6-0.2-0.9-0.3c-0.5-0.1-1,0-1.5,0l-0.1-4.6c0.7-0.2,1.4-0.4,2.1-0.7
					c0.9-0.3,1.8-0.8,2.6-1.3c1.5-0.9,2.7-2.2,3.7-3.6l-1.6-1.2C532.1,608.2,531.3,609.1,530.4,609.8z"/>
				<g>
					<path class="st2" d="M531.6,611.3c1-0.8,2-1.8,2.7-2.9l-1.6-1.2c-0.7,0.9-1.4,1.8-2.3,2.5c-0.4-1.3-0.7-2.6-1-3.9"/>
					<path class="st5" d="M528.2,598.2c-0.1-0.7-0.1-1.4-0.1-2c-0.5-11.4-1-41.2-1.8-52.2c-0.4-6.1-1.2-13-1.9-19
						c-0.2-1.7-0.5-3.5-0.8-5.2c-0.1-0.6-0.3-1.3-0.5-1.9c-0.1-0.2-0.2-0.3-0.3-0.5c-0.1-0.1-0.2-0.1-0.3-0.2c-0.1,0-0.3,0-0.4,0.1
						c-0.1,0.1-0.2,0.2-0.3,0.3c-0.1,0.2-0.2,0.4-0.3,0.6c-0.1,0.3-0.2,0.6-0.2,1c-0.5,2.8-1,6.5-1.4,9.3c-0.6,4.9-1.1,10-1.2,14.9
						c-0.3,9.2,0.4,40.9,0.2,50.2c-0.1,3.2-0.2,6.6-0.7,9.8"/>
					<path class="st2" d="M517.4,607.4c-0.3,1.3-0.7,2.6-1.1,3.8c-1.3-0.5-2.6-1.3-3.8-2l-1.1,1.7c1.1,0.7,2.3,1.4,3.5,1.9"/>
					<path class="st2" d="M516.9,613.6c1.3,0.4,2.6,0.7,3.9,0.8l0.1,3.9c-0.6,0.2-1.2,0.4-1.8,0.7c-0.3,0.2-0.6,0.4-0.8,0.7
						c-0.2-0.3-0.5-0.6-0.8-0.8c-0.2-0.1-0.4-0.3-0.7-0.3c-0.4,0-0.8,0.2-1.1,0.5c-0.2,0.2-0.4,0.3-0.7,0.5"/>
					<path class="st2" d="M506.9,621c-0.1-0.1-0.2-0.1-0.3-0.2c-1-0.6-2.1-1.3-3-2c-0.1-1-0.4-2.7-0.5-4"/>
					<path class="st6" d="M501.9,607.9c-0.8-5.1-1.9-11.4-2.2-13.3c-0.5-2.6-1.1-5.3-1.8-7.8c-0.3-0.9-0.6-1.9-0.9-2.8"/>
					<path class="st2" d="M495.4,581c-0.7-1.2-1.4-2.2-2.4-3.2c0.2-2.3-0.3-4.6-0.8-6.8l0.4-0.6c0.3-0.4,0.7-0.9,1.1-1.2
						c0.3-0.2,0.7-0.5,1-0.8c0.1-0.1,0.2-0.2,0.2-0.3"/>
					<path class="st7" d="M498.5,561.1c0.1-0.3,0.2-0.5,0.2-0.8c0.1-0.4,0.3-1.1,0.4-1.5c0-0.1,0.1-0.1,0.1-0.2l0,0l0,0l0,0l0,0l0,0
						l0,0l0,0l0,0l0,0l0,0l0,0l0,0l0,0l0,0l0,0l0,0l0,0l0,0l0,0l0,0l0,0l0,0l0,0l0,0l0,0h0h0h0h0h0h0l0,0l0,0l0,0l0,0l0,0l0,0l0,0
						l0,0l0,0l0,0l0,0l0,0l0,0l0,0l0,0c0,0,0.1,0.1,0.1,0.1c0.2,0.2,0.3,0.5,0.5,0.7c0.1,0.1,0.3,0.3,0.5,0.2c0.1,0,0.2-0.1,0.3-0.1
						c0.2-0.1,0.3-0.2,0.4-0.4c0.6-0.7,0.8-1.7,0.9-2.6c0.1-0.9,0.1-1.8,0-2.7c0-0.8-0.2-2.1-0.1-2.9c0-0.4,0.1-0.7,0.2-1.1
						c0.1-0.2,0.2-0.3,0.3-0.4c0.1-0.1,0.2-0.1,0.4-0.1c0.4-0.1,0.8,0,1.1,0c0.1,0,0.2,0,0.3-0.1l0,0l0,0l0,0l0,0l0,0l0,0l0,0l0,0
						l0,0l0,0l0,0l0,0l0,0l0,0l0,0l0,0l0,0l0,0l0,0l0,0l0,0l0,0l0,0l0,0l0,0l0,0l0,0l0,0l0,0l0,0l0,0l0,0l0,0c0-0.1,0-0.3,0-0.4
						c-0.2-0.5-0.4-1.1-0.6-1.6c-0.2-0.4-0.3-0.9-0.3-1.3c-0.1-0.8-0.2-2.1-0.3-2.8c-0.1-0.6-0.2-1.3-0.3-1.9
						c-0.4-1.4-1.2-2.8-1.8-4.1c-0.1-0.2-0.2-0.4-0.2-0.6v0v0v0v0l0,0l0,0l0,0l0,0l0,0l0,0l0,0l0,0l0,0l0,0l0,0l0,0l0,0l0,0l0,0l0,0
						l0,0l0,0l0,0l0,0l0,0l0,0l0,0l0,0l0,0l0,0l0,0l0,0l0,0l0,0l0,0l0,0l0,0l0,0l0,0l0,0l0,0h0h0h0h0h0c0.1,0,0.1,0,0.2,0
						c0.3,0.1,0.7,0.4,1,0.5c0.2,0.1,0.4,0.2,0.6,0.3c0.1,0,0.1,0,0.2,0l0,0l0,0l0,0l0,0l0,0l0,0l0,0l0,0l0,0l0,0l0,0l0,0l0,0l0,0
						l0,0l0,0l0,0l0,0l0,0l0,0l0,0l0,0l0,0l0,0l0,0l0,0l0,0l0,0l0,0l0,0l0,0l0,0l0,0l0,0l0,0l0,0l0,0l0,0l0,0l0,0l0,0l0,0l0,0l0,0
						l0,0l0,0l0,0l0,0c0-0.1,0-0.2,0-0.3c0-0.2-0.1-0.4-0.2-0.6c-0.5-1.1-1.2-2-2-2.9c-0.7-0.8-1.7-1.4-2.4-2.2
						c-0.1-0.2-0.3-0.3-0.4-0.5c-0.1-0.1-0.1-0.3-0.1-0.5c0-0.4,0.3-0.7,0.5-1.1c0.1-0.2,0.3-0.4,0.3-0.7c0-0.1,0-0.3-0.1-0.4
						c-0.1-0.2-0.3-0.3-0.4-0.4c-0.6-0.4-1.4-0.8-2-1.3c-0.2-0.2-0.5-0.4-0.7-0.6c-0.4-0.5-0.6-1.2-0.8-1.8c-0.1-0.4-0.2-0.7-0.4-1
						c-0.5-0.8-1.2-1.5-1.9-2c-1.1-0.8-2.4-1.3-3.8-1.4c-1.4-0.1-3,0.1-4.4,0.1c-0.8,0-1.5-0.2-2.3-0.4c-1.2-0.3-2.5-0.9-3.8-0.9
						c-0.8,0-1.5,0.2-2.3,0.4c-1.2,0.4-2.5,1.2-3.7,1.7c-0.8,0.4-1.9,0.8-2.7,1.1c-0.5,0.2-1.1,0.5-1.5,0.9c-1,0.8-1.4,2.1-1.9,3.2
						c-0.3,0.6-0.6,1.3-1,1.9c-0.4,0.6-0.8,1.2-1.3,1.7c-0.4,0.5-1.6,1.8-1.9,2.4c-0.1,0.1-0.1,0.2-0.2,0.3l0,0l0,0l0,0l0,0l0,0l0,0
						l0,0l0,0l0,0l0,0v0v0v0l0,0l0,0l0,0l0,0l0,0l0,0l0,0l0,0l0,0l0,0l0,0l0,0l0,0l0,0l0,0l0,0l0,0l0,0l0,0l0,0l0,0l0,0l0,0l0,0l0,0
						l0,0l0,0l0,0l0,0l0,0l0,0l0,0c0.1,0,0.3,0,0.4,0l0.5-0.1c0.2,0,0.4,0,0.7,0c0.1,0,0.2,0,0.3,0.1l0,0l0,0l0,0l0,0l0,0l0,0l0,0
						l0,0l0,0l0,0l0,0l0,0l0,0l0,0l0,0l0,0l0,0l0,0l0,0l0,0l0,0l0,0l0,0l0,0l0,0l0,0l0,0c0,0.2,0,0.4,0,0.7
						c-0.2,0.7-0.5,1.4-0.8,2.1c-0.7,1.4-1.7,3.1-2.4,4.4c-0.1,0.3-0.3,0.5-0.4,0.8c-0.1,0.2-0.2,0.5-0.2,0.8c0,0.2,0,0.4,0.1,0.5
						c0.2,0.4,0.5,0.7,0.8,1c0.2,0.2,0.3,0.4,0.4,0.6c0,0.1,0.1,0.3,0,0.4c0,0.2-0.1,0.5-0.3,0.7c-0.2,0.3-0.5,0.6-0.9,0.8
						c-0.5,0.3-1.1,0.5-1.6,0.7c-0.2,0.1-0.5,0.3-0.6,0.6c-0.1,0.3,0,0.5,0,0.8c0.1,0.5,0.4,1,0.8,1.5c0.3,0.4,0.7,0.6,1.1,0.9
						c0.2,0.1,0.3,0.2,0.4,0.4c0.1,0.1,0,0.3,0,0.4c-0.1,0.3-0.2,0.5-0.4,0.7c-0.3,0.5-0.6,0.9-1,1.3c-0.2,0.2-0.4,0.4-0.7,0.6
						c-0.3,0.2-0.7,0.3-1,0.5c-0.2,0.1-0.5,0.3-0.5,0.6c0,0.2,0.1,0.5,0.2,0.7c0.3,0.5,0.7,0.9,1.1,1.2c0.2,0.2,0.6,0.5,0.8,0.7
						c0.1,0.1,0.1,0.2,0.1,0.2c0.1,0.2,0,0.4-0.2,0.6c-0.1,0.2-0.3,0.3-0.5,0.4"/>
					<path class="st2" d="M455,558.4C455,558.4,455,558.4,455,558.4c0,0.4,0.2,0.7,0.3,1c0.4,0.9,0.9,1.8,1.5,2.5
						c-1.3,0.1-2.7,0.3-3.9,0.8"/>
					<path class="st8" d="M446.2,567.1c-1.4,1.8-2.4,4-3.1,6.2c-2,1-4.1,2.1-6,3.3c-1,0.6-1.9,1.3-2.8,2.1c-0.7,0.7-1.4,1.5-1.9,2.3
						c-1.4,2.2-2.3,4.6-3.2,7c-1.5,4.2-2.7,8.7-3.7,13.1c-0.5,2.4-1.1,5.4-1.5,7.8c-2.2,14.2-7,45-8.8,58.9c-2,15.4-5.5,54.4-7,70.3
						l-1.4,12c-0.1,1-3.2,23.4-3.2,23.8c-0.1,1.1-0.2,2.4-0.3,3.5c0,0.9,0,1.8,0.2,2.7c0.1,0.5,0.3,1,0.7,1.3
						c0.2,0.3,0.5,0.5,0.8,0.6c0.4,0.2,0.8,0.3,1.2,0.3c0.9,0.1,1.9,0,2.8-0.2c2.3-0.3,8.4-1.7,10.8-2.1c0.3-0.1,0.6-0.1,0.9-0.2"/>
					<path class="st2" d="M424.9,779.2c1.3-0.2,2.7-0.4,4-0.5c0.6,0.8,1.5,1.4,2.5,1.8c0.1,1.3,0.2,2.6,0.3,4"/>
					<path class="st9" d="M431.2,792c-0.3,0.8-0.6,1.6-1.2,2.3c-0.4,0.5-0.8,0.9-1.3,1.2c-0.6,0.4-1.2,0.7-1.9,0.9
						c-2.8,1-6,1.4-8.8,2.2c-0.5,0.1-1,0.3-1.5,0.5c-0.4,0.2-0.8,0.4-1.1,0.6c-0.8,0.7-1,1.8-1.1,2.8c-0.1,0.7-0.1,1.3,0,2
						c0,0.4,0.1,0.7,0.2,1.1c0.1,0.2,0.2,0.4,0.3,0.5c0.2,0.1,0.4,0.1,0.6,0.1l25.5,0c0.5,0,1.3,0,1.8,0c0.4,0,0.8-0.1,1.1-0.2
						c0.2-0.1,0.4-0.2,0.5-0.3c0.2-0.2,0.3-0.5,0.4-0.8c0.1-0.5,0.2-1,0.2-1.5c0-0.7,0-1.5-0.1-2.2c-0.2-1.6-0.9-3.4-1.4-4.9
						c-0.2-0.5-0.3-1-0.4-1.5c-0.1-0.4-0.1-0.7-0.1-1.1c0-0.5,0.1-1,0.2-1.6c0.2-0.9,0.4-2,0.7-3.2"/>
					<path class="st2" d="M445.2,785.2c0.3-1.5,0.6-2.8,0.8-3.9c0.9-0.1,1.9-0.2,2.9-0.5c0.4-0.1,0.9-0.3,1.3-0.5
						c0.3-0.1,0.5-0.3,0.7-0.6c0.2-0.3,0.4-0.6,0.5-0.9c1.3,0.1,2.7,0.2,4,0.3"/>
					<path class="st10" d="M464.9,781.1c1.1,0.3,2.3,0.7,3,0.8c1.2,0.3,2.5,0.5,3.7,0.4c0.6,0,1.3-0.1,1.8-0.4
						c0.8-0.3,1.6-0.9,2.3-1.4c0.9-0.6,1.8-1,2.8-1.4"/>
					<path class="st2" d="M483.3,778.3c1.3-0.1,2.7-0.2,4-0.2c0.2,0.4,0.5,0.8,0.8,1.1c0.4,0.3,0.8,0.5,1.2,0.7
						c0.4,0.1,0.8,0.2,1.2,0.3"/>
					<path class="st2" d="M494.8,780.2c1.3-0.1,2.7-0.3,4-0.4c0.5,1.2,1,2.4,1.6,3.7"/>
					<path class="st11" d="M503.1,790.6c0.3,0.8,0.6,1.7,0.8,2.5c0.3,1.1,0.7,2.3,0.9,3.5c0.1,0.3,0.1,0.7,0.1,1
						c0,0.3-0.1,0.6-0.2,0.8c-0.7,1.6-1.6,3.4-1.3,5.3c0.1,0.5,0.3,1,0.5,1.5c0.2,0.3,0.3,0.5,0.6,0.7c0.2,0.2,0.5,0.3,0.7,0.3
						c0.1,0,0.2,0,0.3,0c0,0,30.7,0,30.8,0c0.3,0,0.8,0,1.1,0c0.3,0,0.6-0.1,0.8-0.2c0.2-0.1,0.4-0.3,0.5-0.5
						c0.2-0.3,0.3-0.6,0.4-0.9c0.1-0.5,0.1-1,0-1.5c-0.1-0.5-0.2-1-0.5-1.4c-0.2-0.3-0.4-0.5-0.6-0.7c-0.5-0.4-1-0.6-1.6-0.8
						c-1.6-0.5-4.9-0.9-6.5-1.2c-3.9-0.7-7.7-1.9-11.3-3.7c-1.3-0.7-2.7-1.5-3.5-2.9c-0.3-0.5-0.5-0.9-0.6-1.5
						c-0.1-0.5-0.2-1-0.2-1.5c-0.1-0.9-0.3-2.9-0.5-5.1"/>
					<path class="st2" d="M513.6,780.4c-0.1-1.7-0.2-3.2-0.3-4c0.4-0.2,0.9-0.5,1.2-0.8c0.2-0.2,0.4-0.5,0.5-0.8
						c0.2-0.5,0.2-1,0.2-1.5"/>
					<path class="st12" d="M514.8,765.6c-0.1-1.1-0.2-2.1-0.3-3.2c-2.4-19.4-7.8-47.4-11.7-68.7"/>
					<path class="st2" d="M502.1,690c-0.2-1.3-0.5-2.7-0.7-3.9c1.2-0.6,2.4-1.1,3.6-1.7"/>
					<path class="st13" d="M511.4,681c0.3-0.2,0.6-0.4,0.9-0.5c0.6-0.4,1.2-0.8,1.7-1.3c0.3-0.3,0.6-0.7,0.8-1.1
						c0.2-0.5,0.3-1.1,0.3-1.7c0.1-1-0.1-2.1-0.2-3.1c-0.3-1.8-0.7-3.8-1.1-5.6l-0.4-1.8l-5.6-22.1"/>
					<path class="st2" d="M506.9,640.1l-1-3.9c1,0.4,2.4,0.9,3.7,1.5"/>
					<path class="st2" d="M517.2,636.7c0.4-1.3,1-3.1,1.2-3.8l2.7-1l0.1,4"/>
					<path class="st2" d="M521.2,637.3l0.1,4c-0.4,0-0.7,0.1-1.1,0.2c-0.2,0.1-0.3,0.1-0.5,0.2c-0.1,0.1-0.2,0.1-0.2,0.2
						c0,0.1,0,0.2,0,0.3c0,0.2,0.1,0.4,0.2,0.6c0.2,0.3,0.3,0.7,0.5,1"/>
					<path class="st2" d="M527.6,643.8c0.1-0.2,0.2-0.5,0.3-0.7c0.1-0.3,0.2-0.6,0.2-1c0-0.1,0-0.3-0.1-0.4
						c-0.1-0.1-0.2-0.2-0.3-0.3c-0.1-0.1-0.2-0.1-0.4-0.1c-0.3-0.1-0.7-0.1-1.1-0.1l-0.1-4"/>
					<path class="st2" d="M526.2,636.3l-0.1-4c0.7-0.2,1.4-0.5,1.9-1.1c0.4-0.5,0.6-1,0.8-1.6"/>
					<path class="st2" d="M529.3,620c0,0,0-0.1,0-0.1c-0.2-0.5-0.5-0.9-0.9-1.1c-0.3-0.1-0.6-0.2-0.9-0.3c-0.5-0.1-1,0-1.5,0
						l-0.1-4.6c0.7-0.2,1.4-0.4,2.1-0.7c0.6-0.2,1.1-0.4,1.6-0.7"/>
				</g>
			</g>
		</g>
		<g id="POLYLINE_00000052076382365956316130000015322801655431173805_">
			<g>
				<path class="st4" d="M312.2,562.8c0.5,0,1,0,1.5-0.2c0.4-0.1,0.8-0.3,1.1-0.6c0.3-0.2,0.5-0.5,0.7-0.8c0.4-0.9,0.5-1.9,0.3-2.8
					c-0.1-0.7-0.4-1.7-0.5-2.4c-0.1-0.8-0.2-1.5-0.1-2.3c0-0.2,0-0.4,0.1-0.5c0,0,0.1-0.1,0.1-0.1c0.2,0,0.4,0.1,0.6,0.1
					c0.3,0.1,0.6,0.1,0.9,0.1c0.2,0,0.4,0,0.5,0c0.1,0,0.2,0,0.3-0.1l0,0l0,0l0,0l0,0l0,0l0,0l0,0l0,0l0,0l0,0l0,0l0,0l0,0l0,0l0,0
					l0,0l0,0l0,0l0,0l0,0l0,0l0,0l0,0l0,0l0,0l0,0l0,0l0,0l0,0l0,0v0v0v0v0v0v0c0-0.1,0-0.2-0.1-0.2c-0.2-0.4-0.7-0.9-1-1.3
					c-0.5-0.6-1-1.4-1.2-2.2c-0.4-1.3-0.3-2.7,0-4c0.1-0.7,0.4-1.4,0.6-2c0.2-0.4,0.3-0.9,0.4-1.3c0.2-0.8,0.2-1.6,0-2.5
					c-0.1-0.4-0.3-0.7-0.5-1c-0.4-0.6-1-1.3-1.4-1.9c-0.1-0.2-0.1-0.4-0.2-0.6c0-0.2,0-0.5,0.1-0.7c0.2-0.6,0.5-1.3,0.6-1.9
					c0.2-1.1,0-2.4-0.7-3.3c-0.5-0.6-1.2-1-1.7-1.5c-0.2-0.2-0.3-0.4-0.4-0.6c-0.2-0.5-0.2-1.2-0.4-1.7c-0.1-0.2-0.2-0.4-0.4-0.5
					c-0.3-0.3-0.8-0.7-1.1-1.1c-0.5-0.6-0.6-1.4-0.9-2.1c-0.2-0.4-0.3-0.9-0.6-1.3c-0.5-0.6-1.2-0.9-1.9-1.3
					c-0.4-0.2-0.7-0.4-0.9-0.7l-0.4-0.4c-0.5-0.5-1.2-1-1.9-1.3c-0.8-0.4-1.7-0.7-2.6-0.8c-1-0.1-2.2,0-3.2,0
					c-0.4,0-0.7-0.1-1.1-0.2l-0.6-0.2c-1-0.4-2.1-0.6-3.2-0.8c-0.7-0.1-1.4-0.1-2.1-0.1c-0.6,0-1.1,0.2-1.7,0.4
					c-1.3,0.5-2.3,1.6-3.4,2.3c-0.8,0.5-1.8,1-2.6,1.5c-0.4,0.3-0.8,0.6-1.1,0.9c-0.7,0.8-0.8,1.8-1,2.8c-0.1,0.5-0.2,1-0.5,1.5
					c-0.3,0.5-0.6,0.9-1,1.2c-0.8,0.7-1.7,1.5-2.3,2.3c-0.4,0.5-0.7,1.1-0.8,1.8c-0.1,0.7,0,1.5,0.1,2.2c0,0.4,0.1,0.9,0,1.3
					c0,0.3-0.1,0.6-0.3,0.9c-0.4,0.9-1.3,1.8-1.9,2.6c-0.2,0.2-0.3,0.4-0.4,0.7c-0.1,0.1-0.1,0.3-0.1,0.5c0,0.2,0,0.3,0.1,0.5
					c0.2,0.5,0.6,1,0.9,1.5c0.4,0.7,0.8,1.4,0.9,2.3c0.1,0.5,0,0.9-0.2,1.3c-0.2,0.5-0.6,1-0.9,1.4c-0.4,0.5-1.1,1.1-1.6,1.6
					c-0.1,0.1-0.1,0.2-0.2,0.3l0,0l0,0l0,0l0,0l0,0l0,0l0,0l0,0l0,0l0,0v0v0c0,0.1,0.1,0.2,0.1,0.2c0.2,0.1,0.5,0.2,0.7,0.2
					c0.3,0,0.6,0,0.9,0c0.3,0,0.8-0.1,1.1-0.1c0.2,0,0.5,0,0.6,0.2l0,0l0,0l0,0l0,0c0.1,0.2,0,0.4,0,0.6c-0.1,0.6-0.5,1.1-0.9,1.5
					c-0.2,0.2-0.5,0.5-0.7,0.6c-0.2,0.1-0.4,0.2-0.7,0.3c-0.4,0.1-0.9,0.2-1.3,0.2c-0.2,0-0.3,0-0.5,0.1c-0.1,0-0.2,0.1-0.2,0.1l0,0
					l0,0l0,0l0,0l0,0l0,0l0,0l0,0l0,0l0,0l0,0l0,0l0,0l0,0l0,0l0,0l0,0l0,0l0,0l0,0l0,0l0,0l0,0l0,0l0,0l0,0l0,0l0,0l0,0l0,0l0,0
					l0,0l0,0l0,0l0,0c0,0.2,0.1,0.3,0.1,0.5c0.2,0.5,0.6,0.8,0.9,1.2c0.4,0.5,0.9,0.9,1.4,1.3c0.5,0.4,1.3,0.9,1.8,1.3
					c0.1,0.1,0.3,0.3,0.4,0.4l0,0l0,0l0,0l0,0l0,0l0,0l0,0l0,0l0,0l0,0l0,0l0,0l0,0l0,0l0,0l0,0l0,0v0v0v0v0l0,0l0,0l0,0l0,0l0,0
					l0,0l0,0l0,0l0,0l0,0l0,0l0,0l0,0l0,0l0,0l0,0l0,0l0,0l0,0l0,0l0,0l0,0l0,0l0,0l0,0l0,0l0,0l0,0l0,0l0,0c0,0-0.1,0.1-0.2,0.1
					c-0.1,0-0.3,0.1-0.5,0.1c-0.5,0.1-1.2,0.1-1.6,0.3c-0.1,0-0.2,0.1-0.2,0.1l0,0l0,0l0,0l0,0l0,0l0,0l0,0l0,0l0,0l0,0l0,0l0,0l0,0
					l0,0l0,0l0,0l0,0l0,0l0,0l0,0l0,0l0,0l0,0l0,0l0,0l0,0l0,0l0,0l0,0l0,0l0,0l0,0l0,0l0,0l0,0l0,0l0,0l0,0c0,0.1,0.1,0.3,0.1,0.4
					c0.2,0.3,0.5,0.6,0.8,0.8c0.4,0.3,0.8,0.5,1.2,0.7c0.4,0.2,1.1,0.5,1.5,0.7c0.1,0.1,0.3,0.1,0.3,0.3l0,0l0,0l0,0l0,0l0,0l0,0
					l0,0l0,0l0,0l0,0l0,0l0,0l0,0l0,0l0,0l0,0l0,0l0,0l0,0l0,0l0,0v0v0v0v0v0l0,0l0,0l0,0l0,0l0,0l0,0l0,0l0,0l0,0l0,0l0,0l0,0l0,0
					l0,0l0,0l0,0l0,0l0,0l0,0l0,0l0,0l0,0l0,0l0,0l0,0l0,0l0,0c-0.1,0.1-0.1,0.1-0.2,0.1c-0.4,0.2-1,0.4-1.4,0.6
					c-0.2,0.1-0.4,0.2-0.6,0.3c-0.1,0-0.1,0.1-0.2,0.2l0,0l0,0l0,0l0,0l0,0l0,0l0,0l0,0l0,0l0,0l0,0c0,0.1,0,0.2,0,0.2
					c0.1,0.1,0.2,0.1,0.2,0.2c0.2,0.1,0.4,0.2,0.6,0.3c-0.7,0.3-2,1-2.7,1.4c-2.9,1.6-9.4,5.3-12.2,6.9c-1,0.6-2,1.2-2.9,1.8
					c-1,0.7-1.9,1.4-2.8,2.2c-0.6,0.6-1.2,1.3-1.6,2c-0.6,1-0.9,2.2-1.2,3.3c-0.3,1.6-0.5,3.2-0.3,4.9c-1.7,5.1-2.9,11.1-4,16.4
					c-3.1,15.4-5.6,31.6-6.7,47.2c-0.9,12.2-0.9,33.2-1.7,45.3c-0.5,9.3-1.6,19.8-2.7,29.1c-1.9,14.6-4.1,29.9-7.9,44.1
					c-0.4,1.6-0.8,3.2-0.8,4.8c0,0.9,0.1,1.8,0.7,2.5c0.7,0.8,1.8,1.1,2.9,1.3c0.8,0.1,1.6,0.2,2.4,0.2c2.4,0.1,6-0.3,8.4-0.5
					c1.1-0.1,2.3-0.2,3.5-0.1c0.9,0.1,1.8,0.3,2.6,0.7c1.6,0.8,3.4,2.1,5,2.9c0.5,0.3,1,0.5,1.6,0.7c0.4,0.1,0.8,0.2,1.2,0.1
					c0.4-0.1,0.7-0.3,0.9-0.5c2.1,1,4.4,1.6,6.6,2c0.2,3.6,0.4,7.5,0.2,11.1c-0.1,0.8-0.1,1.6-0.4,2.3c-0.1,0.4-0.3,0.8-0.6,1.2
					c-0.5,0.6-1.2,1.1-1.9,1.5c-1,0.6-3.8,1.8-4.9,2.3c-0.6,0.3-1.2,0.6-1.8,1c-0.3,0.2-0.6,0.4-0.8,0.7c-0.2,0.3-0.3,0.6-0.3,0.9
					c-0.1,0.4-0.1,0.7,0,1.1c0,0.6,0.1,1.1,0.3,1.6c0.1,0.3,0.2,0.6,0.5,0.7c0.2,0.2,0.5,0.2,0.7,0.3c0.2,0,0.4,0,0.5,0l19,0h0.1
					l0.1,0l0.1,0l0.1,0c0.2,0,0.4,0,0.6-0.1c0.2-0.1,0.3-0.2,0.4-0.4c0.2-0.2,0.3-0.5,0.4-0.8c0.1-0.4,0.2-0.9,0.3-1.4
					c0.1-0.8,0.1-1.7,0-2.5c-0.1-0.8-0.3-1.5-0.6-2.3c-0.3-1-0.9-2.5-1.1-3.4c-0.1-0.4-0.2-0.9-0.2-1.4c-0.1-0.8,0-1.7,0.1-2.5
					c0.3-3.3,1.1-7.2,1.7-10.5c0.8-0.2,2.1-0.7,2.9-0.9c0.8-0.3,2.2-0.7,3-1.1c0.7-0.3,1.3-0.6,1.9-1c0.4-0.3,0.8-0.6,1.1-0.9
					c0.4-0.5,0.6-1,0.7-1.6c0.2-1.2,0-2.6,0-3.8c-0.1-2.4,0-5,0.2-7.4l0.5-5.9c2.5,0.7,8.8,2.5,11.2,3c0.3,4.3,0.6,10.6,1.1,14.8
					c0.1,0.5,0.2,1.1,0.3,1.6c0.1,0.3,0.2,0.5,0.4,0.8c0.2,0.2,0.4,0.3,0.6,0.4c0.2,0.1,0.3,0.1,0.5,0.2c0.6,0.2,1.3,0.3,1.9,0.5
					c0.3,2.4,0.5,5,0.5,7.4c0,1.5,0,3.1-0.2,4.5c-0.2,1.7-0.7,3.4-1.4,5.1l-0.9,2.1c-0.4,0.9-0.6,1.8-0.5,2.8
					c0.1,0.7,0.3,1.4,0.6,2.1c0.3,0.7,0.7,1.3,1.2,1.9c0.2,0.2,0.5,0.4,0.8,0.5c0.3,0.1,0.5,0.1,0.8,0.2c0.2,0,0.4,0,0.6,0
					c0.2,0,36.6,0,36.8,0c0.1,0,0.2,0,0.3,0c0.2,0,0.3-0.1,0.4-0.2c0.1-0.2,0.2-0.4,0.3-0.6c0.2-0.8,0.2-1.6,0.1-2.3
					c0-0.4-0.1-0.8-0.2-1.1c-0.1-0.3-0.2-0.5-0.4-0.7c-0.2-0.3-0.5-0.5-0.9-0.6c-0.4-0.1-0.8-0.2-1.2-0.3c-0.5-0.1-1.2-0.1-1.8-0.1
					c-1.7,0-4-0.1-5.7-0.3c-3.1-0.3-6.2-0.8-9.3-1.5c-1.1-0.3-2.3-0.6-3.3-1c-0.8-0.3-1.5-0.6-2.2-1.1c-0.6-0.4-1.2-0.9-1.6-1.5
					c-0.3-0.4-0.4-0.9-0.6-1.3c-0.2-0.5-0.3-1-0.4-1.6c-0.2-1.1-0.2-2.2-0.1-3.3c0.1-2.8,0.6-5.7,1.1-8.5c2.8-0.4,5.6-0.9,8.2-1.9
					c0.5-0.2,1.4-0.5,1.8-0.7c0.3-0.1,0.5-0.3,0.7-0.6c0.3-0.4,0.4-0.8,0.5-1.3c0.2-0.8,0.2-1.6,0.2-2.4c0-3.4-0.4-7.1-0.7-10.5
					l6.9,1.7c-0.2,1.3-0.5,2.7-0.8,4l-1,3.8c-0.1,0.6-0.3,1.1-0.3,1.7c0,0.2,0,0.3,0,0.5l0,0l0,0l0,0l0,0l0,0l0,0l0,0l0,0l0,0l0,0
					l0,0l0,0l0,0l0,0l0,0l0,0l0,0l0,0l0,0l0,0l0,0l0,0l0,0l0,0l0,0l0,0l0,0l0,0l0,0l0,0l0,0l0,0l0,0l0,0l0,0l0,0l0,0l0,0l0,0l0,0
					l0,0l0,0l0,0l0,0l0,0l0,0l0,0l0,0l0,0c0.2,0,0.5-0.1,0.7-0.2c0.3-0.1,0.6-0.3,0.9-0.5c0.7-0.4,2.8-1.7,3.5-2.2
					c3.6-2.3,7.7-3.7,11.8-5c0.6-0.2,1.2-0.4,1.7-0.7c0.3-0.2,0.7-0.5,0.9-0.8c0.3-0.4,0.4-0.9,0.4-1.4c0-1.1-0.2-2.2-0.5-3.2
					c-0.7-2.8-1.9-6.7-2.5-9.4c-1.6-6.9-2.7-14.2-3.6-21.2c-1.6-12.5-2.6-25.3-2.3-37.9c0-2.7,0.2-7.4,0.3-10.2
					c0.1-2.9,0.4-5.8,0.9-8.7c0.7-3.6,2.1-7.5,3-11.1c0.7-2.7,1.1-5.4,1-8.1c-0.2-5.3-2.1-10.9-3.2-16c-0.3-1.7-0.6-3.5-0.7-5.3
					c-0.2-4,0.5-8.4,0-12.3c-0.6-4.4-3.1-8.4-5-12.2c-0.7-1.4-1.4-2.8-1.9-4.3c-0.3-0.8-0.4-1.7-0.6-2.6c-0.3-2.5-0.3-5.3-0.9-7.8
					c-0.7-3-2.1-5.9-3.6-8.7c-1-1.8-2.1-3.8-3.2-5.5c-0.4-0.6-0.8-1.2-1.2-1.8c-0.4-0.5-0.8-1-1.4-1.4c-0.5-0.4-1.1-0.8-1.7-1
					c0-0.4,0-0.9-0.1-1.3c0-0.3-0.2-0.6-0.3-0.9c-0.3-0.5-0.7-0.9-1.1-1.3c-1-0.9-2.2-1.8-3.4-2.6
					C318.2,567.3,314.5,565.1,312.2,562.8z"/>
				<g>
					<path class="st2" d="M315.3,565.4c-1.1-0.8-2.2-1.7-3.1-2.5c0.5,0,1,0,1.5-0.2c0.4-0.1,0.8-0.3,1.1-0.6
						c0.3-0.2,0.5-0.5,0.7-0.8c0,0,0-0.1,0-0.1"/>
					<path class="st14" d="M315.2,553.5c0-0.1,0.1-0.3,0.1-0.4c0,0,0.1-0.1,0.1-0.1c0.2,0,0.4,0.1,0.6,0.1c0.3,0.1,0.6,0.1,0.9,0.1
						c0.2,0,0.4,0,0.5,0c0.1,0,0.2,0,0.3-0.1l0,0l0,0l0,0l0,0l0,0l0,0l0,0l0,0l0,0l0,0l0,0l0,0l0,0l0,0l0,0l0,0l0,0l0,0l0,0l0,0l0,0
						l0,0l0,0l0,0l0,0l0,0l0,0l0,0l0,0l0,0v0v0v0v0v0v0c0-0.1,0-0.2-0.1-0.2c-0.2-0.4-0.7-0.9-1-1.3c-0.5-0.6-1-1.4-1.2-2.2
						c-0.4-1.3-0.3-2.7,0-4c0.1-0.7,0.4-1.4,0.6-2c0.2-0.4,0.3-0.9,0.4-1.3c0.2-0.8,0.2-1.6,0-2.5c-0.1-0.4-0.3-0.7-0.5-1
						c-0.4-0.6-1-1.3-1.4-1.9c-0.1-0.2-0.1-0.4-0.2-0.6c0-0.2,0-0.5,0.1-0.7c0.2-0.6,0.5-1.3,0.6-1.9c0.2-1.1,0-2.4-0.7-3.3
						c-0.5-0.6-1.2-1-1.7-1.5c-0.2-0.2-0.3-0.4-0.4-0.6c-0.2-0.5-0.2-1.2-0.4-1.7c-0.1-0.2-0.2-0.4-0.4-0.5
						c-0.3-0.3-0.8-0.7-1.1-1.1c-0.5-0.6-0.6-1.4-0.9-2.1c-0.2-0.4-0.3-0.9-0.6-1.3c-0.5-0.6-1.2-0.9-1.9-1.3
						c-0.4-0.2-0.7-0.4-0.9-0.7l-0.4-0.4c-0.5-0.5-1.2-1-1.9-1.3c-0.8-0.4-1.7-0.7-2.6-0.8c-1-0.1-2.2,0-3.2,0
						c-0.4,0-0.7-0.1-1.1-0.2l-0.6-0.2c-1-0.4-2.1-0.6-3.2-0.8c-0.7-0.1-1.4-0.1-2.1-0.1c-0.6,0-1.1,0.2-1.7,0.4
						c-1.3,0.5-2.3,1.6-3.4,2.3c-0.8,0.5-1.8,1-2.6,1.5c-0.4,0.3-0.8,0.6-1.1,0.9c-0.7,0.8-0.8,1.8-1,2.8c-0.1,0.5-0.2,1-0.5,1.5
						c-0.3,0.5-0.6,0.9-1,1.2c-0.8,0.7-1.7,1.5-2.3,2.3c-0.4,0.5-0.7,1.1-0.8,1.8c-0.1,0.7,0,1.5,0.1,2.2c0,0.4,0.1,0.9,0,1.3
						c0,0.3-0.1,0.6-0.3,0.9c-0.4,0.9-1.3,1.8-1.9,2.6c-0.2,0.2-0.3,0.4-0.4,0.7c-0.1,0.1-0.1,0.3-0.1,0.5c0,0.2,0,0.3,0.1,0.5
						c0.2,0.5,0.6,1,0.9,1.5c0.4,0.7,0.8,1.4,0.9,2.3c0.1,0.5,0,0.9-0.2,1.3c-0.2,0.5-0.6,1-0.9,1.4c-0.4,0.5-1.1,1.1-1.6,1.6
						c-0.1,0.1-0.1,0.2-0.2,0.3l0,0l0,0l0,0l0,0l0,0l0,0l0,0l0,0l0,0l0,0v0v0c0,0.1,0.1,0.2,0.1,0.2c0.2,0.1,0.5,0.2,0.7,0.2
						c0.3,0,0.6,0,0.9,0c0.3,0,0.8-0.1,1.1-0.1c0.2,0,0.5,0,0.6,0.2l0,0l0,0l0,0l0,0c0.1,0.2,0,0.4,0,0.6c-0.1,0.6-0.5,1.1-0.9,1.5
						c-0.2,0.2-0.5,0.5-0.7,0.6c-0.2,0.1-0.4,0.2-0.7,0.3c-0.4,0.1-0.9,0.2-1.3,0.2c-0.2,0-0.3,0-0.5,0.1c-0.1,0-0.2,0.1-0.2,0.1
						l0,0l0,0l0,0l0,0l0,0l0,0l0,0l0,0l0,0l0,0l0,0l0,0l0,0l0,0l0,0l0,0l0,0l0,0l0,0l0,0l0,0l0,0l0,0l0,0l0,0l0,0l0,0l0,0l0,0l0,0
						l0,0l0,0l0,0l0,0l0,0c0,0.2,0.1,0.3,0.1,0.5c0.2,0.5,0.6,0.8,0.9,1.2c0.4,0.5,0.9,0.9,1.4,1.3c0.5,0.4,1.3,0.9,1.8,1.3
						c0.1,0.1,0.3,0.3,0.4,0.4l0,0l0,0l0,0l0,0l0,0l0,0l0,0l0,0l0,0l0,0l0,0l0,0l0,0l0,0l0,0l0,0l0,0v0v0v0v0l0,0l0,0l0,0l0,0l0,0
						l0,0l0,0l0,0l0,0l0,0l0,0l0,0l0,0l0,0l0,0l0,0l0,0l0,0l0,0l0,0l0,0l0,0l0,0l0,0l0,0l0,0l0,0l0,0l0,0l0,0c0,0-0.1,0.1-0.2,0.1
						c-0.1,0-0.3,0.1-0.5,0.1c-0.5,0.1-1.2,0.1-1.6,0.3c-0.1,0-0.2,0.1-0.2,0.1l0,0l0,0l0,0l0,0l0,0l0,0l0,0l0,0l0,0l0,0l0,0l0,0
						l0,0l0,0l0,0l0,0l0,0l0,0l0,0l0,0l0,0l0,0l0,0l0,0l0,0l0,0l0,0l0,0l0,0l0,0l0,0l0,0l0,0l0,0l0,0l0,0l0,0l0,0
						c0,0.1,0.1,0.3,0.1,0.4c0.2,0.3,0.4,0.5,0.6,0.7"/>
					<path class="st2" d="M278.5,560.7L278.5,560.7L278.5,560.7c-0.1,0.1-0.1,0.1-0.2,0.2c-0.4,0.2-1,0.4-1.4,0.6
						c-0.2,0.1-0.4,0.2-0.6,0.3c-0.1,0-0.1,0.1-0.2,0.2l0,0l0,0l0,0l0,0l0,0l0,0l0,0l0,0l0,0l0,0l0,0c0,0.1,0,0.2,0,0.2
						c0.1,0.1,0.2,0.1,0.2,0.2c0.2,0.1,0.4,0.2,0.6,0.3c-0.7,0.3-2,1-2.7,1.4c-0.3,0.1-0.5,0.3-0.8,0.5"/>
					<path class="st15" d="M266.5,568.4c-1.7,1-3.3,1.9-4.4,2.5c-1,0.6-2,1.2-2.9,1.8c-1,0.7-1.9,1.4-2.8,2.2
						c-0.6,0.6-1.2,1.3-1.6,2c-0.6,1-0.9,2.2-1.2,3.3c-0.3,1.6-0.5,3.2-0.3,4.9c-1.7,5.1-2.9,11.1-4,16.4
						c-3.1,15.4-5.6,31.6-6.7,47.2c-0.9,12.2-0.9,33.2-1.7,45.3c-0.5,9.3-1.6,19.8-2.7,29.1c-1.9,14.6-4.1,29.9-7.9,44.1
						c-0.4,1.6-0.8,3.2-0.8,4.8c0,0.9,0.1,1.8,0.7,2.5c0.7,0.8,1.8,1.1,2.9,1.3c0.8,0.1,1.6,0.2,2.4,0.2c2.4,0.1,6-0.3,8.4-0.5
						c1.1-0.1,2.3-0.2,3.5-0.1c0.9,0.1,1.8,0.3,2.6,0.7c0.5,0.2,1,0.5,1.5,0.8"/>
					<path class="st2" d="M254.8,779.2C254.8,779.2,254.8,779.2,254.8,779.2c0.5,0.3,1,0.5,1.6,0.7c0.4,0.1,0.8,0.2,1.2,0.1
						c0.4-0.1,0.7-0.3,0.9-0.5c2.1,1,4.4,1.6,6.6,2c0.1,1.3,0.1,2.6,0.2,4"/>
					<path class="st16" d="M265.3,793.2c-0.1,0.6-0.1,1.2-0.3,1.7c-0.1,0.4-0.3,0.8-0.6,1.2c-0.5,0.6-1.2,1.1-1.9,1.5
						c-1,0.6-3.8,1.8-4.9,2.3c-0.6,0.3-1.2,0.6-1.8,1c-0.3,0.2-0.6,0.4-0.8,0.7c-0.2,0.3-0.3,0.6-0.3,0.9c-0.1,0.4-0.1,0.7,0,1.1
						c0,0.6,0.1,1.1,0.3,1.6c0.1,0.3,0.2,0.6,0.5,0.7c0.2,0.2,0.5,0.2,0.7,0.3c0.2,0,0.4,0,0.5,0l19,0h0.1l0.1,0l0.1,0l0.1,0
						c0.2,0,0.4,0,0.6-0.1c0.2-0.1,0.3-0.2,0.4-0.4c0.2-0.2,0.3-0.5,0.4-0.8c0.1-0.4,0.2-0.9,0.3-1.4c0.1-0.8,0.1-1.7,0-2.5
						c-0.1-0.8-0.3-1.5-0.6-2.3c-0.3-1-0.9-2.5-1.1-3.4c-0.1-0.4-0.2-0.9-0.2-1.4c-0.1-0.8,0-1.7,0.1-2.5c0.1-0.9,0.2-1.8,0.3-2.7"
						/>
					<path class="st2" d="M277,785.1c0.2-1.3,0.5-2.7,0.7-3.9c0.8-0.2,2.1-0.7,2.9-0.9c0.3-0.1,0.6-0.2,0.9-0.3"/>
					<path class="st17" d="M287.1,776.2c0.1-0.2,0.1-0.4,0.1-0.6c0.2-1.2,0-2.6,0-3.8c-0.1-1.9,0-3.9,0.1-5.9"/>
					<path class="st2" d="M287.6,762.5l0.3-4c0.9,0.2,2.3,0.6,3.9,1.1"/>
					<path class="st2" d="M295.2,760.5c1.6,0.4,3,0.8,3.9,1c0.1,1.2,0.2,2.6,0.2,4"/>
					<path class="st18" d="M299.6,769.6c0.1,2.2,0.3,4.4,0.5,6.2"/>
					<path class="st2" d="M300.5,777.9c0.1,0.3,0.2,0.5,0.4,0.7c0.2,0.2,0.4,0.3,0.6,0.4c0.2,0.1,0.3,0.1,0.5,0.2
						c0.6,0.2,1.3,0.3,1.9,0.5c0.1,1.3,0.3,2.6,0.4,4"/>
					<path class="st19" d="M304.2,791.8c-0.2,1.7-0.7,3.3-1.4,4.9l-0.9,2.1c-0.4,0.9-0.6,1.8-0.5,2.8c0.1,0.7,0.3,1.4,0.6,2.1
						c0.3,0.7,0.7,1.3,1.2,1.9c0.2,0.2,0.5,0.4,0.8,0.5c0.3,0.1,0.5,0.1,0.8,0.2c0.2,0,0.4,0,0.6,0c0.2,0,36.6,0,36.8,0
						c0.1,0,0.2,0,0.3,0c0.2,0,0.3-0.1,0.4-0.2c0.1-0.2,0.2-0.4,0.3-0.6c0.2-0.8,0.2-1.6,0.1-2.3c0-0.4-0.1-0.8-0.2-1.1
						c-0.1-0.3-0.2-0.5-0.4-0.7c-0.2-0.3-0.5-0.5-0.9-0.6c-0.4-0.1-0.8-0.2-1.2-0.3c-0.5-0.1-1.2-0.1-1.8-0.1c-1.7,0-4-0.1-5.7-0.3
						c-3.1-0.3-6.2-0.8-9.3-1.5c-1.1-0.3-2.3-0.6-3.3-1c-0.8-0.3-1.5-0.6-2.2-1.1c-0.6-0.4-1.2-0.9-1.6-1.5
						c-0.3-0.4-0.4-0.9-0.6-1.3c-0.2-0.5-0.3-1-0.4-1.6c-0.2-1.1-0.2-2.2-0.1-3.3c0-0.2,0-0.3,0-0.5"/>
					<path class="st2" d="M316.3,784.1c0.2-1.3,0.4-2.7,0.6-4c1.3-0.2,2.6-0.4,3.9-0.7"/>
					<path class="st20" d="M326.4,777.7c0.2-0.1,0.4-0.1,0.5-0.2c0.3-0.1,0.5-0.3,0.7-0.6c0.3-0.4,0.4-0.8,0.5-1.3
						c0.2-0.8,0.2-1.6,0.2-2.4c0-1.2,0-2.4-0.1-3.6"/>
					<path class="st2" d="M328,766.7c-0.1-1.4-0.2-2.7-0.4-4l6.9,1.7c-0.2,1.3-0.5,2.7-0.8,3.9"/>
					<path class="st21" d="M334.2,774.4c0.1-0.1,0.2-0.1,0.3-0.2c0.7-0.4,2.8-1.7,3.5-2.2c3.6-2.3,7.7-3.7,11.8-5
						c0.6-0.2,1.2-0.4,1.7-0.7c0.3-0.2,0.7-0.5,0.9-0.8c0.3-0.4,0.4-0.9,0.4-1.4c0-1.1-0.2-2.2-0.5-3.2c-0.7-2.8-1.9-6.7-2.5-9.4
						c-1.6-6.9-2.7-14.2-3.6-21.2c-1.6-12.5-2.6-25.3-2.3-37.9c0-2.7,0.2-7.4,0.3-10.2c0.1-2.9,0.4-5.8,0.9-8.7
						c0.7-3.6,2.1-7.5,3-11.1c0.7-2.7,1.1-5.4,1-8.1c-0.2-5.3-2.1-10.9-3.2-16c-0.3-1.7-0.6-3.5-0.7-5.3c-0.2-4,0.5-8.4,0-12.3
						c-0.6-4.4-3.1-8.4-5-12.2c-0.7-1.4-1.4-2.8-1.9-4.3c-0.3-0.8-0.4-1.7-0.6-2.6c-0.3-2.5-0.3-5.3-0.9-7.8c-0.7-3-2.1-5.9-3.6-8.7
						c-0.7-1.2-1.4-2.6-2.2-3.8"/>
					<path class="st2" d="M328.9,577.7c-0.4-0.5-0.8-1-1.3-1.4c-0.5-0.4-1.1-0.8-1.7-1c0-0.4,0-0.9-0.1-1.3c0-0.3-0.2-0.6-0.3-0.9
						c-0.3-0.5-0.7-0.9-1.1-1.3"/>
				</g>
			</g>
		</g>
		<g id="POLYLINE_00000042000569218250324080000015988547015936051096_">
			<g>
				<path class="st4" d="M675.5,565.5c0.3-0.6,0.7-1.3,1.1-1.8c0.2-0.2,0.4-0.4,0.5-0.6c0-0.1,0.1-0.2,0-0.3c0-0.2-0.1-0.4-0.1-0.6
					c-0.1-0.4-0.3-1-0.4-1.4c0-0.2,0-0.3,0-0.5c0.1-0.3,0.2-0.5,0.4-0.7c0.2-0.2,0.4-0.4,0.5-0.6c0.1-0.2,0.1-0.3,0.1-0.5
					c0-0.2,0-0.4-0.1-0.6c-0.2-0.7-0.5-1.4-0.6-2.1c-0.1-0.4-0.2-0.8,0-1.3c0.1-0.5,0.6-0.9,1-1.2c0.2-0.2,0.4-0.4,0.5-0.6
					c0.2-0.4,0.2-0.8,0.1-1.3c-0.2-0.9-0.9-1.7-1.2-2.6c-0.1-0.3-0.2-0.7-0.2-1.1c0-0.3,0.2-0.5,0.3-0.7c0.3-0.4,0.6-0.8,0.8-1.2
					c0.2-0.5-0.1-1-0.3-1.4c-0.7-0.9-1.6-1.8-2.3-2.7c-0.3-0.5-0.6-1-0.7-1.5c-0.1-0.6-0.1-1.1,0-1.7c0.1-0.7,0.3-1.5,0.3-2.2
					c0-0.4-0.1-0.7-0.2-1.1c-0.5-1.4-1.6-2.6-2.4-3.8c-0.2-0.4-0.4-0.7-0.6-1.1c-0.3-0.6-0.5-1.4-0.7-2c-0.2-0.5-0.4-1-0.7-1.5
					c-0.4-0.5-0.9-0.8-1.5-1.2l-1.3-0.7c-0.6-0.3-1.1-0.7-1.6-1.1c-0.6-0.6-1.3-1.3-2.1-1.7c-0.4-0.2-0.9-0.3-1.4-0.3
					c-0.8-0.1-1.9-0.1-2.7-0.2c-0.5-0.1-0.9-0.2-1.4-0.3c-0.6-0.2-1.3-0.5-1.9-0.7c-0.3-0.1-0.7-0.2-1.1-0.2c-0.6,0-1.3,0.2-1.9,0.4
					c-0.5,0.1-0.9,0.2-1.4,0.2c-1.2,0-2.5-0.3-3.8-0.1c-0.5,0.1-1,0.3-1.5,0.6c-0.6,0.4-1.2,1-1.8,1.4c-0.4,0.3-0.8,0.5-1.3,0.8
					c-0.6,0.3-1.6,0.6-2.2,0.9c-0.3,0.2-0.6,0.3-0.9,0.6c-0.4,0.3-0.6,0.8-0.8,1.2l-0.5,0.9c-0.2,0.5-0.6,1-0.9,1.4l-0.9,1.1
					c-0.5,0.6-0.9,1.2-1,1.9c-0.2,0.8-0.1,1.7-0.1,2.5c0,0.5,0,1.1-0.1,1.6c-0.2,0.8-0.5,1.6-0.9,2.3c-0.7,1.1-1.8,1.9-2.6,2.9
					c-0.7,0.9-1,2.1-0.9,3.2c0.1,0.9,0.4,1.8,0.7,2.6c0.2,0.6,0.3,1.2,0.4,1.8c0,0.8-0.1,1.6-0.4,2.4c-0.2,0.6-0.5,1.1-0.9,1.6
					c-0.5,0.6-1.2,1.2-1.4,1.9c-0.2,0.5-0.2,1-0.1,1.4c0.2,1.4,1.3,2.4,1.4,3.8c0,1.1-0.5,2.1-1.2,2.8c-0.6,0.7-1.5,1.2-2.2,1.7
					c-0.2,0.1-0.4,0.3-0.5,0.4c0,0-0.1,0.1-0.1,0.2l0,0l0,0l0,0l0,0l0,0l0,0l0,0l0,0l0,0l0,0l0,0l0,0l0,0l0,0l0,0v0v0v0v0l0,0l0,0
					l0,0l0,0l0,0l0,0l0,0l0,0l0,0l0,0l0,0l0,0l0,0l0,0l0,0l0,0l0,0l0,0l0,0l0,0l0,0l0,0l0,0l0,0l0,0l0,0l0,0l0,0l0,0l0,0l0,0
					c0.1,0.1,0.3,0.2,0.4,0.2c0.3,0.1,0.7,0.2,1.1,0.2c0.8,0.1,1.7,0,2.5-0.1c0.5-0.1,1-0.3,1.4-0.4l0.9-0.4c-0.5,0.9-1,1.8-1.5,2.6
					c-0.1,0-0.3,0.1-0.4,0.2c-0.6,0.3-1.3,0.7-1.9,0.9c-0.7,0.2-1.4,0.3-2.1,0.4l-2.5,0.2c-1,0.1-2,0.2-3,0.6
					c-0.5,0.2-1,0.5-1.5,0.9c-0.6,0.5-1.1,1.2-1.6,1.9c-0.6,0.9-1.1,1.8-1.5,2.8c-0.8,2-1,4.2-0.9,6.4c-1.3,2.4-2.2,5.1-2.8,7.8
					c-1.3,5.4-2,13.4-2.8,18.9c-0.6,3.9-1.4,8-2.4,11.8c-2,7.1-5.7,17.4-7.7,24.4c-1.8,6.3-3.3,12.9-4.5,19.3
					c-0.7,3.8-1.3,7.9-1.6,11.8c-0.3,3.6-0.5,7.4-0.5,11c-0.1,4.5,0.1,13.3,0.1,17.7c0,3.2-0.2,7.7-0.4,11
					c-0.5,9.5-1.8,19.1-3.8,28.4l-3,13.4c0,0.2-0.1,0.5-0.1,0.7c-0.1,0.5-0.2,1.1-0.2,1.6c0,0.4,0,0.8,0.2,1.1
					c0.2,0.4,0.5,0.6,0.9,0.7c0.3,0.1,0.6,0.2,0.8,0.2c0.8,0.2,1.8,0.3,2.5,0.5c3.7,0.6,7.6,1.1,11.3,1.4c0.8,0.1,1.6,0.1,2.4,0.1
					c0.4,0,0.9-0.1,1.3-0.3c0.2-0.1,0.4-0.3,0.5-0.5c0.4,6.2,0.5,12.6,0.2,18.9c-0.2,3-0.4,6.2-0.8,9.2c-0.1,0.8-0.3,1.5-0.5,2.2
					c-0.3,1-0.7,2-1.2,2.9c-0.4,0.8-0.9,1.6-1.5,2.2c-0.5,0.5-1,0.9-1.6,1.3l-1.3,0.8c-0.5,0.3-1,0.7-1.3,1.2
					c-0.4,0.5-0.5,1.2-0.6,1.8c-0.1,0.6-0.1,1.3-0.1,1.9c0,0.3,0.1,0.6,0.2,0.9c0.1,0.1,0.2,0.3,0.3,0.4c0.1,0.1,0.3,0.1,0.4,0.2
					c0.1,0,0.3,0,0.4,0c0,0,19,0,19.1,0l0.1,0c0.1,0,0.1,0,0.2,0c0.2,0,0.4,0,0.5-0.1c0.3-0.1,0.5-0.3,0.7-0.5
					c0.2-0.3,0.4-0.7,0.5-1.1c0.1-0.4,0.2-0.9,0.2-1.3c0-1-0.4-2-0.8-2.9c-0.4-0.8-0.8-1.8-1-2.6c-0.2-0.8-0.4-1.7-0.5-2.6
					c-0.2-1.8-0.1-3.7,0.1-5.5c0.2-2.1,0.6-4.2,1.2-6.3c0.6-2,1.5-4,2.5-5.9c1.1-2.1,2.7-4.6,3.7-6.7c1.2-2.7,1.7-5.6,2-8.5
					c0.8,0.1,1.7,0,2.4-0.4c0.6-0.3,1-0.8,1.3-1.3c0.5-0.8,0.8-1.7,1.1-2.5c4.3-0.4,9.5-0.8,13.8-1.4c2.3-0.3,4.8-0.7,7.1-1.3
					c2-0.5,4.6-1.4,6.6-2c1-0.3,2-0.6,3.1-0.7c0.6-0.1,1.2-0.1,1.8,0c0.8,0.1,1.6,0.2,2.3,0.4c1.2,0.3,3.3,0.9,4.5,1.2
					c0.6,0.1,1.3,0.2,2,0.3c2.2,0.2,4.5,0.1,6.8,0c3.4-0.2,7.1-0.7,10.4-1.2c0.2,1.5,0.6,3.2,2,4.1c-0.2,3.1,0.2,6.2,0.9,9.2
					c0.8,3.8,2.4,8.1,3,11.9c0.5,3.3,0.7,6.6,0.4,9.9c-0.2,2-0.5,4.1-0.9,6.1c-0.3,1.6-1.1,4.2-1.4,5.8c-0.2,0.8-0.3,1.7-0.2,2.5
					c0.1,0.7,0.3,1.4,0.7,2c0.2,0.4,0.6,0.8,0.9,1c0.7,0.4,1.5,0.4,2.3,0.5l34.2,0c0.1,0,0.3,0,0.4,0c0.1,0,0.3,0,0.4-0.1
					c0.2-0.1,0.5-0.2,0.6-0.4c0.2-0.3,0.4-0.7,0.5-1c0.2-0.6,0.2-1.3,0.2-2c0-0.5-0.1-1.1-0.3-1.5c-0.2-0.3-0.4-0.6-0.6-0.8
					c-0.4-0.4-0.9-0.6-1.4-0.8c-1.7-0.6-4.4-1-6.2-1.4c-2.9-0.6-5.7-1.4-8.4-2.6c-2-0.9-4-2.1-5.7-3.5c-1-0.9-2-2-2.6-3.2
					c-0.4-0.7-0.6-1.5-0.7-2.3c-0.1-0.9,0-1.9,0.1-2.8c0.7-5.7,4.8-21.7,6-27.5c1.1,0,2.3,0,3.3-0.2c0.7-0.1,1.4-0.4,1.8-0.9
					c0.2-0.3,0.3-0.6,0.4-1c0.1-0.7,0.1-1.4,0.1-2.1c2,0.1,4.1,0.1,6.1,0c1.6-0.1,3.2-0.3,4.6-1c0.7-0.3,1.3-0.8,1.8-1.4
					c0.3-0.5,0.5-1,0.6-1.6c0.2-0.7,0.2-1.5,0.1-2.3c-0.1-2.6-1.2-7.7-1.7-10.3c-0.5-3.1-0.9-6.3-1.1-9.4
					c-0.8-11.1-0.6-25.2-1.5-36.3c-0.4-4.8-1-9.7-1.9-14.4c-0.7-3.7-1.7-7.9-2.7-11.5c-1.2-4.6-7.2-24.4-8.7-29.2
					c-1.7-5.6-3.8-11.8-5.9-17.2c-2.8-7.4-6.3-15.3-9.7-22.4l9.4-29.2c1.2-4.1,2.8-8.9,3.5-13c0-0.2,0.1-0.5,0.1-0.7
					c0-0.1,0-0.1,0-0.2l0,0l0,0l0,0l0,0l0,0l0,0l0,0l0,0l0,0l0,0l0,0l0,0l0,0l0,0l0,0l0,0l0,0l0,0l0,0l0,0l0,0l0,0l0,0l0,0l0,0l0,0
					l0,0l0,0l0,0l0,0l0,0l0,0l0,0l0,0l0,0h0h0h0h0h0h0l0,0l0,0l0,0l0,0l0,0l0,0l0,0l0,0l0,0l0,0l0,0l0,0l0,0l0,0
					c-0.1,0.1-0.2,0.2-0.3,0.3c-0.8,1-1.5,2.1-2.1,3.1c-2.5,4.2-4.5,8.7-6.3,13.2c-2.3,5.8-5.1,14.4-7.1,20.3
					c-1.3-2.5-2.7-5.1-4.3-7.4c-1-1.5-2.2-2.9-3.6-4.1c-2.1-1.7-4.6-2.7-7.2-3.5c0.1-0.4,0.3-0.9,0.3-1.4c0-0.3,0-0.6-0.2-0.8
					c-0.1-0.2-0.3-0.4-0.5-0.5c-0.9-0.6-2.2-1.1-3.2-1.5c-0.6-0.3-1.2-0.6-1.7-1.1c-0.5-0.5-0.8-1.2-1.2-1.8
					C676.4,566.1,676,565.8,675.5,565.5z"/>
				<g>
					<path class="st2" d="M678.1,568.6c-0.1-0.1-0.2-0.2-0.3-0.2c-0.5-0.5-0.8-1.2-1.2-1.8c-0.3-0.4-0.7-0.8-1.1-1
						c0.3-0.6,0.7-1.3,1.1-1.8c0.2-0.2,0.4-0.4,0.5-0.6c0-0.1,0.1-0.2,0-0.3c0-0.2-0.1-0.4-0.1-0.6c0,0,0-0.1,0-0.1"/>
					<path class="st22" d="M677.1,554.5c0.2-0.5,0.6-0.8,0.9-1.2c0.2-0.2,0.4-0.4,0.5-0.6c0.2-0.4,0.2-0.8,0.1-1.3
						c-0.2-0.9-0.9-1.7-1.2-2.6c-0.1-0.3-0.2-0.7-0.2-1.1c0-0.3,0.2-0.5,0.3-0.7c0.3-0.4,0.6-0.8,0.8-1.2c0.2-0.5-0.1-1-0.3-1.4
						c-0.7-0.9-1.6-1.8-2.3-2.7c-0.3-0.5-0.6-1-0.7-1.5c-0.1-0.6-0.1-1.1,0-1.7c0.1-0.7,0.3-1.5,0.3-2.2c0-0.4-0.1-0.7-0.2-1.1
						c-0.5-1.4-1.6-2.6-2.4-3.8c-0.2-0.4-0.4-0.7-0.6-1.1c-0.3-0.6-0.5-1.4-0.7-2c-0.2-0.5-0.4-1-0.7-1.5c-0.4-0.5-0.9-0.8-1.5-1.2
						l-1.3-0.7c-0.6-0.3-1.1-0.7-1.6-1.1c-0.6-0.6-1.3-1.3-2.1-1.7c-0.4-0.2-0.9-0.3-1.4-0.3c-0.8-0.1-1.9-0.1-2.7-0.2
						c-0.5-0.1-0.9-0.2-1.4-0.3c-0.6-0.2-1.3-0.5-1.9-0.7c-0.3-0.1-0.7-0.2-1.1-0.2c-0.6,0-1.3,0.2-1.9,0.4
						c-0.5,0.1-0.9,0.2-1.4,0.2c-1.2,0-2.5-0.3-3.8-0.1c-0.5,0.1-1,0.3-1.5,0.6c-0.6,0.4-1.2,1-1.8,1.4c-0.4,0.3-0.8,0.5-1.3,0.8
						c-0.6,0.3-1.6,0.6-2.2,0.9c-0.3,0.2-0.6,0.3-0.9,0.6c-0.4,0.3-0.6,0.8-0.8,1.2l-0.5,0.9c-0.2,0.5-0.6,1-0.9,1.4l-0.9,1.1
						c-0.5,0.6-0.9,1.2-1,1.9c-0.2,0.8-0.1,1.7-0.1,2.5c0,0.5,0,1.1-0.1,1.6c-0.2,0.8-0.5,1.6-0.9,2.3c-0.7,1.1-1.8,1.9-2.6,2.9
						c-0.7,0.9-1,2.1-0.9,3.2c0.1,0.9,0.4,1.8,0.7,2.6c0.2,0.6,0.3,1.2,0.4,1.8c0,0.8-0.1,1.6-0.4,2.4c-0.2,0.6-0.5,1.1-0.9,1.6
						c-0.5,0.6-1.2,1.2-1.4,1.9c-0.2,0.5-0.2,1-0.1,1.4c0.2,1.4,1.3,2.4,1.4,3.8c0,1.1-0.5,2.1-1.2,2.8c-0.5,0.6-1.3,1.1-2,1.6"/>
					<path class="st2" d="M630.4,565.5c0.5,0,1-0.1,1.6-0.2c0.5-0.1,1-0.3,1.4-0.4l0.9-0.4c-0.5,0.9-1,1.8-1.5,2.6
						c-0.1,0-0.3,0.1-0.4,0.2c-0.2,0.1-0.4,0.2-0.5,0.3"/>
					<path class="st23" d="M623.8,569.1c-0.3,0.1-0.6,0.2-0.9,0.3c-0.5,0.2-1,0.5-1.5,0.9c-0.6,0.5-1.1,1.2-1.6,1.9
						c-0.6,0.9-1.1,1.8-1.5,2.8c-0.8,2-1,4.2-0.9,6.4c-1.3,2.4-2.2,5.1-2.8,7.8c-1.3,5.4-2,13.4-2.8,18.9c-0.6,3.9-1.4,8-2.4,11.8
						c-2,7.1-5.7,17.4-7.7,24.4c-1.8,6.3-3.3,12.9-4.5,19.3c-0.7,3.8-1.3,7.9-1.6,11.8c-0.3,3.6-0.5,7.4-0.5,11
						c-0.1,4.5,0.1,13.3,0.1,17.7c0,3.2-0.2,7.7-0.4,11c-0.5,9.5-1.8,19.1-3.8,28.4l-3,13.4c0,0.2-0.1,0.5-0.1,0.7
						c-0.1,0.5-0.2,1.1-0.2,1.6c0,0.4,0,0.8,0.2,1.1c0.2,0.4,0.5,0.6,0.9,0.7c0.3,0.1,0.6,0.2,0.8,0.2c0.8,0.2,1.8,0.3,2.5,0.5
						c2.5,0.4,5.1,0.7,7.7,1"/>
					<path class="st2" d="M603.8,763.1c0.6,0,1.3,0.1,2,0.1c0.4,0,0.9-0.1,1.3-0.3c0.2-0.1,0.4-0.3,0.5-0.5c0.1,1.3,0.2,2.7,0.2,4"
						/>
					<path class="st24" d="M607.9,774.6c0,2.3-0.1,4.5-0.2,6.7c-0.2,3-0.4,6.2-0.8,9.2c-0.1,0.8-0.3,1.5-0.5,2.2
						c-0.3,1-0.7,2-1.2,2.9c-0.4,0.8-0.9,1.6-1.5,2.2c-0.5,0.5-1,0.9-1.6,1.3l-1.3,0.8c-0.5,0.3-1,0.7-1.3,1.2
						c-0.4,0.5-0.5,1.2-0.6,1.8c-0.1,0.6-0.1,1.3-0.1,1.9c0,0.3,0.1,0.6,0.2,0.9c0.1,0.1,0.2,0.3,0.3,0.4c0.1,0.1,0.3,0.1,0.4,0.2
						c0.1,0,0.3,0,0.4,0c0,0,19,0,19.1,0l0.1,0c0.1,0,0.1,0,0.2,0c0.2,0,0.4,0,0.5-0.1c0.3-0.1,0.5-0.3,0.7-0.5
						c0.2-0.3,0.4-0.7,0.5-1.1c0.1-0.4,0.2-0.9,0.2-1.3c0-1-0.4-2-0.8-2.9c-0.4-0.8-0.8-1.8-1-2.6c-0.2-0.8-0.4-1.7-0.5-2.6
						c-0.2-1.8-0.1-3.7,0.1-5.5c0.2-2.1,0.6-4.2,1.2-6.3c0.6-2,1.5-4,2.5-5.9c1.1-2.1,2.7-4.6,3.7-6.7c0.1-0.2,0.2-0.4,0.3-0.6"/>
					<path class="st2" d="M628.1,766.2c0.3-1.3,0.5-2.6,0.6-4c0.8,0.1,1.7,0,2.4-0.4c0.6-0.3,1-0.8,1.3-1.3c0.5-0.8,0.8-1.7,1.1-2.5
						c1.3-0.1,2.6-0.2,4-0.3"/>
					<path class="st25" d="M644.8,756.9c0.9-0.1,1.7-0.2,2.5-0.3c2.3-0.3,4.8-0.7,7.1-1.3c2-0.5,4.6-1.4,6.6-2c1-0.3,2-0.6,3.1-0.7
						c0.6-0.1,1.2-0.1,1.8,0c0.8,0.1,1.6,0.2,2.3,0.4c1.2,0.3,3.3,0.9,4.5,1.2c0.6,0.1,1.3,0.2,2,0.3c2.2,0.2,4.5,0.1,6.8,0
						c0.9-0.1,1.9-0.1,2.8-0.2"/>
					<path class="st2" d="M687.8,753.7c1.4-0.2,2.7-0.3,4-0.5c0.2,1.5,0.6,3.2,2,4.1c-0.1,1.3-0.1,2.7,0.1,4"/>
					<path class="st26" d="M695.3,768.8c0.8,3.2,1.9,6.5,2.4,9.6c0.5,3.3,0.7,6.6,0.4,9.9c-0.2,2-0.5,4.1-0.9,6.1
						c-0.3,1.6-1.1,4.2-1.4,5.8c-0.2,0.8-0.3,1.7-0.2,2.5c0.1,0.7,0.3,1.4,0.7,2c0.2,0.4,0.6,0.8,0.9,1c0.7,0.4,1.5,0.4,2.3,0.5
						l34.2,0c0.1,0,0.3,0,0.4,0c0.1,0,0.3,0,0.4-0.1c0.2-0.1,0.5-0.2,0.6-0.4c0.2-0.3,0.4-0.7,0.5-1c0.2-0.6,0.2-1.3,0.2-2
						c0-0.5-0.1-1.1-0.3-1.5c-0.2-0.3-0.4-0.6-0.6-0.8c-0.4-0.4-0.9-0.6-1.4-0.8c-1.7-0.6-4.4-1-6.2-1.4c-2.9-0.6-5.7-1.4-8.4-2.6
						c-2-0.9-4-2.1-5.7-3.5c-1-0.9-2-2-2.6-3.2c-0.4-0.7-0.6-1.5-0.7-2.3c-0.1-0.9,0-1.9,0.1-2.8c0.5-3.9,2.6-12.8,4.2-19.9"/>
					<path class="st2" d="M714.8,760.2c0.4-1.5,0.7-2.9,0.9-3.9c1.1,0,2.3,0,3.3-0.2c0.2,0,0.4-0.1,0.6-0.2"/>
					<path class="st2" d="M720.2,755.7c0.3-0.1,0.5-0.3,0.7-0.6c0.2-0.3,0.3-0.6,0.4-1c0.1-0.7,0.1-1.4,0.1-2.1
						c1.3,0.1,2.7,0.1,4,0.1"/>
					<path class="st27" d="M733.1,750.4c0.3-0.2,0.5-0.5,0.7-0.8c0.3-0.5,0.5-1,0.6-1.6c0.2-0.7,0.2-1.5,0.1-2.3
						c-0.1-2.6-1.2-7.7-1.7-10.3c-0.5-3.1-0.9-6.3-1.1-9.4c-0.8-11.1-0.6-25.2-1.5-36.3c-0.4-4.8-1-9.7-1.9-14.4
						c-0.7-3.7-1.7-7.9-2.7-11.5c-1.2-4.6-7.2-24.4-8.7-29.2c-1.7-5.6-3.8-11.8-5.9-17.2c-2.8-7.4-6.3-15.3-9.7-22.4l9.4-29.2
						c1.2-4.1,2.8-8.9,3.5-13c0-0.2,0.1-0.5,0.1-0.7c0-0.1,0-0.1,0-0.2l0,0l0,0l0,0l0,0l0,0l0,0l0,0l0,0l0,0l0,0l0,0l0,0l0,0l0,0
						l0,0l0,0l0,0l0,0l0,0l0,0l0,0l0,0l0,0l0,0l0,0l0,0l0,0l0,0l0,0l0,0l0,0l0,0l0,0l0,0l0,0h0h0h0h0h0h0l0,0l0,0l0,0l0,0l0,0l0,0
						l0,0l0,0l0,0l0,0l0,0l0,0l0,0l0,0c-0.1,0.1-0.2,0.2-0.3,0.3c-0.8,1-1.5,2.1-2.1,3.1c-2.5,4.2-4.5,8.7-6.3,13.2
						c-1.4,3.6-3,8.2-4.5,12.7"/>
					<path class="st2" d="M699.5,584.8c-0.5,1.3-0.9,2.6-1.3,3.8c-0.6-1.2-1.2-2.4-1.9-3.5"/>
					<path class="st28" d="M693.8,581.1c-1-1.4-2.2-2.8-3.5-4c-0.4-0.4-0.9-0.7-1.4-1"/>
					<path class="st2" d="M686.9,575c-1.2-0.6-2.5-1-3.8-1.4c0.1-0.4,0.3-0.9,0.3-1.4c0-0.3,0-0.6-0.2-0.8c-0.1-0.2-0.3-0.4-0.5-0.5
						c-0.3-0.2-0.6-0.3-0.9-0.5"/>
				</g>
			</g>
		</g>
	</g>
	<g>
		<path class="st4" d="M231.3,273.2h11.4l28,45.2h0.2v-45.2H281v61.4h-11.4l-27.9-45.1h-0.3v45.1h-10.2V273.2z"/>
		<path class="st4" d="M290.3,312.3c0-13.5,8.3-23.4,22.4-23.4c14.2,0,22.4,9.9,22.4,23.4c0,13.7-8.3,23.5-22.4,23.5
			C298.6,335.8,290.3,326,290.3,312.3z M325.4,312.3c0-7.7-3.9-15.7-12.6-15.7s-12.6,8-12.6,15.7c0,7.7,3.9,15.7,12.6,15.7
			S325.4,320.1,325.4,312.3z"/>
		<path class="st4" d="M374.7,320.3c0.6,5.8,4.8,7.7,10.1,7.7c3.8,0,10.1-0.8,9.9-5.8c-0.3-5.2-7.4-5.8-14.5-7.4
			c-7.2-1.5-14.3-4.1-14.3-13.2c0-9.7,10.5-12.7,18.6-12.7c9.1,0,17.5,3.7,18.6,13.7h-10.2c-0.9-4.7-4.6-5.9-9-5.9
			c-2.8,0-8.1,0.7-8.1,4.6c0,4.8,7.2,5.6,14.4,7.1c7.1,1.6,14.4,4.2,14.4,13c0,10.6-10.7,14.4-19.9,14.4c-11.3,0-19.4-5-19.7-15.5
			H374.7z"/>
		<path class="st4" d="M419.6,314.9c0,7,3.8,13.2,12,13.2c5.8,0,9.1-2.5,10.8-7.4h9.3c-2.1,9.7-10.5,15.1-20.1,15.1
			c-14,0-21.8-9.6-21.8-23.4c0-12.6,8.3-23.5,21.5-23.5c14,0,22.6,12.6,21,26H419.6z M442.5,308.4c-0.4-6.2-4.5-11.8-11.2-11.8
			c-6.8,0-11.4,5.2-11.7,11.8H442.5z"/>
		<path class="st4" d="M491.3,314.9c0,7,3.8,13.2,12,13.2c5.8,0,9.1-2.5,10.8-7.4h9.3c-2.1,9.7-10.5,15.1-20.1,15.1
			c-14,0-21.8-9.6-21.8-23.4c0-12.6,8.3-23.5,21.5-23.5c14,0,22.6,12.6,21,26H491.3z M514.2,308.4c-0.4-6.2-4.5-11.8-11.2-11.8
			c-6.8,0-11.4,5.2-11.7,11.8H514.2z"/>
		<path class="st4" d="M531.5,290.1h9.3v6.5l0.2,0.2c3-4.9,8-7.9,13.8-7.9c9.7,0,15.7,5.1,15.7,15.1v30.5h-9.8v-27.9
			c-0.3-7-2.8-10-8.7-10c-6.5,0-10.8,5.2-10.8,11.7v26.2h-9.8V290.1z"/>
		<path class="st4" d="M610.9,305c-0.8-5.5-4.6-8.3-10.1-8.3c-5.1,0-12.2,2.8-12.2,16.2c0,7.4,3.3,15.2,11.8,15.2
			c5.8,0,9.6-3.7,10.6-10.1h9.8c-1.8,11.6-8.9,17.9-20.4,17.9c-13.9,0-21.6-9.9-21.6-23c0-13.4,7.3-23.9,21.9-23.9
			c10.3,0,19.1,5.2,20,16.1H610.9z"/>
		<path class="st4" d="M626.6,312.3c0-13.5,8.3-23.4,22.4-23.4c14.2,0,22.4,9.9,22.4,23.4c0,13.7-8.3,23.5-22.4,23.5
			C634.8,335.8,626.6,326,626.6,312.3z M661.7,312.3c0-7.7-3.9-15.7-12.6-15.7c-8.8,0-12.6,8-12.6,15.7c0,7.7,3.9,15.7,12.6,15.7
			C657.8,328.1,661.7,320.1,661.7,312.3z"/>
		<path class="st4" d="M679.7,290.1h9.3v6.5l0.2,0.2c3-4.9,8-7.9,13.8-7.9c9.7,0,15.7,5.1,15.7,15.1v30.5h-9.8v-27.9
			c-0.3-7-2.8-10-8.7-10c-6.5,0-10.8,5.2-10.8,11.7v26.2h-9.8V290.1z"/>
		<path class="st4" d="M724.5,290.1h7.4v-13.3h9.8v13.3h8.9v7.3h-8.9v23.7c0,4,0.3,6.1,4.7,6.1c1.4,0,2.8,0,4.1-0.3v7.6
			c-2.1,0.3-4.2,0.5-6.4,0.5c-10.3,0-12-4-12.3-11.4v-26.2h-7.4V290.1z"/>
		<path class="st4" d="M757.7,290.1h9.2v8.6h0.2c1.1-4.7,7.1-9.8,13-9.8c2.3,0,2.8,0.2,3.7,0.3v9.5c-1.4-0.3-2.8-0.4-4.2-0.4
			c-6.6,0-12,5.3-12,15.2v21.2h-9.8V290.1z"/>
		<path class="st4" d="M784.3,312.3c0-13.5,8.3-23.4,22.4-23.4c14.2,0,22.4,9.9,22.4,23.4c0,13.7-8.3,23.5-22.4,23.5
			C792.6,335.8,784.3,326,784.3,312.3z M819.4,312.3c0-7.7-3.9-15.7-12.6-15.7c-8.8,0-12.6,8-12.6,15.7c0,7.7,3.9,15.7,12.6,15.7
			C815.5,328.1,819.4,320.1,819.4,312.3z M809.6,271.6h11.6L809,283.9h-7.1L809.6,271.6z"/>
		<path class="st4" d="M277.4,393.3h9.3v6.5l0.2,0.2c3-4.9,8-7.9,13.8-7.9c9.7,0,15.7,5.1,15.7,15.1v30.5h-9.8v-27.9
			c-0.3-7-2.8-10-8.7-10c-6.5,0-10.7,5.2-10.7,11.7v26.2h-9.8V393.3z"/>
		<path class="st4" d="M327,376.4h9.8v9.3H327V376.4z M327,393.3h9.8v44.5H327V393.3z"/>
		<path class="st4" d="M347.4,393.3h9.3v6.5l0.2,0.2c3-4.9,8-7.9,13.8-7.9c9.7,0,15.7,5.1,15.7,15.1v30.5h-9.8v-27.9
			c-0.3-7-2.8-10-8.7-10c-6.5,0-10.7,5.2-10.7,11.7v26.2h-9.8V393.3z"/>
		<path class="st4" d="M437.9,435.5c0,13.4-7.7,20-21.8,20c-8.9,0-18.9-3.4-19.9-13.8h9.8c1.2,5.6,5.7,6.5,10.7,6.5
			c7.9,0,11.4-4,11.4-11.4V430h-0.2c-2.8,4.9-7.8,7.8-13.3,7.8c-14.1,0-20-10.7-20-23.4c0-12,7.5-22.3,20.1-22.3
			c5.6,0,10.7,2.2,13.2,7.3h0.2v-6.1h9.8V435.5z M428.1,414.6c0-7.7-3.4-14.7-12-14.7c-8.7,0-11.7,8.1-11.7,15.5
			c0,7.2,3.5,14.7,11.7,14.7C424.8,430,428.1,422.2,428.1,414.6z"/>
		<path class="st4" d="M486.8,437.8h-9.6v-6.2H477c-2.4,4.5-7.7,7.4-12.6,7.4c-11.7,0-16.6-5.8-16.6-17.5v-28.2h9.8v27.3
			c0,7.8,3.1,10.7,8.5,10.7c8.2,0,10.9-5.2,10.9-12.1v-25.8h9.8V437.8z M471.1,374.8h11.6l-12.2,12.3h-7.1L471.1,374.8z"/>
		<path class="st4" d="M497.2,393.3h9.3v6.5l0.2,0.2c3-4.9,8-7.9,13.8-7.9c9.7,0,15.7,5.1,15.7,15.1v30.5h-9.8v-27.9
			c-0.3-7-2.8-10-8.7-10c-6.5,0-10.7,5.2-10.7,11.7v26.2h-9.8V393.3z"/>
		<path class="st4" d="M570.7,393.3h9.8v48.2c0,8.9-3.5,13.8-12.7,13.8c-2,0-3.1-0.1-4.4-0.3v-7.7c1.3,0.3,2.4,0.3,3.4,0.3
			c3.5,0,4-2.1,4-6.5V393.3z M570.7,376.4h9.8v9.3h-9.8V376.4z"/>
		<path class="st4" d="M630.2,437.8h-9.6v-6.2h-0.2c-2.4,4.5-7.7,7.4-12.6,7.4c-11.7,0-16.6-5.8-16.6-17.5v-28.2h9.8v27.3
			c0,7.8,3.1,10.7,8.5,10.7c8.2,0,10.9-5.2,10.9-12.1v-25.8h9.8V437.8z"/>
		<path class="st4" d="M648.2,418.1c0,7,3.8,13.2,12,13.2c5.8,0,9.1-2.5,10.8-7.4h9.3c-2.1,9.7-10.5,15.1-20.1,15.1
			c-14,0-21.8-9.6-21.8-23.4c0-12.6,8.3-23.5,21.5-23.5c14,0,22.6,12.6,21,26H648.2z M671.1,411.6c-0.4-6.2-4.5-11.8-11.2-11.8
			c-6.8,0-11.4,5.2-11.7,11.8H671.1z"/>
		<path class="st4" d="M729.4,435.5c0,13.4-7.7,20-21.8,20c-8.9,0-18.9-3.4-19.9-13.8h9.8c1.2,5.6,5.7,6.5,10.7,6.5
			c7.9,0,11.4-4,11.4-11.4V430h-0.2c-2.8,4.9-7.8,7.8-13.3,7.8c-14.1,0-20-10.7-20-23.4c0-12,7.5-22.3,20.1-22.3
			c5.6,0,10.7,2.2,13.2,7.3h0.2v-6.1h9.8V435.5z M719.6,414.6c0-7.7-3.4-14.7-12-14.7c-8.7,0-11.7,8.1-11.7,15.5
			c0,7.2,3.5,14.7,11.7,14.7C716.4,430,719.6,422.2,719.6,414.6z"/>
		<path class="st4" d="M737.3,415.5c0-13.5,8.3-23.4,22.4-23.4c14.2,0,22.4,9.9,22.4,23.4c0,13.7-8.3,23.5-22.4,23.5
			C745.5,439,737.3,429.2,737.3,415.5z M772.4,415.5c0-7.7-3.9-15.7-12.6-15.7c-8.8,0-12.6,8-12.6,15.7c0,7.7,3.9,15.7,12.6,15.7
			C768.5,431.3,772.4,423.3,772.4,415.5z"/>
	</g>
</g>
</svg>
