<?xml version="1.0" encoding="utf-8"?>
<!-- Generator: Adobe Illustrator 24.0.1, SVG Export Plug-In . SVG Version: 6.00 Build 0)  -->
<svg version="1.1" id="Capa_1" xmlns="http://www.w3.org/2000/svg" xmlns:xlink="http://www.w3.org/1999/xlink" x="0px" y="0px"
	 viewBox="0 0 1000 922" style="enable-background:new 0 0 1000 922;" xml:space="preserve">
<style type="text/css">
	.st0{fill:none;stroke:#263238;stroke-width:1.2035;stroke-linecap:round;stroke-linejoin:round;}
	.st1{fill:#AFC9E0;}
	.st2{fill:none;stroke:#0078E0;stroke-linecap:round;stroke-linejoin:round;}
	.st3{fill:none;stroke:#0078E0;stroke-width:2;stroke-linecap:round;stroke-linejoin:round;}
	.st4{fill:none;stroke:#0078E0;stroke-width:2;stroke-linecap:round;stroke-linejoin:round;stroke-dasharray:10.4149,10.4149;}
	.st5{fill:none;stroke:#0078E0;stroke-width:2;stroke-linecap:round;stroke-linejoin:round;stroke-dasharray:10.6068,10.6068;}
	.st6{fill:none;stroke:#0078E0;stroke-width:2;stroke-linecap:round;stroke-linejoin:round;stroke-dasharray:10.4378,10.4378;}
	.st7{fill:none;stroke:#0078E0;stroke-width:2;stroke-linecap:round;stroke-linejoin:round;stroke-dasharray:10.8587,10.8587;}
	.st8{fill:none;stroke:#0078E0;stroke-width:2;stroke-linecap:round;stroke-linejoin:round;stroke-dasharray:11.4923,11.4923;}
	.st9{fill:none;stroke:#0078E0;stroke-width:2;stroke-linecap:round;stroke-linejoin:round;stroke-dasharray:8.7157,8.7157;}
	.st10{fill:none;stroke:#0078E0;stroke-width:2;stroke-linecap:round;stroke-linejoin:round;stroke-dasharray:10.8271,10.8271;}
	.st11{fill:none;stroke:#0078E0;stroke-width:2;stroke-linecap:round;stroke-linejoin:round;stroke-dasharray:11.6221,11.6221;}
	.st12{fill:none;stroke:#0078E0;stroke-width:2;stroke-linecap:round;stroke-linejoin:round;stroke-dasharray:9.558,9.558;}
	.st13{fill:none;stroke:#0078E0;stroke-width:2;stroke-linecap:round;stroke-linejoin:round;stroke-dasharray:11.6687,11.6687;}
	.st14{fill:none;stroke:#0078E0;stroke-width:2;stroke-linecap:round;stroke-linejoin:round;stroke-dasharray:10.6794,10.6794;}
	.st15{fill:none;stroke:#0078E0;stroke-width:2;stroke-linecap:round;stroke-linejoin:round;stroke-dasharray:9.4721,9.4721;}
	.st16{fill:none;stroke:#0078E0;stroke-width:2;stroke-linecap:round;stroke-linejoin:round;stroke-dasharray:5.8855,5.8855;}
	.st17{fill:none;stroke:#0078E0;stroke-width:2;stroke-linecap:round;stroke-linejoin:round;stroke-dasharray:11.4577,11.4577;}
	.st18{fill:none;stroke:#0078E0;stroke-width:2;stroke-linecap:round;stroke-linejoin:round;stroke-dasharray:11.5076,11.5076;}
	.st19{fill:none;stroke:#0078E0;stroke-width:2;stroke-linecap:round;stroke-linejoin:round;stroke-dasharray:10.6366,10.6366;}
	.st20{fill:none;stroke:#0078E0;stroke-width:2;stroke-linecap:round;stroke-linejoin:round;stroke-dasharray:11.5205,11.5205;}
	.st21{fill:none;stroke:#0078E0;stroke-width:2;stroke-linecap:round;stroke-linejoin:round;stroke-dasharray:11.4726,11.4726;}
	.st22{fill:none;stroke:#0078E0;stroke-width:2;stroke-linecap:round;stroke-linejoin:round;stroke-dasharray:9.6285,9.6285;}
	.st23{fill:none;stroke:#0078E0;stroke-width:2;stroke-linecap:round;stroke-linejoin:round;stroke-dasharray:11.0539,11.0539;}
	.st24{fill:none;stroke:#0078E0;stroke-width:2;stroke-linecap:round;stroke-linejoin:round;stroke-dasharray:10.7688,10.7688;}
	.st25{fill:#FFFFFF;}
</style>
<path class="st0" d="M77.1,746.1c0,0,5.4-1.8,14.9-4.8"/>
<g id="N-TEXT">
</g>
<g id="_x32_D_x24_AG-GUIDES">
</g>
<g id="N-DIMENSIONS">
</g>
<g id="_x32_D_x24_AG-DETAILS-DIAGRAM">
</g>
<g id="_x32_D_x24_AG-POP-CULTURE">
</g>
<g>
	<path class="st1" d="M546.6,56.1c0,0-151.5-18.5-269.7,91.7S127,431.4,97.6,571.1s35.2,260.5,153.8,295.6s169.2-67.3,315-104.5
		c145.8-37.2,190.3-25,292.3-135.7s77.4-312.5-53.3-436.5S546.6,56.1,546.6,56.1z"/>
	<path class="st2" d="M715.6,756.7c9.6,2,18.8,3.6,27.6,4.7c102.9,13.4,172.2,9.6,172.2,9.6"/>
	<path class="st2" d="M503.1,695.4c29.8,8.2,60.7,17.9,91.1,27.4"/>
	<path class="st2" d="M344.5,678c11.9-1.6,23.1-2.7,33.1-3.1c11.4-0.5,23.7,0.2,36.7,1.7"/>
	<path class="st2" d="M110.7,735.1c31.3-9.6,79.8-23.9,129.7-36.2"/>
	<path class="st2" d="M249.1,602.6c-28.2-2.8-55-2-79.1,5.1c-99,29.2-91.5,38-91.5,38"/>
	<path class="st2" d="M419.8,637c-24.6-4.7-50-10.8-75.3-16.7"/>
	<path class="st2" d="M519.5,642.6c-1,0.1-2,0.3-2.9,0.4c-2.9,0.4-5.8,0.7-8.7,1"/>
	<path class="st2" d="M605.9,630.9c-24.9,3.2-50.9,6.8-78.3,10.6"/>
	<path class="st2" d="M887.6,626.2c-36-8.6-72.9-12.4-109.9-11.2c-21.4,0.8-43.3,2.2-66,4.1"/>
	<path class="st2" d="M915.8,634.2c0,0-3.8-1.4-10.8-3.4"/>
	<path class="st2" d="M581.9,145.7c-2.9-11.9-15-19.3-26.9-16.3c-8.1,2-14.4,8.3-16.3,16.3H581.9z"/>
	<path class="st2" d="M800.5,145.7c-2.7-11.3-12.1-19.7-23.7-21c0.7-3.9,1.1-7.9,1.1-11.9c0-35.8-29.1-64.7-64.8-64.7
		c-31.3,0-58.1,22.5-63.6,53.3c-18-14.1-44-10.9-58,7.1c-8.2,10.5-10.9,24.4-7.1,37.2H800.5z"/>
	<path class="st2" d="M197,197.6c-1.5-6.1-7.6-9.8-13.7-8.3c-4.1,1-7.3,4.2-8.3,8.3H197z"/>
	<path class="st2" d="M307.9,197.6c-1.4-5.7-6.2-10-12-10.7c3.7-17.8-7.7-35.2-25.5-38.9c-17.8-3.7-35.2,7.7-38.9,25.5
		c-0.1,0.5-0.2,1.1-0.3,1.6c-9.1-7.1-22.3-5.5-29.5,3.6c-4.2,5.3-5.5,12.4-3.6,18.9L307.9,197.6z"/>
	<path class="st2" d="M296.7,232.3c-1-3.8-4.8-6.2-8.7-5.2c-2.6,0.6-4.6,2.6-5.2,5.2H296.7z"/>
	<path class="st2" d="M366.8,232.3c-0.9-3.6-3.9-6.3-7.6-6.7c0.2-1.3,0.3-2.5,0.3-3.8c0-11.5-9.3-20.7-20.7-20.8
		c-10.1,0-18.7,7.2-20.4,17.1c-5.8-4.5-14.1-3.5-18.6,2.3c-2.6,3.4-3.5,7.8-2.3,11.9H366.8z"/>
	<g id="_x32_D_x24_AG-OUTLINE">
		<g id="POLYLINE_00000168836733031228279840000016258147031451106956_">
			<g>
				<g>
					<path class="st3" d="M529.5,621.5c0-0.1,0-0.2,0-0.3c0-0.4-0.1-0.9-0.3-1.3c-0.2-0.5-0.5-0.9-0.9-1.1c-0.3-0.1-0.6-0.2-0.9-0.3
						c-0.5-0.1-1,0-1.5,0l-0.1-4.6c0.7-0.2,1.4-0.4,2.1-0.7c0.9-0.3,1.8-0.8,2.6-1.3c1.5-0.9,2.7-2.2,3.7-3.6l-1.6-1.2
						c-0.7,0.9-1.4,1.8-2.3,2.5c-0.5-1.7-1-3.5-1.3-5.3"/>
					<path class="st4" d="M528,594.1c-0.5-12.5-1-39.8-1.7-50.1c-0.4-6.1-1.2-13-1.9-19c-0.2-1.7-0.5-3.5-0.8-5.2
						c-0.1-0.6-0.3-1.3-0.5-1.9c-0.1-0.2-0.2-0.3-0.3-0.5c-0.1-0.1-0.2-0.1-0.3-0.2c-0.1,0-0.3,0-0.4,0.1c-0.1,0.1-0.2,0.2-0.3,0.3
						c-0.1,0.2-0.2,0.4-0.3,0.6c-0.1,0.3-0.2,0.6-0.2,1c-0.5,2.8-1,6.5-1.4,9.3c-0.6,4.9-1.1,10-1.2,14.9
						c-0.3,9.2,0.4,40.9,0.2,50.2c-0.1,2.3-0.2,4.7-0.4,7"/>
					<path class="st3" d="M517.8,605.9c-0.4,1.8-0.8,3.6-1.4,5.3c-1.3-0.5-2.6-1.3-3.8-2l-1.1,1.7c2.8,1.8,6,3.2,9.3,3.5l0.1,3.9
						c-0.6,0.2-1.2,0.4-1.8,0.7c-0.3,0.2-0.6,0.4-0.8,0.7c-0.2-0.3-0.5-0.6-0.8-0.8c-0.2-0.1-0.4-0.3-0.7-0.3
						c-0.4,0-0.8,0.2-1.1,0.5c-0.6,0.4-1.3,0.9-1.9,1.3"/>
					<path class="st3" d="M508.2,621.7c-0.6-0.3-1.1-0.6-1.6-0.9c-1-0.6-2.1-1.3-3-2c-0.1-1.2-0.5-3.6-0.7-4.8
						c0-0.2-0.1-0.4-0.1-0.7"/>
					<path class="st5" d="M501.1,602.8c-0.6-3.6-1.2-6.9-1.4-8.2c-0.5-2.4-1-5-1.7-7.4"/>
					<path class="st3" d="M496.1,582.3c-0.8-1.7-1.8-3.2-3.1-4.5c0.2-2.3-0.3-4.6-0.8-6.8l0.4-0.6c0.3-0.4,0.7-0.9,1.1-1.2
						c0.3-0.2,0.7-0.5,1-0.8c0.2-0.2,0.3-0.4,0.4-0.6c0.2-0.4,0.2-0.7,0.3-1.1"/>
					<path class="st6" d="M500.1,559.3C500.1,559.3,500.1,559.3,500.1,559.3c0.2,0.2,0.3,0.3,0.5,0.3c0.1,0,0.2-0.1,0.3-0.1
						c0.2-0.1,0.3-0.2,0.4-0.4c0.6-0.7,0.8-1.7,0.9-2.6c0.1-0.9,0.1-1.8,0-2.7c0-0.8-0.2-2.1-0.1-2.9c0-0.4,0.1-0.7,0.2-1.1
						c0.1-0.2,0.2-0.3,0.3-0.4c0.1-0.1,0.2-0.1,0.4-0.1c0.4-0.1,0.8,0,1.1,0c0.1,0,0.2,0,0.3-0.1l0,0l0,0l0,0l0,0l0,0l0,0l0,0l0,0
						l0,0l0,0l0,0l0,0l0,0l0,0l0,0l0,0l0,0l0,0l0,0l0,0l0,0l0,0l0,0l0,0l0,0l0,0l0,0l0,0l0,0l0,0l0,0l0,0l0,0c0-0.1,0-0.3,0-0.4
						c-0.2-0.5-0.4-1.1-0.6-1.6c-0.2-0.4-0.3-0.9-0.3-1.3c-0.1-0.8-0.2-2.1-0.3-2.8c-0.1-0.6-0.2-1.3-0.3-1.9
						c-0.4-1.4-1.2-2.8-1.8-4.1c-0.1-0.2-0.2-0.4-0.2-0.6v0v0v0v0l0,0l0,0l0,0l0,0l0,0l0,0l0,0l0,0l0,0l0,0l0,0l0,0l0,0l0,0l0,0l0,0
						l0,0l0,0l0,0l0,0l0,0l0,0l0,0l0,0l0,0l0,0l0,0l0,0l0,0l0,0l0,0l0,0l0,0l0,0l0,0l0,0l0,0h0h0h0h0h0c0.1,0,0.1,0,0.2,0
						c0.3,0.1,0.7,0.4,1,0.5c0.2,0.1,0.4,0.2,0.6,0.3c0.1,0,0.1,0,0.2,0l0,0l0,0l0,0l0,0l0,0l0,0l0,0l0,0l0,0l0,0l0,0l0,0l0,0l0,0
						l0,0l0,0l0,0l0,0l0,0l0,0l0,0l0,0l0,0l0,0l0,0l0,0l0,0l0,0l0,0l0,0l0,0l0,0l0,0l0,0l0,0l0,0l0,0l0,0l0,0l0,0l0,0l0,0l0,0l0,0
						l0,0l0,0l0,0l0,0c0-0.1,0-0.2,0-0.3c0-0.2-0.1-0.4-0.2-0.6c-0.5-1.1-1.2-2-2-2.9c-0.7-0.8-1.7-1.4-2.4-2.2
						c-0.1-0.2-0.3-0.3-0.4-0.5c-0.1-0.1-0.1-0.3-0.1-0.5c0-0.4,0.3-0.7,0.5-1.1c0.1-0.2,0.3-0.4,0.3-0.7c0-0.1,0-0.3-0.1-0.4
						c-0.1-0.2-0.3-0.3-0.4-0.4c-0.6-0.4-1.4-0.8-2-1.3c-0.2-0.2-0.5-0.4-0.7-0.6c-0.4-0.5-0.6-1.2-0.8-1.8c-0.1-0.4-0.2-0.7-0.4-1
						c-0.5-0.8-1.2-1.5-1.9-2c-1.1-0.8-2.4-1.3-3.8-1.4c-1.4-0.1-3,0.1-4.4,0.1c-0.8,0-1.5-0.2-2.3-0.4c-1.2-0.3-2.5-0.9-3.8-0.9
						c-0.8,0-1.5,0.2-2.3,0.4c-1.2,0.4-2.5,1.2-3.7,1.7c-0.8,0.4-1.9,0.8-2.7,1.1c-0.5,0.2-1.1,0.5-1.5,0.9c-1,0.8-1.4,2.1-1.9,3.2
						c-0.3,0.6-0.6,1.3-1,1.9c-0.4,0.6-0.8,1.2-1.3,1.7c-0.4,0.5-1.6,1.8-1.9,2.4c-0.1,0.1-0.1,0.2-0.2,0.3l0,0l0,0l0,0l0,0l0,0l0,0
						l0,0l0,0l0,0l0,0v0v0v0l0,0l0,0l0,0l0,0l0,0l0,0l0,0l0,0l0,0l0,0l0,0l0,0l0,0l0,0l0,0l0,0l0,0l0,0l0,0l0,0l0,0l0,0l0,0l0,0l0,0
						l0,0l0,0l0,0l0,0l0,0l0,0l0,0c0.1,0,0.3,0,0.4,0l0.5-0.1c0.2,0,0.4,0,0.7,0c0.1,0,0.2,0,0.3,0.1l0,0l0,0l0,0l0,0l0,0l0,0l0,0
						l0,0l0,0l0,0l0,0l0,0l0,0l0,0l0,0l0,0l0,0l0,0l0,0l0,0l0,0l0,0l0,0l0,0l0,0l0,0l0,0c0,0.2,0,0.4,0,0.7
						c-0.2,0.7-0.5,1.4-0.8,2.1c-0.7,1.4-1.7,3.1-2.4,4.4c-0.1,0.3-0.3,0.5-0.4,0.8c-0.1,0.2-0.2,0.5-0.2,0.8c0,0.2,0,0.4,0.1,0.5
						c0.2,0.4,0.5,0.7,0.8,1c0.2,0.2,0.3,0.4,0.4,0.6c0,0.1,0.1,0.3,0,0.4c0,0.2-0.1,0.5-0.3,0.7c-0.2,0.3-0.5,0.6-0.9,0.8
						c-0.5,0.3-1.1,0.5-1.6,0.7c-0.2,0.1-0.5,0.3-0.6,0.6c-0.1,0.3,0,0.5,0,0.8c0.1,0.5,0.4,1,0.8,1.5c0.3,0.4,0.7,0.6,1.1,0.9
						c0.2,0.1,0.3,0.2,0.4,0.4c0.1,0.1,0,0.3,0,0.4c-0.1,0.3-0.2,0.5-0.4,0.7c-0.3,0.5-0.6,0.9-1,1.3c-0.2,0.2-0.4,0.4-0.7,0.6
						c-0.3,0.2-0.7,0.3-1,0.5c-0.2,0.1-0.5,0.3-0.5,0.6c0,0.2,0.1,0.5,0.2,0.7c0.3,0.5,0.7,0.9,1.1,1.2c0,0,0,0,0,0"/>
					<path class="st3" d="M456.2,558c-0.1,0-0.2,0-0.3,0c-0.1,0-0.3,0-0.4,0c-0.1,0-0.2,0-0.3,0.1l0,0l0,0l0,0l0,0l0,0l0,0l0,0l0,0
						l0,0l0,0l0,0c-0.1,0.1-0.1,0.2-0.1,0.4c0,0.4,0.2,0.7,0.3,1c0.4,0.9,0.9,1.8,1.5,2.5c-1.8,0.1-3.6,0.6-5.3,1.3"/>
					<path class="st7" d="M444.1,570.7c-0.4,0.8-0.7,1.7-1,2.5c-2,1-4.1,2.1-6,3.3c-1,0.6-1.9,1.3-2.8,2.1c-0.7,0.7-1.4,1.5-1.9,2.3
						c-1.4,2.2-2.3,4.6-3.2,7c-1.5,4.2-2.7,8.7-3.7,13.1c-0.5,2.4-1.1,5.4-1.5,7.8c-2.2,14.2-7,45-8.8,58.9c-2,15.4-5.5,54.4-7,70.3
						l-1.4,12c-0.1,1-3.2,23.4-3.2,23.8c-0.1,1.1-0.2,2.4-0.3,3.5c0,0.9,0,1.8,0.2,2.7c0.1,0.5,0.3,1,0.7,1.3
						c0.2,0.3,0.5,0.5,0.8,0.6c0.4,0.2,0.8,0.3,1.2,0.3c0.9,0.1,1.9,0,2.8-0.2c1.9-0.3,6-1.1,8.9-1.7"/>
					<path class="st3" d="M423.4,779.4c1.8-0.3,3.7-0.6,5.4-0.7c0.6,0.8,1.5,1.4,2.5,1.8c0.2,1.8,0.3,3.7,0.4,5.5"/>
					<path class="st8" d="M427.9,796c-0.3,0.2-0.6,0.3-0.9,0.4c-2.8,1-6,1.4-8.8,2.2c-0.5,0.1-1,0.3-1.5,0.5
						c-0.4,0.2-0.8,0.4-1.1,0.6c-0.8,0.7-1,1.8-1.1,2.8c-0.1,0.7-0.1,1.3,0,2c0,0.4,0.1,0.7,0.2,1.1c0.1,0.2,0.2,0.4,0.3,0.5
						c0.2,0.1,0.4,0.1,0.6,0.1l25.5,0c0.5,0,1.3,0,1.8,0c0.4,0,0.8-0.1,1.1-0.2c0.2-0.1,0.4-0.2,0.5-0.3c0.2-0.2,0.3-0.5,0.4-0.8
						c0.1-0.5,0.2-1,0.2-1.5c0-0.7,0-1.5-0.1-2.2c-0.2-1.6-0.9-3.4-1.4-4.9c-0.2-0.5-0.3-1-0.4-1.5c-0.1-0.4-0.1-0.7-0.1-1.1
						c0-0.5,0.1-0.9,0.2-1.4"/>
					<path class="st3" d="M444.8,786.7c0.4-2,0.9-3.9,1.2-5.4c0.9-0.1,1.9-0.2,2.9-0.5c0.4-0.1,0.9-0.3,1.3-0.5
						c0.3-0.1,0.5-0.3,0.7-0.6c0.2-0.3,0.4-0.6,0.5-0.9c1.8,0.1,3.7,0.3,5.5,0.5"/>
					<path class="st9" d="M465.4,781.3c1,0.3,1.9,0.5,2.5,0.7c1.2,0.3,2.5,0.5,3.7,0.4c0.6,0,1.3-0.1,1.8-0.4
						c0.8-0.3,1.6-0.9,2.3-1.4c0.6-0.4,1.2-0.7,1.8-1"/>
					<path class="st3" d="M481.8,778.5c1.8-0.3,3.7-0.3,5.5-0.4c0.2,0.4,0.5,0.8,0.8,1.1c0.4,0.3,0.8,0.5,1.2,0.7
						c0.9,0.3,1.8,0.4,2.7,0.4"/>
					<path class="st3" d="M493.3,780.2c1.8-0.1,3.7-0.3,5.5-0.5c0.7,1.6,1.4,3.4,2.1,5.1"/>
					<path class="st10" d="M504.5,795c0.1,0.5,0.3,1.1,0.4,1.6c0.1,0.3,0.1,0.7,0.1,1c0,0.3-0.1,0.6-0.2,0.8
						c-0.7,1.6-1.6,3.4-1.3,5.3c0.1,0.5,0.3,1,0.5,1.5c0.2,0.3,0.3,0.5,0.6,0.7c0.2,0.2,0.5,0.3,0.7,0.3c0.1,0,0.2,0,0.3,0
						c0,0,30.7,0,30.8,0c0.3,0,0.8,0,1.1,0c0.3,0,0.6-0.1,0.8-0.2c0.2-0.1,0.4-0.3,0.5-0.5c0.2-0.3,0.3-0.6,0.4-0.9
						c0.1-0.5,0.1-1,0-1.5c-0.1-0.5-0.2-1-0.5-1.4c-0.2-0.3-0.4-0.5-0.6-0.7c-0.5-0.4-1-0.6-1.6-0.8c-1.6-0.5-4.9-0.9-6.5-1.2
						c-3.9-0.7-7.7-1.9-11.3-3.7c-1.3-0.7-2.7-1.5-3.5-2.9c-0.3-0.5-0.5-0.9-0.6-1.5c-0.1-0.5-0.2-1-0.2-1.5
						c-0.1-0.4-0.1-1.2-0.2-2.1"/>
					<path class="st3" d="M513.7,781.9c-0.2-2.3-0.3-4.5-0.4-5.5c0.4-0.2,0.9-0.5,1.2-0.8c0.2-0.2,0.4-0.5,0.5-0.8
						c0.2-0.7,0.2-1.4,0.2-2.1c0-0.3,0-0.6,0-0.9"/>
					<path class="st11" d="M514.1,760.2c-2.4-18.2-7.1-43.1-10.7-63"/>
					<path class="st3" d="M502.3,691.5c-0.3-1.9-0.7-3.7-1-5.4c1.6-0.8,3.3-1.6,5-2.4"/>
					<path class="st12" d="M514.5,678.7c0.2-0.2,0.3-0.4,0.4-0.7c0.2-0.5,0.3-1.1,0.3-1.7c0.1-1-0.1-2.1-0.2-3.1
						c-0.3-1.8-0.7-3.8-1.1-5.6l-0.4-1.8l-5-19.6"/>
					<path class="st3" d="M507.3,641.6l-1.4-5.3c1.4,0.5,3.3,1.3,5.1,2"/>
					<path class="st3" d="M516.7,638.1c0-0.1,0.1-0.1,0.1-0.2c0.4-0.9,1.3-4,1.7-5l2.7-1l0.1,9.4c-0.4,0-0.7,0.1-1.1,0.2
						c-0.2,0.1-0.3,0.1-0.5,0.2c-0.1,0.1-0.2,0.1-0.2,0.2c0,0.1,0,0.2,0,0.3c0,0.2,0.1,0.4,0.2,0.6c0.4,0.8,0.9,1.5,1.4,2.2"/>
					<path class="st3" d="M526.9,645.2c0,0,0.1-0.1,0.1-0.1c0.3-0.6,0.7-1.3,0.9-1.9c0.1-0.3,0.2-0.6,0.2-1c0-0.1,0-0.3-0.1-0.4
						c-0.1-0.1-0.2-0.2-0.3-0.3c-0.1-0.1-0.2-0.1-0.4-0.1c-0.3-0.1-0.7-0.1-1.1-0.1l-0.1-9c0.7-0.2,1.4-0.5,1.9-1.1
						c0.5-0.6,0.8-1.5,0.9-2.3c0-0.3,0.1-0.5,0.1-0.8"/>
				</g>
			</g>
		</g>
		<g id="POLYLINE_00000052076382365956316130000015322801655431173805_">
			<g>
				<g>
					<path class="st3" d="M316.5,566.2c-1.6-1.1-3.2-2.2-4.3-3.4c0.5,0,1,0,1.5-0.2c0.4-0.1,0.8-0.3,1.1-0.6
						c0.3-0.2,0.5-0.5,0.7-0.8c0.2-0.5,0.3-1,0.4-1.5"/>
					<path class="st13" d="M316.4,551.1c-0.4-0.5-0.7-1.1-0.9-1.8c-0.4-1.3-0.3-2.7,0-4c0.1-0.7,0.4-1.4,0.6-2
						c0.2-0.4,0.3-0.9,0.4-1.3c0.2-0.8,0.2-1.6,0-2.5c-0.1-0.4-0.3-0.7-0.5-1c-0.4-0.6-1-1.3-1.4-1.9c-0.1-0.2-0.1-0.4-0.2-0.6
						c0-0.2,0-0.5,0.1-0.7c0.2-0.6,0.5-1.3,0.6-1.9c0.2-1.1,0-2.4-0.7-3.3c-0.5-0.6-1.2-1-1.7-1.5c-0.2-0.2-0.3-0.4-0.4-0.6
						c-0.2-0.5-0.2-1.2-0.4-1.7c-0.1-0.2-0.2-0.4-0.4-0.5c-0.3-0.3-0.8-0.7-1.1-1.1c-0.5-0.6-0.6-1.4-0.9-2.1
						c-0.2-0.4-0.3-0.9-0.6-1.3c-0.5-0.6-1.2-0.9-1.9-1.3c-0.4-0.2-0.7-0.4-0.9-0.7l-0.4-0.4c-0.5-0.5-1.2-1-1.9-1.3
						c-0.8-0.4-1.7-0.7-2.6-0.8c-1-0.1-2.2,0-3.2,0c-0.4,0-0.7-0.1-1.1-0.2l-0.6-0.2c-1-0.4-2.1-0.6-3.2-0.8
						c-0.7-0.1-1.4-0.1-2.1-0.1c-0.6,0-1.1,0.2-1.7,0.4c-1.3,0.5-2.3,1.6-3.4,2.3c-0.8,0.5-1.8,1-2.6,1.5c-0.4,0.3-0.8,0.6-1.1,0.9
						c-0.7,0.8-0.8,1.8-1,2.8c-0.1,0.5-0.2,1-0.5,1.5c-0.3,0.5-0.6,0.9-1,1.2c-0.8,0.7-1.7,1.5-2.3,2.3c-0.4,0.5-0.7,1.1-0.8,1.8
						c-0.1,0.7,0,1.5,0.1,2.2c0,0.4,0.1,0.9,0,1.3c0,0.3-0.1,0.6-0.3,0.9c-0.4,0.9-1.3,1.8-1.9,2.6c-0.2,0.2-0.3,0.4-0.4,0.7
						c-0.1,0.1-0.1,0.3-0.1,0.5c0,0.2,0,0.3,0.1,0.5c0.2,0.5,0.6,1,0.9,1.5c0.4,0.7,0.8,1.4,0.9,2.3c0.1,0.5,0,0.9-0.2,1.3
						c-0.2,0.5-0.6,1-0.9,1.4c-0.4,0.5-1.1,1.1-1.6,1.6c-0.1,0.1-0.1,0.2-0.2,0.3l0,0l0,0l0,0l0,0l0,0l0,0l0,0l0,0l0,0l0,0v0v0
						c0,0.1,0.1,0.2,0.1,0.2c0.2,0.1,0.5,0.2,0.7,0.2c0.3,0,0.6,0,0.9,0c0.3,0,0.8-0.1,1.1-0.1c0.2,0,0.5,0,0.6,0.2l0,0l0,0l0,0l0,0
						c0.1,0.2,0,0.4,0,0.6c-0.1,0.6-0.5,1.1-0.9,1.5c-0.2,0.2-0.5,0.5-0.7,0.6c-0.2,0.1-0.4,0.2-0.7,0.3c-0.4,0.1-0.9,0.2-1.3,0.2
						c-0.2,0-0.3,0-0.5,0.1c-0.1,0-0.2,0.1-0.2,0.1l0,0l0,0l0,0l0,0l0,0l0,0l0,0l0,0l0,0l0,0l0,0l0,0l0,0l0,0l0,0l0,0l0,0l0,0l0,0
						l0,0l0,0l0,0l0,0l0,0l0,0l0,0l0,0l0,0l0,0l0,0l0,0l0,0l0,0l0,0l0,0c0,0.2,0.1,0.3,0.1,0.5c0.2,0.5,0.6,0.8,0.9,1.2
						c0.4,0.5,0.9,0.9,1.4,1.3c0.5,0.4,1.3,0.9,1.8,1.3c0.1,0.1,0.3,0.3,0.4,0.4l0,0l0,0l0,0l0,0l0,0l0,0l0,0l0,0l0,0l0,0l0,0l0,0
						l0,0l0,0l0,0l0,0l0,0v0v0v0v0l0,0l0,0l0,0l0,0l0,0l0,0l0,0l0,0l0,0l0,0l0,0l0,0l0,0l0,0l0,0l0,0l0,0l0,0l0,0l0,0l0,0l0,0l0,0
						l0,0l0,0l0,0l0,0l0,0l0,0l0,0c0,0-0.1,0.1-0.2,0.1c-0.1,0-0.3,0.1-0.5,0.1c0,0,0,0-0.1,0"/>
					<path class="st3" d="M277.4,559.8c0.3,0.1,0.6,0.3,0.8,0.4c0.1,0.1,0.3,0.1,0.3,0.3l0,0l0,0l0,0l0,0l0,0l0,0l0,0l0,0l0,0l0,0
						l0,0l0,0l0,0l0,0l0,0l0,0l0,0l0,0l0,0l0,0l0,0v0v0v0v0v0l0,0l0,0l0,0l0,0l0,0l0,0l0,0l0,0l0,0l0,0l0,0l0,0l0,0l0,0l0,0l0,0l0,0
						l0,0l0,0l0,0l0,0l0,0l0,0l0,0l0,0l0,0l0,0c-0.1,0.1-0.1,0.1-0.2,0.1c-0.4,0.2-1,0.4-1.4,0.6c-0.2,0.1-0.4,0.2-0.6,0.3
						c-0.1,0-0.1,0.1-0.2,0.2l0,0l0,0l0,0l0,0l0,0l0,0l0,0l0,0l0,0l0,0l0,0c0,0.1,0,0.2,0,0.2c0.1,0.1,0.2,0.1,0.2,0.2
						c0.2,0.1,0.4,0.2,0.6,0.3c-0.7,0.3-2,1-2.7,1.4c-0.6,0.3-1.3,0.7-2.2,1.2"/>
					<path class="st14" d="M262.8,570.5c-0.3,0.2-0.5,0.3-0.8,0.4c-1,0.6-2,1.2-2.9,1.8c-1,0.7-1.9,1.4-2.8,2.2
						c-0.6,0.6-1.2,1.3-1.6,2c-0.6,1-0.9,2.2-1.2,3.3c-0.3,1.6-0.5,3.2-0.3,4.9c-1.7,5.1-2.9,11.1-4,16.4
						c-3.1,15.4-5.6,31.6-6.7,47.2c-0.9,12.2-0.9,33.2-1.7,45.3c-0.5,9.3-1.6,19.8-2.7,29.1c-1.9,14.6-4.1,29.9-7.9,44.1
						c-0.4,1.6-0.8,3.2-0.8,4.8c0,0.9,0.1,1.8,0.7,2.5c0.7,0.8,1.8,1.1,2.9,1.3c0.8,0.1,1.6,0.2,2.4,0.2c2.4,0.1,6-0.3,8.4-0.5
						c1.1-0.1,2.3-0.2,3.5-0.1c0.5,0,1.1,0.2,1.6,0.3"/>
					<path class="st3" d="M253.5,778.5c0.4,0.3,0.9,0.5,1.3,0.8c0.5,0.3,1,0.5,1.6,0.7c0.4,0.1,0.8,0.2,1.2,0.1
						c0.4-0.1,0.7-0.3,0.9-0.5c2.1,1,4.4,1.6,6.6,2c0.1,1.8,0.2,3.6,0.3,5.5"/>
					<path class="st15" d="M264.3,796.2c-0.5,0.5-1.1,1-1.7,1.3c-1,0.6-3.8,1.8-4.9,2.3c-0.6,0.3-1.2,0.6-1.8,1
						c-0.3,0.2-0.6,0.4-0.8,0.7c-0.2,0.3-0.3,0.6-0.3,0.9c-0.1,0.4-0.1,0.7,0,1.1c0,0.6,0.1,1.1,0.3,1.6c0.1,0.3,0.2,0.6,0.5,0.7
						c0.2,0.2,0.5,0.2,0.7,0.3c0.2,0,0.4,0,0.5,0l19,0h0.1l0.1,0l0.1,0l0.1,0c0.2,0,0.4,0,0.6-0.1c0.2-0.1,0.3-0.2,0.4-0.4
						c0.2-0.2,0.3-0.5,0.4-0.8c0.1-0.4,0.2-0.9,0.3-1.4c0.1-0.8,0.1-1.7,0-2.5c-0.1-0.8-0.3-1.5-0.6-2.3c-0.3-1-0.9-2.5-1.1-3.4
						c-0.1-0.4-0.2-0.9-0.2-1.4c-0.1-0.8,0-1.7,0.1-2.5c0-0.1,0-0.2,0-0.4"/>
					<path class="st3" d="M276.7,786.5c0.3-1.8,0.7-3.7,1-5.4c0.8-0.2,2.1-0.7,2.9-0.9c0.6-0.2,1.6-0.5,2.3-0.8"/>
					<path class="st16" d="M287.2,775.8c0,0,0-0.1,0-0.1c0.2-1.2,0-2.6,0-3.8c-0.1-1.6,0-3.2,0-4.9"/>
					<path class="st3" d="M287.4,764l0.5-5.5c1.2,0.3,3.2,0.9,5.3,1.5"/>
					<path class="st3" d="M293.8,760.1c2.1,0.6,4.2,1.1,5.3,1.4c0.1,1.6,0.2,3.5,0.3,5.5"/>
					<path class="st3" d="M300.2,776.4c0.1,0.5,0.2,1,0.3,1.4c0.1,0.3,0.2,0.5,0.4,0.8c0.2,0.2,0.4,0.3,0.6,0.4
						c0.2,0.1,0.3,0.1,0.5,0.2c0.6,0.2,1.3,0.3,1.9,0.5c0.2,1.8,0.4,3.6,0.5,5.5"/>
					<path class="st17" d="M303,796.4c0,0.1-0.1,0.2-0.1,0.3l-0.9,2.1c-0.4,0.9-0.6,1.8-0.5,2.8c0.1,0.7,0.3,1.4,0.6,2.1
						c0.3,0.7,0.7,1.3,1.2,1.9c0.2,0.2,0.5,0.4,0.8,0.5c0.3,0.1,0.5,0.1,0.8,0.2c0.2,0,0.4,0,0.6,0c0.2,0,36.6,0,36.8,0
						c0.1,0,0.2,0,0.3,0c0.2,0,0.3-0.1,0.4-0.2c0.1-0.2,0.2-0.4,0.3-0.6c0.2-0.8,0.2-1.6,0.1-2.3c0-0.4-0.1-0.8-0.2-1.1
						c-0.1-0.3-0.2-0.5-0.4-0.7c-0.2-0.3-0.5-0.5-0.9-0.6c-0.4-0.1-0.8-0.2-1.2-0.3c-0.5-0.1-1.2-0.1-1.8-0.1c-1.7,0-4-0.1-5.7-0.3
						c-3.1-0.3-6.2-0.8-9.3-1.5c-1.1-0.3-2.3-0.6-3.3-1c-0.8-0.3-1.5-0.6-2.2-1.1c-0.6-0.4-1.2-0.9-1.6-1.5
						c-0.3-0.4-0.4-0.9-0.6-1.3c-0.2-0.5-0.3-1-0.4-1.6c0-0.2-0.1-0.4-0.1-0.7"/>
					<path class="st3" d="M316.1,785.5c0.2-1.8,0.5-3.7,0.8-5.4c1.8-0.2,3.6-0.6,5.4-1"/>
					<path class="st3" d="M328.1,768.2c-0.1-1.9-0.3-3.7-0.5-5.5l6.9,1.7c-0.2,1.3-0.5,2.7-0.8,4l-0.4,1.4"/>
					<path class="st18" d="M338.3,771.9c3.6-2.2,7.6-3.6,11.6-4.9c0.6-0.2,1.2-0.4,1.7-0.7c0.3-0.2,0.7-0.5,0.9-0.8
						c0.3-0.4,0.4-0.9,0.4-1.4c0-1.1-0.2-2.2-0.5-3.2c-0.7-2.8-1.9-6.7-2.5-9.4c-1.6-6.9-2.7-14.2-3.6-21.2
						c-1.6-12.5-2.6-25.3-2.3-37.9c0-2.7,0.2-7.4,0.3-10.2c0.1-2.9,0.4-5.8,0.9-8.7c0.7-3.6,2.1-7.5,3-11.1c0.7-2.7,1.1-5.4,1-8.1
						c-0.2-5.3-2.1-10.9-3.2-16c-0.3-1.7-0.6-3.5-0.7-5.3c-0.2-4,0.5-8.4,0-12.3c-0.6-4.4-3.1-8.4-5-12.2c-0.7-1.4-1.4-2.8-1.9-4.3
						c-0.3-0.8-0.4-1.7-0.6-2.6c-0.3-2.5-0.3-5.3-0.9-7.8c-0.7-3-2.1-5.9-3.6-8.7c-0.2-0.4-0.4-0.7-0.6-1.1"/>
					<path class="st3" d="M329.7,579c-0.3-0.4-0.5-0.8-0.8-1.2c-0.4-0.5-0.8-1-1.4-1.4c-0.5-0.4-1.1-0.8-1.7-1c0-0.4,0-0.9-0.1-1.3
						c0-0.3-0.2-0.6-0.3-0.9c-0.3-0.5-0.7-0.9-1.1-1.3c-0.4-0.3-0.7-0.6-1.1-0.9"/>
				</g>
			</g>
		</g>
		<g id="POLYLINE_00000042000569218250324080000015988547015936051096_">
			<g>
				<g>
					<path class="st3" d="M679.4,569.3c-0.6-0.3-1.1-0.6-1.5-1c-0.5-0.5-0.8-1.2-1.2-1.8c-0.3-0.4-0.7-0.8-1.1-1
						c0.3-0.6,0.7-1.3,1.1-1.8c0.2-0.2,0.4-0.4,0.5-0.6c0-0.1,0.1-0.2,0-0.3c0-0.2-0.1-0.4-0.1-0.6c-0.1-0.4-0.3-1-0.4-1.4
						c0,0,0-0.1,0-0.1"/>
					<path class="st19" d="M678.4,550.9c-0.3-0.7-0.7-1.4-1-2.1c-0.1-0.3-0.2-0.7-0.2-1.1c0-0.3,0.2-0.5,0.3-0.7
						c0.3-0.4,0.6-0.8,0.8-1.2c0.2-0.5-0.1-1-0.3-1.4c-0.7-0.9-1.6-1.8-2.3-2.7c-0.3-0.5-0.6-1-0.7-1.5c-0.1-0.6-0.1-1.1,0-1.7
						c0.1-0.7,0.3-1.5,0.3-2.2c0-0.4-0.1-0.7-0.2-1.1c-0.5-1.4-1.6-2.6-2.4-3.8c-0.2-0.4-0.4-0.7-0.6-1.1c-0.3-0.6-0.5-1.4-0.7-2
						c-0.2-0.5-0.4-1-0.7-1.5c-0.4-0.5-0.9-0.8-1.5-1.2l-1.3-0.7c-0.6-0.3-1.1-0.7-1.6-1.1c-0.6-0.6-1.3-1.3-2.1-1.7
						c-0.4-0.2-0.9-0.3-1.4-0.3c-0.8-0.1-1.9-0.1-2.7-0.2c-0.5-0.1-0.9-0.2-1.4-0.3c-0.6-0.2-1.3-0.5-1.9-0.7
						c-0.3-0.1-0.7-0.2-1.1-0.2c-0.6,0-1.3,0.2-1.9,0.4c-0.5,0.1-0.9,0.2-1.4,0.2c-1.2,0-2.5-0.3-3.8-0.1c-0.5,0.1-1,0.3-1.5,0.6
						c-0.6,0.4-1.2,1-1.8,1.4c-0.4,0.3-0.8,0.5-1.3,0.8c-0.6,0.3-1.6,0.6-2.2,0.9c-0.3,0.2-0.6,0.3-0.9,0.6
						c-0.4,0.3-0.6,0.8-0.8,1.2l-0.5,0.9c-0.2,0.5-0.6,1-0.9,1.4l-0.9,1.1c-0.5,0.6-0.9,1.2-1,1.9c-0.2,0.8-0.1,1.7-0.1,2.5
						c0,0.5,0,1.1-0.1,1.6c-0.2,0.8-0.5,1.6-0.9,2.3c-0.7,1.1-1.8,1.9-2.6,2.9c-0.7,0.9-1,2.1-0.9,3.2c0.1,0.9,0.4,1.8,0.7,2.6
						c0.2,0.6,0.3,1.2,0.4,1.8c0,0.8-0.1,1.6-0.4,2.4c-0.2,0.6-0.5,1.1-0.9,1.6c-0.5,0.6-1.2,1.2-1.4,1.9c-0.2,0.5-0.2,1-0.1,1.4
						c0.2,1.4,1.3,2.4,1.4,3.8c0,1-0.4,1.9-1,2.6"/>
					<path class="st3" d="M628.9,565.4c0.2,0,0.4,0,0.5,0.1c0.8,0.1,1.7,0,2.5-0.1c0.5-0.1,1-0.3,1.4-0.4l0.9-0.4
						c-0.5,0.9-1,1.8-1.5,2.6c-0.1,0-0.3,0.1-0.4,0.2c-0.6,0.3-1.3,0.7-1.9,0.9c0,0,0,0,0,0"/>
					<path class="st20" d="M620,571.9c-0.1,0.1-0.1,0.2-0.2,0.3c-0.6,0.9-1.1,1.8-1.5,2.8c-0.8,2-1,4.2-0.9,6.4
						c-1.3,2.4-2.2,5.1-2.8,7.8c-1.3,5.4-2,13.4-2.8,18.9c-0.6,3.9-1.4,8-2.4,11.8c-2,7.1-5.7,17.4-7.7,24.4
						c-1.8,6.3-3.3,12.9-4.5,19.3c-0.7,3.8-1.3,7.9-1.6,11.8c-0.3,3.6-0.5,7.4-0.5,11c-0.1,4.5,0.1,13.3,0.1,17.7
						c0,3.2-0.2,7.7-0.4,11c-0.5,9.5-1.8,19.1-3.8,28.4l-3,13.4c0,0.2-0.1,0.5-0.1,0.7c-0.1,0.5-0.2,1.1-0.2,1.6
						c0,0.4,0,0.8,0.2,1.1c0.2,0.4,0.5,0.6,0.9,0.7c0.3,0.1,0.6,0.2,0.8,0.2c0.8,0.2,1.8,0.3,2.5,0.5c1.5,0.2,3,0.4,4.5,0.6"/>
					<path class="st3" d="M602.3,763c0.4,0,0.7,0.1,1.1,0.1c0.8,0.1,1.6,0.1,2.4,0.1c0.4,0,0.9-0.1,1.3-0.3c0.2-0.1,0.4-0.3,0.5-0.5
						c0.1,1.8,0.2,3.7,0.3,5.5"/>
					<path class="st21" d="M607.8,779.4c0,0.6,0,1.3-0.1,1.9c-0.2,3-0.4,6.2-0.8,9.2c-0.1,0.8-0.3,1.5-0.5,2.2c-0.3,1-0.7,2-1.2,2.9
						c-0.4,0.8-0.9,1.6-1.5,2.2c-0.5,0.5-1,0.9-1.6,1.3l-1.3,0.8c-0.5,0.3-1,0.7-1.3,1.2c-0.4,0.5-0.5,1.2-0.6,1.8
						c-0.1,0.6-0.1,1.3-0.1,1.9c0,0.3,0.1,0.6,0.2,0.9c0.1,0.1,0.2,0.3,0.3,0.4c0.1,0.1,0.3,0.1,0.4,0.2c0.1,0,0.3,0,0.4,0
						c0,0,19,0,19.1,0l0.1,0c0.1,0,0.1,0,0.2,0c0.2,0,0.4,0,0.5-0.1c0.3-0.1,0.5-0.3,0.7-0.5c0.2-0.3,0.4-0.7,0.5-1.1
						c0.1-0.4,0.2-0.9,0.2-1.3c0-1-0.4-2-0.8-2.9c-0.4-0.8-0.8-1.8-1-2.6c-0.2-0.8-0.4-1.7-0.5-2.6c-0.2-1.8-0.1-3.7,0.1-5.5
						c0.2-2.1,0.6-4.2,1.2-6.3c0.6-2,1.5-4,2.5-5.9c0.7-1.4,1.7-3,2.6-4.5"/>
					<path class="st3" d="M627.7,767.7c0.5-1.8,0.8-3.6,0.9-5.4c0.8,0.1,1.7,0,2.4-0.4c0.6-0.3,1-0.8,1.3-1.3
						c0.5-0.8,0.8-1.7,1.1-2.5c1.7-0.1,3.6-0.3,5.5-0.5"/>
					<path class="st22" d="M648.6,756.4c1.9-0.3,3.9-0.7,5.8-1.1c2-0.5,4.6-1.4,6.6-2c1-0.3,2-0.6,3.1-0.7c0.6-0.1,1.2-0.1,1.8,0
						c0.8,0.1,1.6,0.2,2.3,0.4c1.2,0.3,3.3,0.9,4.5,1.2c0.6,0.1,1.3,0.2,2,0.3c2.2,0.2,4.5,0.1,6.8,0c0.1,0,0.1,0,0.2,0"/>
					<path class="st3" d="M686.4,753.9c1.9-0.2,3.7-0.5,5.5-0.7c0.2,1.5,0.6,3.2,2,4.1c-0.1,1.8,0,3.7,0.2,5.5"/>
					<path class="st23" d="M696.6,773.5c0.5,1.7,0.9,3.3,1.1,4.9c0.5,3.3,0.7,6.6,0.4,9.9c-0.2,2-0.5,4.1-0.9,6.1
						c-0.3,1.6-1.1,4.2-1.4,5.8c-0.2,0.8-0.3,1.7-0.2,2.5c0.1,0.7,0.3,1.4,0.7,2c0.2,0.4,0.6,0.8,0.9,1c0.7,0.4,1.5,0.4,2.3,0.5
						l34.2,0c0.1,0,0.3,0,0.4,0c0.1,0,0.3,0,0.4-0.1c0.2-0.1,0.5-0.2,0.6-0.4c0.2-0.3,0.4-0.7,0.5-1c0.2-0.6,0.2-1.3,0.2-2
						c0-0.5-0.1-1.1-0.3-1.5c-0.2-0.3-0.4-0.6-0.6-0.8c-0.4-0.4-0.9-0.6-1.4-0.8c-1.7-0.6-4.4-1-6.2-1.4c-2.9-0.6-5.7-1.4-8.4-2.6
						c-2-0.9-4-2.1-5.7-3.5c-1-0.9-2-2-2.6-3.2c-0.4-0.7-0.6-1.5-0.7-2.3c-0.1-0.9,0-1.9,0.1-2.8c0.4-3.4,2-10.4,3.5-16.8"/>
					<path class="st3" d="M714.5,761.6c0.5-2.2,0.9-4,1.2-5.4c1.1,0,2.3,0,3.3-0.2c0.7-0.1,1.4-0.4,1.8-0.9c0.2-0.3,0.3-0.6,0.4-1
						c0.1-0.7,0.1-1.4,0.1-2.1c1.8,0.1,3.7,0.1,5.5,0"/>
					<path class="st24" d="M734.6,746.6c0-0.3,0-0.6,0-0.9c-0.1-2.6-1.2-7.7-1.7-10.3c-0.5-3.1-0.9-6.3-1.1-9.4
						c-0.8-11.1-0.6-25.2-1.5-36.3c-0.4-4.8-1-9.7-1.9-14.4c-0.7-3.7-1.7-7.9-2.7-11.5c-1.2-4.6-7.2-24.4-8.7-29.2
						c-1.7-5.6-3.8-11.8-5.9-17.2c-2.8-7.4-6.3-15.3-9.7-22.4l9.4-29.2c1.2-4.1,2.8-8.9,3.5-13c0-0.2,0.1-0.5,0.1-0.7
						c0-0.1,0-0.1,0-0.2l0,0l0,0l0,0l0,0l0,0l0,0l0,0l0,0l0,0l0,0l0,0l0,0l0,0l0,0l0,0l0,0l0,0l0,0l0,0l0,0l0,0l0,0l0,0l0,0l0,0l0,0
						l0,0l0,0l0,0l0,0l0,0l0,0l0,0l0,0l0,0h0h0h0h0h0h0l0,0l0,0l0,0l0,0l0,0l0,0l0,0l0,0l0,0l0,0l0,0l0,0l0,0l0,0
						c-0.1,0.1-0.2,0.2-0.3,0.3c-0.8,1-1.5,2.1-2.1,3.1c-2.5,4.2-4.5,8.7-6.3,13.2c-1.1,2.9-2.4,6.4-3.6,10"/>
					<path class="st3" d="M700,583.4c-0.6,1.9-1.2,3.6-1.8,5.2c-0.8-1.6-1.7-3.2-2.7-4.8"/>
					<path class="st3" d="M688.2,575.7c-1.6-0.9-3.4-1.5-5.1-2c0.1-0.4,0.3-0.9,0.3-1.4c0-0.3,0-0.6-0.2-0.8
						c-0.1-0.2-0.3-0.4-0.5-0.5c-0.6-0.4-1.5-0.8-2.2-1.1"/>
				</g>
			</g>
		</g>
	</g>
	<g>
		<path class="st25" d="M231.3,273.2h11.4l28,45.2h0.2v-45.2H281v61.4h-11.4l-27.9-45.1h-0.3v45.1h-10.2V273.2z"/>
		<path class="st25" d="M290.3,312.3c0-13.5,8.3-23.4,22.4-23.4c14.2,0,22.4,9.9,22.4,23.4c0,13.7-8.3,23.5-22.4,23.5
			C298.6,335.8,290.3,326,290.3,312.3z M325.4,312.3c0-7.7-3.9-15.7-12.6-15.7s-12.6,8-12.6,15.7c0,7.7,3.9,15.7,12.6,15.7
			S325.4,320.1,325.4,312.3z"/>
		<path class="st25" d="M374.7,320.3c0.6,5.8,4.8,7.7,10.1,7.7c3.8,0,10.1-0.8,9.9-5.8c-0.3-5.2-7.4-5.8-14.5-7.4
			c-7.2-1.5-14.3-4.1-14.3-13.2c0-9.7,10.5-12.7,18.6-12.7c9.1,0,17.5,3.7,18.6,13.7h-10.2c-0.9-4.7-4.6-5.9-9-5.9
			c-2.8,0-8.1,0.7-8.1,4.6c0,4.8,7.2,5.6,14.4,7.1c7.1,1.6,14.4,4.2,14.4,13c0,10.6-10.7,14.4-19.9,14.4c-11.3,0-19.4-5-19.7-15.5
			H374.7z"/>
		<path class="st25" d="M419.6,314.9c0,7,3.8,13.2,12,13.2c5.8,0,9.1-2.5,10.8-7.4h9.3c-2.1,9.7-10.5,15.1-20.1,15.1
			c-14,0-21.8-9.6-21.8-23.4c0-12.6,8.3-23.5,21.5-23.5c14,0,22.6,12.6,21,26H419.6z M442.5,308.4c-0.4-6.2-4.5-11.8-11.2-11.8
			c-6.8,0-11.4,5.2-11.7,11.8H442.5z"/>
		<path class="st25" d="M491.3,314.9c0,7,3.8,13.2,12,13.2c5.8,0,9.1-2.5,10.8-7.4h9.3c-2.1,9.7-10.5,15.1-20.1,15.1
			c-14,0-21.8-9.6-21.8-23.4c0-12.6,8.3-23.5,21.5-23.5c14,0,22.6,12.6,21,26H491.3z M514.2,308.4c-0.4-6.2-4.5-11.8-11.2-11.8
			c-6.8,0-11.4,5.2-11.7,11.8H514.2z"/>
		<path class="st25" d="M531.5,290.1h9.3v6.5l0.2,0.2c3-4.9,8-7.9,13.8-7.9c9.7,0,15.7,5.1,15.7,15.1v30.5h-9.8v-27.9
			c-0.3-7-2.8-10-8.7-10c-6.5,0-10.8,5.2-10.8,11.7v26.2h-9.8V290.1z"/>
		<path class="st25" d="M610.9,305c-0.8-5.5-4.6-8.3-10.1-8.3c-5.1,0-12.2,2.8-12.2,16.2c0,7.4,3.3,15.2,11.8,15.2
			c5.8,0,9.6-3.7,10.6-10.1h9.8c-1.8,11.6-8.9,17.9-20.4,17.9c-13.9,0-21.6-9.9-21.6-23c0-13.4,7.3-23.9,21.9-23.9
			c10.3,0,19.1,5.2,20,16.1H610.9z"/>
		<path class="st25" d="M626.6,312.3c0-13.5,8.3-23.4,22.4-23.4c14.2,0,22.4,9.9,22.4,23.4c0,13.7-8.3,23.5-22.4,23.5
			C634.8,335.8,626.6,326,626.6,312.3z M661.7,312.3c0-7.7-3.9-15.7-12.6-15.7c-8.8,0-12.6,8-12.6,15.7c0,7.7,3.9,15.7,12.6,15.7
			C657.8,328.1,661.7,320.1,661.7,312.3z"/>
		<path class="st25" d="M679.7,290.1h9.3v6.5l0.2,0.2c3-4.9,8-7.9,13.8-7.9c9.7,0,15.7,5.1,15.7,15.1v30.5h-9.8v-27.9
			c-0.3-7-2.8-10-8.7-10c-6.5,0-10.8,5.2-10.8,11.7v26.2h-9.8V290.1z"/>
		<path class="st25" d="M724.5,290.1h7.4v-13.3h9.8v13.3h8.9v7.3h-8.9v23.7c0,4,0.3,6.1,4.7,6.1c1.4,0,2.8,0,4.1-0.3v7.6
			c-2.1,0.3-4.2,0.5-6.4,0.5c-10.3,0-12-4-12.3-11.4v-26.2h-7.4V290.1z"/>
		<path class="st25" d="M757.7,290.1h9.2v8.6h0.2c1.1-4.7,7.1-9.8,13-9.8c2.3,0,2.8,0.2,3.7,0.3v9.5c-1.4-0.3-2.8-0.4-4.2-0.4
			c-6.6,0-12,5.3-12,15.2v21.2h-9.8V290.1z"/>
		<path class="st25" d="M784.3,312.3c0-13.5,8.3-23.4,22.4-23.4c14.2,0,22.4,9.9,22.4,23.4c0,13.7-8.3,23.5-22.4,23.5
			C792.6,335.8,784.3,326,784.3,312.3z M819.4,312.3c0-7.7-3.9-15.7-12.6-15.7c-8.8,0-12.6,8-12.6,15.7c0,7.7,3.9,15.7,12.6,15.7
			C815.5,328.1,819.4,320.1,819.4,312.3z M809.6,271.6h11.6L809,283.9h-7.1L809.6,271.6z"/>
		<path class="st25" d="M277.4,393.3h9.3v6.5l0.2,0.2c3-4.9,8-7.9,13.8-7.9c9.7,0,15.7,5.1,15.7,15.1v30.5h-9.8v-27.9
			c-0.3-7-2.8-10-8.7-10c-6.5,0-10.7,5.2-10.7,11.7v26.2h-9.8V393.3z"/>
		<path class="st25" d="M327,376.4h9.8v9.3H327V376.4z M327,393.3h9.8v44.5H327V393.3z"/>
		<path class="st25" d="M347.4,393.3h9.3v6.5l0.2,0.2c3-4.9,8-7.9,13.8-7.9c9.7,0,15.7,5.1,15.7,15.1v30.5h-9.8v-27.9
			c-0.3-7-2.8-10-8.7-10c-6.5,0-10.7,5.2-10.7,11.7v26.2h-9.8V393.3z"/>
		<path class="st25" d="M437.9,435.5c0,13.4-7.7,20-21.8,20c-8.9,0-18.9-3.4-19.9-13.8h9.8c1.2,5.6,5.7,6.5,10.7,6.5
			c7.9,0,11.4-4,11.4-11.4V430h-0.2c-2.8,4.9-7.8,7.8-13.3,7.8c-14.1,0-20-10.7-20-23.4c0-12,7.5-22.3,20.1-22.3
			c5.6,0,10.7,2.2,13.2,7.3h0.2v-6.1h9.8V435.5z M428.1,414.6c0-7.7-3.4-14.7-12-14.7c-8.7,0-11.7,8.1-11.7,15.5
			c0,7.2,3.5,14.7,11.7,14.7C424.8,430,428.1,422.2,428.1,414.6z"/>
		<path class="st25" d="M486.8,437.8h-9.6v-6.2H477c-2.4,4.5-7.7,7.4-12.6,7.4c-11.7,0-16.6-5.8-16.6-17.5v-28.2h9.8v27.3
			c0,7.8,3.1,10.7,8.5,10.7c8.2,0,10.9-5.2,10.9-12.1v-25.8h9.8V437.8z M471.1,374.8h11.6l-12.2,12.3h-7.1L471.1,374.8z"/>
		<path class="st25" d="M497.2,393.3h9.3v6.5l0.2,0.2c3-4.9,8-7.9,13.8-7.9c9.7,0,15.7,5.1,15.7,15.1v30.5h-9.8v-27.9
			c-0.3-7-2.8-10-8.7-10c-6.5,0-10.7,5.2-10.7,11.7v26.2h-9.8V393.3z"/>
		<path class="st25" d="M570.7,393.3h9.8v48.2c0,8.9-3.5,13.8-12.7,13.8c-2,0-3.1-0.1-4.4-0.3v-7.7c1.3,0.3,2.4,0.3,3.4,0.3
			c3.5,0,4-2.1,4-6.5V393.3z M570.7,376.4h9.8v9.3h-9.8V376.4z"/>
		<path class="st25" d="M630.2,437.8h-9.6v-6.2h-0.2c-2.4,4.5-7.7,7.4-12.6,7.4c-11.7,0-16.6-5.8-16.6-17.5v-28.2h9.8v27.3
			c0,7.8,3.1,10.7,8.5,10.7c8.2,0,10.9-5.2,10.9-12.1v-25.8h9.8V437.8z"/>
		<path class="st25" d="M648.2,418.1c0,7,3.8,13.2,12,13.2c5.8,0,9.1-2.5,10.8-7.4h9.3c-2.1,9.7-10.5,15.1-20.1,15.1
			c-14,0-21.8-9.6-21.8-23.4c0-12.6,8.3-23.5,21.5-23.5c14,0,22.6,12.6,21,26H648.2z M671.1,411.6c-0.4-6.2-4.5-11.8-11.2-11.8
			c-6.8,0-11.4,5.2-11.7,11.8H671.1z"/>
		<path class="st25" d="M729.4,435.5c0,13.4-7.7,20-21.8,20c-8.9,0-18.9-3.4-19.9-13.8h9.8c1.2,5.6,5.7,6.5,10.7,6.5
			c7.9,0,11.4-4,11.4-11.4V430h-0.2c-2.8,4.9-7.8,7.8-13.3,7.8c-14.1,0-20-10.7-20-23.4c0-12,7.5-22.3,20.1-22.3
			c5.6,0,10.7,2.2,13.2,7.3h0.2v-6.1h9.8V435.5z M719.6,414.6c0-7.7-3.4-14.7-12-14.7c-8.7,0-11.7,8.1-11.7,15.5
			c0,7.2,3.5,14.7,11.7,14.7C716.4,430,719.6,422.2,719.6,414.6z"/>
		<path class="st25" d="M737.3,415.5c0-13.5,8.3-23.4,22.4-23.4c14.2,0,22.4,9.9,22.4,23.4c0,13.7-8.3,23.5-22.4,23.5
			C745.5,439,737.3,429.2,737.3,415.5z M772.4,415.5c0-7.7-3.9-15.7-12.6-15.7c-8.8,0-12.6,8-12.6,15.7c0,7.7,3.9,15.7,12.6,15.7
			C768.5,431.3,772.4,423.3,772.4,415.5z"/>
	</g>
</g>
</svg>
